{
.appVersion = "3151";
.formatVersion = 3;
customParameters = (
{
name = vendorID;
value = COMM;
},
{
name = panose;
value = (
2,
13,
5,
4,
3,
5,
2,
5,
2,
3
);
},
{
name = unicodeRanges;
value = (
0,
1,
2
);
},
{
name = codePageRanges;
value = (
"1252",
"1250",
"1254",
"1257",
"bit 29"
);
},
{
name = fsType;
value = (
2
);
},
{
name = glyphOrder;
value = (
.notdef,
Eth,
eth,
Lslash,
lslash,
Scaron,
scaron,
Yacute,
yacute,
Thorn,
thorn,
Zcaron,
zcaron,
onehalf,
onequarter,
onesuperior,
threequarters,
threesuperior,
twosuperior,
brokenbar,
minus,
multiply,
space,
exclam,
quotedbl,
numbersign,
dollar,
percent,
ampersand,
quotesingle,
parenleft,
parenright,
asterisk,
plus,
comma,
hyphen,
period,
slash,
zero,
one,
two,
three,
four,
five,
six,
seven,
eight,
nine,
colon,
semicolon,
less,
equal,
greater,
question,
at,
A,
B,
C,
D,
E,
F,
G,
H,
I,
J,
K,
L,
M,
N,
O,
P,
Q,
R,
S,
T,
U,
V,
W,
X,
Y,
Z,
bracketleft,
backslash,
bracketright,
asciicircum,
underscore,
grave,
a,
b,
c,
d,
e,
f,
g,
h,
i,
j,
k,
l,
m,
n,
o,
p,
q,
r,
s,
t,
u,
v,
w,
x,
y,
z,
braceleft,
bar,
braceright,
asciitilde,
Adieresis,
Aring,
Ccedilla,
Eacute,
Ntilde,
Odieresis,
Udieresis,
aacute,
agrave,
acircumflex,
adieresis,
atilde,
aring,
ccedilla,
eacute,
egrave,
ecircumflex,
edieresis,
iacute,
igrave,
icircumflex,
idieresis,
ntilde,
oacute,
ograve,
ocircumflex,
odieresis,
otilde,
uacute,
ugrave,
ucircumflex,
udieresis,
dagger,
degree,
cent,
sterling,
section,
bullet,
paragraph,
germandbls,
registered,
copyright,
trademark,
acute,
dieresis,
notequal,
AE,
Oslash,
infinity,
plusminus,
lessequal,
greaterequal,
yen,
mu,
partialdiff,
summation,
product,
pi,
integral,
ordfeminine,
ordmasculine,
Omega,
ae,
oslash,
questiondown,
exclamdown,
logicalnot,
radical,
florin,
approxequal,
Delta,
guillemotleft,
guillemotright,
ellipsis,
uni00A0,
Agrave,
Atilde,
Otilde,
OE,
oe,
endash,
emdash,
quotedblleft,
quotedblright,
quoteleft,
quoteright,
divide,
lozenge,
ydieresis,
Ydieresis,
fraction,
Euro,
guilsinglleft,
guilsinglright,

glyphs = (
{
glyphname = Eth;
kernRight = Eth;
layers = (
{
hints = (
{
horizontal = 1;
place = (0, 79);
place = (0, 79);
type = Stem;
},
{
horizontal = 1;
place = (321, 76);
place = (321, 76);
type = Stem;
},
{
horizontal = 1;
place = (637, 78);
place = (637, 78);
type = Stem;
},
{
place = (78, 90);
place = (78, 90);
type = Stem;
},
{
place = (563, 92);
place = (563, 92);
type = Stem;
}
);
layerId = m01;
shapes = (
{
closed = 1;
nodes = (
(5,321,l),
(78,321,l),
(78,0,l),
(331,0,ls),
(546,0,o),
(655,141,o),
(655,355,cs),
(655,569,o),
(553,715,o),
(338,715,cs),
(78,715,l),
(78,397,l),
(5,397,l)
);
},
{
closed = 1;
nodes = (
(168,79,l),
(168,321,l),
(375,321,l),
(375,397,l),
(168,397,l),
(168,637,l),
(335,637,ls),
(503,637,o),
(563,523,o),
(563,355,cs),
(563,187,o),
(496,79,o),
(328,79,cs)
);
}
);
width = 695;
}
);
note = Eth;
unicode = 208;
},
{
glyphname = eth;
layers = (
{
hints = (
{
horizontal = 1;
place = (-14, 68);
place = (-14, 68);
type = Stem;
},
{
horizontal = 1;
place = (459, 67);
place = (459, 67);
type = Stem;
},
{
horizontal = 1;
place = (715, -20);
target = down;
type = TopGhost;
},
{
place = (26, 83);
place = (26, 83);
type = Stem;
},
{
place = (442, 83);
place = (442, 83);
type = Stem;
},
{
horizontal = 1;
place = (695, -20);
target = down;
type = TopGhost;
},
{
horizontal = 1;
place = (641, 74);
place = (641, 74);
type = Stem;
}
);
layerId = m01;
shapes = (
{
closed = 1;
nodes = (
(149,602,l),
(164,558,l),
(314,604,l),
(357,559,o),
(393,509,o),
(417,452,c),
(381,495,o),
(330,526,o),
(265,526,cs),
(116,526,o),
(26,408,o),
(26,258,cs),
(26,108,o),
(122,-14,o),
(276,-14,cs),
(431,-14,o),
(525,107,o),
(525,271,cs),
(525,433,o),
(462,549,o),
(390,628,c),
(463,651,l),
(448,695,l),
(352,665,l),
(330,684,o),
(308,701,o),
(287,715,c),
(186,715,l),
(216,692,o),
(247,668,o),
(276,641,c)
);
},
{
closed = 1;
nodes = (
(166,54,o),
(109,144,o),
(109,258,cs),
(109,372,o),
(164,459,o),
(272,459,cs),
(384,459,o),
(442,374,o),
(442,261,cs),
(442,146,o),
(386,54,o),
(276,54,cs)
);
}
);
width = 551;
}
);
note = eth;
unicode = 240;
},
{
glyphname = Lslash;
layers = (
{
hints = (
{
horizontal = 1;
place = (0, 83);
place = (0, 83);
type = Stem;
},
{
horizontal = 1;
place = (715, -20);
target = down;
type = TopGhost;
},
{
place = (67, 90);
place = (67, 90);
type = Stem;
}
);
layerId = m01;
shapes = (
{
closed = 1;
nodes = (
(-5,201,l),
(67,239,l),
(67,0,l),
(532,0,l),
(532,83,l),
(157,83,l),
(157,288,l),
(405,421,l),
(405,498,l),
(157,365,l),
(157,715,l),
(67,715,l),
(67,316,l),
(-5,278,l)
);
}
);
width = 554;
}
);
note = Lslash;
unicode = 321;
},
{
glyphname = lslash;
layers = (
{
hints = (
{
horizontal = 1;
place = (0, 21);
target = up;
type = BottomGhost;
},
{
horizontal = 1;
place = (715, -20);
target = down;
type = TopGhost;
},
{
place = (73, 81);
place = (73, 81);
type = Stem;
}
);
layerId = m01;
shapes = (
{
closed = 1;
nodes = (
(5,241,l),
(73,296,l),
(73,0,l),
(154,0,l),
(154,361,l),
(233,425,l),
(233,502,l),
(154,438,l),
(154,715,l),
(73,715,l),
(73,373,l),
(5,318,l)
);
}
);
width = 227;
}
);
note = lslash;
unicode = 322;
},
{
glyphname = Scaron;
kernLeft = Scaron;
kernRight = Scaron;
layers = (
{
hints = (
{
horizontal = 1;
place = (-14, 72);
place = (-14, 72);
type = Stem;
},
{
horizontal = 1;
place = (659, 70);
place = (659, 70);
type = Stem;
},
{
place = (53, 84);
place = (53, 84);
type = Stem;
},
{
place = (501, 89);
place = (501, 89);
type = Stem;
},
{
horizontal = 1;
place = (757, 106);
place = (757, 106);
type = Stem;
}
);
layerId = m01;
shapes = (
{
closed = 1;
nodes = (
(481,-14,o),
(590,61,o),
(590,195,cs),
(590,356,o),
(463,390,o),
(324,418,cs),
(217,439,o),
(137,463,o),
(137,544,cs),
(137,618,o),
(201,659,o),
(298,659,cs),
(403,659,o),
(469,608,o),
(482,506,c),
(567,506,l),
(549,638,o),
(475,729,o),
(296,729,cs),
(151,729,o),
(53,658,o),
(53,540,cs),
(53,405,o),
(161,369,o),
(287,341,cs),
(415,313,o),
(501,290,o),
(501,192,cs),
(501,103,o),
(430,58,o),
(331,58,cs),
(196,58,o),
(122,121,o),
(110,242,c),
(22,242,l),
(30,98,o),
(126,-14,o),
(327,-14,cs)
);
},
{
closed = 1;
nodes = (
(256,757,l),
(348,757,l),
(441,863,l),
(356,863,l),
(305,800,l),
(303,800,l),
(254,863,l),
(167,863,l)
);
}
);
width = 626;
}
);
note = Scaron;
unicode = 352;
},
{
glyphname = scaron;
kernLeft = scaron;
kernRight = scaron;
layers = (
{
hints = (
{
horizontal = 1;
place = (-15, 68);
place = (-15, 68);
type = Stem;
},
{
horizontal = 1;
place = (464, 64);
place = (464, 64);
type = Stem;
},
{
horizontal = 1;
place = (602, 106);
place = (602, 106);
type = Stem;
},
{
place = (45, 80);
place = (45, 80);
type = Stem;
},
{
place = (373, 82);
place = (373, 82);
type = Stem;
}
);
layerId = m01;
shapes = (
{
closed = 1;
nodes = (
(370,-15,o),
(455,38,o),
(455,142,cs),
(455,261,o),
(368,284,o),
(264,305,cs),
(175,323,o),
(125,334,o),
(125,390,cs),
(125,431,o),
(155,464,o),
(229,464,cs),
(306,464,o),
(343,434,o),
(351,366,c),
(434,366,l),
(422,467,o),
(359,528,o),
(231,528,cs),
(111,528,o),
(45,472,o),
(45,386,cs),
(45,273,o),
(136,252,o),
(238,231,cs),
(333,211,o),
(373,196,o),
(373,138,cs),
(373,90,o),
(338,53,o),
(253,53,cs),
(176,53,o),
(116,78,o),
(105,168,c),
(22,168,l),
(30,52,o),
(109,-15,o),
(251,-15,cs)
);
},
{
closed = 1;
nodes = (
(190,602,l),
(282,602,l),
(375,708,l),
(290,708,l),
(239,645,l),
(237,645,l),
(188,708,l),
(101,708,l)
);
}
);
width = 478;
}
);
note = scaron;
unicode = 353;
},
{
glyphname = Yacute;
kernLeft = Yacute;
kernRight = Yacute;
layers = (
{
hints = (
{
horizontal = 1;
place = (0, 21);
target = up;
type = BottomGhost;
},
{
horizontal = 1;
place = (715, -20);
target = down;
type = TopGhost;
},
{
horizontal = 1;
place = (753, 121);
place = (753, 121);
type = Stem;
},
{
place = (269, 90);
place = (269, 90);
type = Stem;
}
);
layerId = m01;
shapes = (
{
closed = 1;
nodes = (
(269,0,l),
(359,0,l),
(359,301,l),
(621,715,l),
(525,715,l),
(317,375,l),
(315,375,l),
(110,715,l),
(10,715,l),
(269,303,l)
);
},
{
closed = 1;
nodes = (
(278,753,l),
(347,753,l),
(429,874,l),
(329,874,l)
);
}
);
width = 631;
}
);
note = Yacute;
unicode = 221;
},
{
glyphname = yacute;
kernLeft = yacute;
kernRight = yacute;
layers = (
{
hints = (
{
horizontal = 1;
place = (-171, 72);
place = (-171, 72);
type = Stem;
},
{
horizontal = 1;
place = (517, -20);
target = down;
type = TopGhost;
},
{
horizontal = 1;
place = (598, 127);
place = (598, 127);
type = Stem;
},
{
place = (2, 485);
place = (2, 485);
type = Stem;
},
{
horizontal = 1;
place = (-160, 21);
target = up;
type = BottomGhost;
}
);
layerId = m01;
shapes = (
{
closed = 1;
nodes = (
(184,-171,o),
(224,-149,o),
(266,-42,cs),
(487,517,l),
(401,517,l),
(283,195,ls),
(267,152,o),
(249,94,o),
(249,94,c),
(247,94,l),
(247,94,o),
(228,152,o),
(212,195,cs),
(90,517,l),
(2,517,l),
(204,15,l),
(184,-36,ls),
(164,-86,o),
(141,-99,o),
(107,-99,cs),
(80,-99,o),
(63,-94,o),
(52,-88,c),
(48,-88,l),
(48,-160,l),
(70,-169,o),
(90,-171,o),
(121,-171,cs)
);
},
{
closed = 1;
nodes = (
(217,598,l),
(286,598,l),
(368,725,l),
(268,725,l)
);
}
);
width = 489;
}
);
note = yacute;
unicode = 253;
},
{
glyphname = Thorn;
layers = (
{
hints = (
{
horizontal = 1;
place = (0, 21);
target = up;
type = BottomGhost;
},
{
horizontal = 1;
place = (173, 73);
place = (173, 73);
type = Stem;
},
{
horizontal = 1;
place = (510, 78);
place = (510, 78);
type = Stem;
},
{
place = (67, 90);
place = (67, 90);
type = Stem;
},
{
place = (494, 89);
place = (494, 89);
type = Stem;
},
{
horizontal = 1;
place = (510, 205);
place = (510, 205);
type = Stem;
}
);
layerId = m01;
shapes = (
{
closed = 1;
nodes = (
(67,0,l),
(157,0,l),
(157,173,l),
(352,173,ls),
(508,173,o),
(583,252,o),
(583,383,cs),
(583,437,o),
(565,484,o),
(535,519,cs),
(498,563,o),
(440,588,o),
(365,588,cs),
(157,588,l),
(157,715,l),
(67,715,l)
);
},
{
closed = 1;
nodes = (
(350,510,ls),
(441,510,o),
(494,465,o),
(494,379,cs),
(494,297,o),
(446,246,o),
(345,246,cs),
(157,246,l),
(157,510,l)
);
}
);
width = 600;
}
);
note = Thorn;
unicode = 222;
},
{
glyphname = thorn;
kernRight = thorn;
layers = (
{
hints = (
{
horizontal = 1;
place = (-166, 21);
target = up;
type = BottomGhost;
},
{
horizontal = 1;
place = (-15, 68);
place = (-15, 68);
type = Stem;
},
{
horizontal = 1;
place = (460, 69);
place = (460, 69);
type = Stem;
},
{
horizontal = 1;
place = (715, -20);
target = down;
type = TopGhost;
},
{
place = (55, 81);
place = (55, 81);
type = Stem;
},
{
place = (443, 83);
place = (443, 83);
type = Stem;
}
);
layerId = m01;
shapes = (
{
closed = 1;
nodes = (
(441,-15,o),
(526,91,o),
(526,257,cs),
(526,429,o),
(435,529,o),
(304,529,cs),
(229,529,o),
(177,497,o),
(138,444,c),
(136,444,l),
(136,715,l),
(55,715,l),
(55,-166,l),
(136,-166,l),
(136,61,l),
(138,61,l),
(181,6,o),
(231,-15,o),
(301,-15,cs)
);
},
{
closed = 1;
nodes = (
(176,53,o),
(131,144,o),
(131,256,cs),
(131,368,o),
(183,460,o),
(296,460,cs),
(394,460,o),
(443,372,o),
(443,256,cs),
(443,139,o),
(394,53,o),
(295,53,cs)
);
}
);
width = 552;
}
);
note = thorn;
unicode = 254;
},
{
glyphname = Zcaron;
kernLeft = Zcaron;
kernRight = Zcaron;
layers = (
{
hints = (
{
horizontal = 1;
place = (0, 81);
place = (0, 81);
type = Stem;
},
{
horizontal = 1;
place = (639, 76);
place = (639, 76);
type = Stem;
},
{
horizontal = 1;
place = (757, 106);
place = (757, 106);
type = Stem;
},
{
place = (30, 105);
place = (30, 105);
type = Stem;
},
{
place = (458, 111);
place = (458, 111);
type = Stem;
}
);
layerId = m01;
shapes = (
{
closed = 1;
nodes = (
(30,0,l),
(586,0,l),
(586,81,l),
(135,81,l),
(135,84,l),
(569,645,l),
(569,715,l),
(55,715,l),
(55,639,l),
(458,639,l),
(458,636,l),
(30,86,l)
);
},
{
closed = 1;
nodes = (
(260,757,l),
(352,757,l),
(445,863,l),
(360,863,l),
(309,800,l),
(307,800,l),
(258,863,l),
(171,863,l)
);
}
);
width = 622;
}
);
note = Zcaron;
unicode = 381;
},
{
glyphname = zcaron;
kernLeft = zcaron;
kernRight = zcaron;
layers = (
{
hints = (
{
horizontal = 1;
place = (0, 74);
place = (0, 74);
type = Stem;
},
{
horizontal = 1;
place = (446, 71);
place = (446, 71);
type = Stem;
},
{
horizontal = 1;
place = (602, 106);
place = (602, 106);
type = Stem;
},
{
place = (34, 104);
place = (34, 104);
type = Stem;
}
);
layerId = m01;
shapes = (
{
closed = 1;
nodes = (
(34,0,l),
(446,0,l),
(446,74,l),
(138,74,l),
(138,77,l),
(435,469,l),
(435,517,l),
(51,517,l),
(51,446,l),
(322,446,l),
(322,443,l),
(34,64,l)
);
},
{
closed = 1;
nodes = (
(195,602,l),
(287,602,l),
(380,708,l),
(295,708,l),
(244,645,l),
(242,645,l),
(193,708,l),
(106,708,l)
);
}
);
width = 471;
}
);
note = zcaron;
unicode = 382;
},
{
glyphname = onehalf;
layers = (
{
hints = (
{
horizontal = 1;
place = (0, 59);
place = (0, 59);
type = Stem;
},
{
horizontal = 1;
place = (360, 59);
place = (360, 59);
type = Stem;
},
{
horizontal = 1;
place = (593, 125);
place = (593, 125);
type = Stem;
},
{
place = (125, 72);
place = (125, 72);
type = Stem;
},
{
place = (485, 68);
place = (485, 68);
type = Stem;
},
{
place = (701, 74);
place = (701, 74);
type = Stem;
},
{
horizontal = 1;
place = (593, 49);
place = (593, 49);
type = Stem;
},
{
horizontal = 1;
place = (715, -20);
target = down;
type = TopGhost;
}
);
layerId = m01;
shapes = (
{
closed = 1;
nodes = (
(125,304,l),
(197,304,l),
(197,718,l),
(136,718,l),
(128,662,o),
(83,643,o),
(26,642,c),
(26,593,l),
(125,593,l)
);
},
{
closed = 1;
nodes = (
(93,0,l),
(165,0,l),
(618,715,l),
(546,715,l)
);
},
{
closed = 1;
nodes = (
(774,0,l),
(774,59,l),
(559,59,l),
(571,94,o),
(622,124,o),
(658,146,cs),
(715,181,o),
(775,212,o),
(775,290,cs),
(775,362,o),
(719,419,o),
(634,419,cs),
(542,419,o),
(485,367,o),
(485,268,c),
(553,268,l),
(553,328,o),
(582,360,o),
(630,360,cs),
(673,360,o),
(701,333,o),
(701,289,cs),
(701,237,o),
(654,214,o),
(599,178,cs),
(542,140,o),
(479,92,o),
(475,0,c)
);
}
);
width = 804;
}
);
note = onehalf;
unicode = 189;
},
{
glyphname = onequarter;
layers = (
{
hints = (
{
horizontal = 1;
place = (94, 55);
place = (94, 55);
type = Stem;
},
{
horizontal = 1;
place = (593, 125);
place = (593, 125);
type = Stem;
},
{
place = (125, 72);
place = (125, 72);
type = Stem;
},
{
place = (620, 69);
place = (620, 69);
type = Stem;
},
{
horizontal = 1;
place = (593, 49);
place = (593, 49);
type = Stem;
},
{
horizontal = 1;
place = (0, 149);
place = (0, 149);
type = Stem;
},
{
horizontal = 1;
place = (715, -20);
target = down;
type = TopGhost;
},
{
horizontal = 1;
place = (324, 92);
place = (324, 92);
type = Stem;
},
{
place = (417, 58);
place = (417, 58);
type = Stem;
}
);
layerId = m01;
shapes = (
{
closed = 1;
nodes = (
(125,304,l),
(197,304,l),
(197,718,l),
(136,718,l),
(128,662,o),
(83,643,o),
(26,642,c),
(26,593,l),
(125,593,l)
);
},
{
closed = 1;
nodes = (
(105,0,l),
(177,0,l),
(630,715,l),
(558,715,l)
);
},
{
closed = 1;
nodes = (
(620,0,l),
(689,0,l),
(689,94,l),
(754,94,l),
(754,149,l),
(689,149,l),
(689,416,l),
(621,416,l),
(417,165,l),
(417,94,l),
(620,94,l)
);
},
{
closed = 1;
nodes = (
(475,151,l),
(618,324,l),
(620,324,l),
(620,149,l),
(475,149,l)
);
}
);
width = 779;
}
);
note = onequarter;
unicode = 188;
},
{
glyphname = onesuperior;
layers = (
{
hints = (
{
horizontal = 1;
place = (563, 125);
place = (563, 125);
type = Stem;
},
{
place = (122, 72);
place = (122, 72);
type = Stem;
},
{
horizontal = 1;
place = (563, 49);
place = (563, 49);
type = Stem;
}
);
layerId = m01;
shapes = (
{
closed = 1;
nodes = (
(122,274,l),
(194,274,l),
(194,688,l),
(133,688,l),
(125,632,o),
(80,613,o),
(23,612,c),
(23,563,l),
(122,563,l)
);
}
);
width = 254;
}
);
note = onesuperior;
unicode = 185;
},
{
glyphname = threequarters;
layers = (
{
hints = (
{
horizontal = 1;
place = (94, 55);
place = (94, 55);
type = Stem;
},
{
horizontal = 1;
place = (295, 57);
place = (295, 57);
type = Stem;
},
{
horizontal = 1;
place = (524, -20);
target = down;
type = TopGhost;
},
{
horizontal = 1;
place = (670, 54);
place = (670, 54);
type = Stem;
},
{
place = (38, 68);
place = (38, 68);
type = Stem;
},
{
place = (271, 73);
place = (271, 73);
type = Stem;
},
{
place = (483, 58);
place = (483, 58);
type = Stem;
},
{
place = (686, 69);
place = (686, 69);
type = Stem;
},
{
horizontal = 1;
place = (494, 55);
place = (494, 55);
type = Stem;
},
{
place = (259, 69);
place = (259, 69);
type = Stem;
},
{
place = (156, 105);
place = (156, 105);
type = Stem;
},
{
horizontal = 1;
place = (0, 149);
place = (0, 149);
type = Stem;
},
{
horizontal = 1;
place = (715, -20);
target = down;
type = TopGhost;
},
{
horizontal = 1;
place = (324, 92);
place = (324, 92);
type = Stem;
}
);
layerId = m01;
shapes = (
{
closed = 1;
nodes = (
(274,295,o),
(344,338,o),
(344,420,cs),
(344,476,o),
(316,511,o),
(261,524,c),
(261,526,l),
(301,539,o),
(328,566,o),
(328,611,cs),
(328,681,o),
(270,724,o),
(189,724,cs),
(96,724,o),
(40,669,o),
(38,588,c),
(106,588,l),
(108,637,o),
(136,670,o),
(188,670,cs),
(229,670,o),
(259,647,o),
(259,609,cs),
(259,571,o),
(230,549,o),
(181,549,cs),
(156,549,l),
(156,494,l),
(182,494,ls),
(239,494,o),
(271,470,o),
(271,426,cs),
(271,377,o),
(238,352,o),
(187,352,cs),
(125,352,o),
(96,386,o),
(93,442,c),
(25,442,l),
(26,351,o),
(90,295,o),
(190,295,cs)
);
},
{
closed = 1;
nodes = (
(182,0,l),
(254,0,l),
(707,715,l),
(635,715,l)
);
},
{
closed = 1;
nodes = (
(686,0,l),
(755,0,l),
(755,94,l),
(820,94,l),
(820,149,l),
(755,149,l),
(755,416,l),
(687,416,l),
(483,165,l),
(483,94,l),
(686,94,l)
);
},
{
closed = 1;
nodes = (
(541,151,l),
(684,324,l),
(686,324,l),
(686,149,l),
(541,149,l)
);
}
);
width = 845;
}
);
note = threequarters;
unicode = 190;
},
{
glyphname = threesuperior;
layers = (
{
hints = (
{
horizontal = 1;
place = (265, 57);
place = (265, 57);
type = Stem;
},
{
horizontal = 1;
place = (464, 55);
place = (464, 55);
type = Stem;
},
{
horizontal = 1;
place = (640, 54);
place = (640, 54);
type = Stem;
},
{
place = (35, 68);
place = (35, 68);
type = Stem;
},
{
place = (268, 73);
place = (268, 73);
type = Stem;
},
{
place = (256, 69);
place = (256, 69);
type = Stem;
},
{
place = (153, 105);
place = (153, 105);
type = Stem;
}
);
layerId = m01;
shapes = (
{
closed = 1;
nodes = (
(271,265,o),
(341,308,o),
(341,390,cs),
(341,446,o),
(313,481,o),
(258,494,c),
(258,496,l),
(298,509,o),
(325,536,o),
(325,581,cs),
(325,651,o),
(267,694,o),
(186,694,cs),
(93,694,o),
(37,639,o),
(35,558,c),
(103,558,l),
(105,607,o),
(133,640,o),
(185,640,cs),
(226,640,o),
(256,617,o),
(256,579,cs),
(256,541,o),
(227,519,o),
(178,519,cs),
(153,519,l),
(153,464,l),
(179,464,ls),
(236,464,o),
(268,440,o),
(268,396,cs),
(268,347,o),
(235,322,o),
(184,322,cs),
(122,322,o),
(93,356,o),
(90,412,c),
(22,412,l),
(23,321,o),
(87,265,o),
(187,265,cs)
);
}
);
width = 367;
}
);
note = threesuperior;
unicode = 179;
},
{
glyphname = twosuperior;
layers = (
{
hints = (
{
horizontal = 1;
place = (274, 59);
place = (274, 59);
type = Stem;
},
{
horizontal = 1;
place = (634, 59);
place = (634, 59);
type = Stem;
},
{
place = (33, 68);
place = (33, 68);
type = Stem;
},
{
place = (249, 74);
place = (249, 74);
type = Stem;
}
);
layerId = m01;
shapes = (
{
closed = 1;
nodes = (
(322,274,l),
(322,333,l),
(111,333,l),
(123,368,o),
(174,396,o),
(210,418,cs),
(267,453,o),
(323,486,o),
(323,564,cs),
(323,636,o),
(267,693,o),
(182,693,cs),
(90,693,o),
(33,641,o),
(33,542,c),
(101,542,l),
(101,602,o),
(130,634,o),
(178,634,cs),
(221,634,o),
(249,607,o),
(249,563,cs),
(249,511,o),
(199,488,o),
(147,452,cs),
(90,413,o),
(27,366,o),
(23,274,c)
);
}
);
width = 349;
}
);
note = twosuperior;
unicode = 178;
},
{
glyphname = brokenbar;
layers = (
{
hints = (
{
horizontal = 1;
place = (-118, 872);
place = (-118, 872);
type = Stem;
},
{
place = (77, 70);
place = (77, 70);
type = Stem;
}
);
layerId = m01;
shapes = (
{
closed = 1;
nodes = (
(77,-118,l),
(147,-118,l),
(147,294,l),
(77,294,l)
);
},
{
closed = 1;
nodes = (
(77,358,l),
(147,358,l),
(147,754,l),
(77,754,l)
);
}
);
width = 224;
}
);
note = brokenbar;
unicode = 166;
},
{
glyphname = minus;
kernLeft = minus;
kernRight = minus;
layers = (
{
hints = (
{
horizontal = 1;
place = (294, 64);
place = (294, 64);
type = Stem;
},
{
place = (53, 454);
place = (53, 454);
type = Stem;
}
);
layerId = m01;
shapes = (
{
closed = 1;
nodes = (
(53,294,l),
(507,294,l),
(507,358,l),
(53,358,l)
);
}
);
width = 560;
}
);
note = minus;
unicode = 8722;
},
{
glyphname = multiply;
layers = (
{
hints = (
{
horizontal = 1;
place = (117, 418);
place = (117, 418);
type = Stem;
},
{
place = (72, 416);
place = (72, 416);
type = Stem;
}
);
layerId = m01;
shapes = (
{
closed = 1;
nodes = (
(117,117,l),
(280,281,l),
(443,117,l),
(488,160,l),
(324,326,l),
(488,492,l),
(443,535,l),
(280,370,l),
(117,535,l),
(72,492,l),
(236,326,l),
(72,160,l)
);
}
);
width = 560;
}
);
note = multiply;
unicode = 215;
},
{
glyphname = exclam;
layers = (
{
hints = (
{
horizontal = 1;
place = (0, 99);
place = (0, 99);
type = Stem;
},
{
horizontal = 1;
place = (715, -20);
target = down;
type = TopGhost;
},
{
place = (73, 89);
place = (73, 89);
type = Stem;
},
{
place = (69, 97);
place = (69, 97);
type = Stem;
}
);
layerId = m01;
shapes = (
{
closed = 1;
nodes = (
(95,173,l),
(140,173,l),
(162,486,l),
(162,715,l),
(73,715,l),
(73,486,l)
);
},
{
closed = 1;
nodes = (
(69,0,l),
(166,0,l),
(166,99,l),
(69,99,l)
);
}
);
width = 235;
}
);
note = exclam;
unicode = 33;
},
{
glyphname = quotedbl;
kernLeft = quotedbl;
kernRight = quotedbl;
layers = (
{
hints = (
{
horizontal = 1;
place = (501, 214);
place = (501, 214);
type = Stem;
},
{
place = (42, 74);
place = (42, 74);
type = Stem;
},
{
place = (181, 74);
place = (181, 74);
type = Stem;
}
);
layerId = m01;
shapes = (
{
closed = 1;
nodes = (
(181,501,l),
(255,501,l),
(255,715,l),
(181,715,l)
);
},
{
closed = 1;
nodes = (
(42,501,l),
(116,501,l),
(116,715,l),
(42,715,l)
);
}
);
width = 297;
}
);
note = quotedbl;
unicode = 34;
},
{
glyphname = numbersign;
layers = (
{
hints = (
{
horizontal = 1;
place = (0, 21);
target = up;
type = BottomGhost;
},
{
horizontal = 1;
place = (198, 72);
place = (198, 72);
type = Stem;
},
{
horizontal = 1;
place = (424, 72);
place = (424, 72);
type = Stem;
},
{
horizontal = 1;
place = (686, -20);
target = down;
type = TopGhost;
},
{
place = (31, 517);
place = (31, 517);
type = Stem;
}
);
layerId = m01;
shapes = (
{
closed = 1;
nodes = (
(63,424,l),
(165,424,l),
(143,270,l),
(42,270,l),
(31,198,l),
(133,198,l),
(106,0,l),
(174,0,l),
(201,198,l),
(337,198,l),
(310,0,l),
(378,0,l),
(405,198,l),
(504,198,l),
(515,270,l),
(415,270,l),
(437,424,l),
(537,424,l),
(548,496,l),
(447,496,l),
(473,686,l),
(405,686,l),
(379,496,l),
(243,496,l),
(269,686,l),
(201,686,l),
(175,496,l),
(74,496,l)
);
},
{
closed = 1;
nodes = (
(233,424,l),
(369,424,l),
(347,270,l),
(211,270,l)
);
}
);
width = 579;
}
);
note = numbersign;
unicode = 35;
},
{
glyphname = dollar;
layers = (
{
hints = (
{
horizontal = 1;
place = (-1, 68);
place = (-1, 68);
type = Stem;
},
{
horizontal = 1;
place = (636, 66);
place = (636, 66);
type = Stem;
},
{
place = (48, 79);
place = (48, 79);
type = Stem;
},
{
place = (263, 56);
place = (263, 56);
type = Stem;
},
{
place = (467, 82);
place = (467, 82);
type = Stem;
},
{
horizontal = 1;
place = (0, 68);
place = (0, 68);
type = Stem;
},
{
place = (16, 84);
place = (16, 84);
type = Stem;
}
);
layerId = m01;
shapes = (
{
closed = 1;
nodes = (
(263,-85,l),
(319,-85,l),
(319,-1,l),
(449,6,o),
(549,79,o),
(549,199,cs),
(549,334,o),
(449,368,o),
(319,394,c),
(319,635,l),
(397,626,o),
(443,586,o),
(452,519,c),
(533,519,l),
(518,626,o),
(453,692,o),
(319,702,c),
(319,757,l),
(263,757,l),
(263,702,l),
(135,696,o),
(48,627,o),
(48,515,cs),
(48,388,o),
(140,354,o),
(263,327,c),
(263,68,l),
(155,78,o),
(109,136,o),
(100,231,c),
(16,231,l),
(22,117,o),
(90,11,o),
(263,0,c)
);
},
{
closed = 1;
nodes = (
(467,119,o),
(399,73,o),
(319,67,c),
(319,314,l),
(415,292,o),
(467,270,o),
(467,196,cs)
);
},
{
closed = 1;
nodes = (
(127,589,o),
(182,630,o),
(263,636,c),
(263,405,l),
(170,426,o),
(127,455,o),
(127,519,cs)
);
}
);
width = 579;
}
);
note = dollar;
unicode = 36;
},
{
glyphname = percent;
kernLeft = percent;
layers = (
{
hints = (
{
horizontal = 1;
place = (-15, 60);
place = (-15, 60);
type = Stem;
},
{
horizontal = 1;
place = (305, 60);
place = (305, 60);
type = Stem;
},
{
horizontal = 1;
place = (641, 60);
place = (641, 60);
type = Stem;
},
{
place = (24, 76);
place = (24, 76);
type = Stem;
},
{
place = (272, 74);
place = (272, 74);
type = Stem;
},
{
place = (467, 76);
place = (467, 76);
type = Stem;
},
{
place = (715, 74);
place = (715, 74);
type = Stem;
},
{
horizontal = 1;
place = (321, 60);
place = (321, 60);
type = Stem;
},
{
horizontal = 1;
place = (0, 21);
target = up;
type = BottomGhost;
},
{
horizontal = 1;
place = (685, -20);
target = down;
type = TopGhost;
}
);
layerId = m01;
shapes = (
{
closed = 1;
nodes = (
(282,305,o),
(346,383,o),
(346,503,cs),
(346,627,o),
(278,701,o),
(186,701,cs),
(94,701,o),
(24,625,o),
(24,503,cs),
(24,383,o),
(90,305,o),
(186,305,cs)
);
},
{
closed = 1;
nodes = (
(725,-15,o),
(789,63,o),
(789,183,cs),
(789,307,o),
(721,381,o),
(629,381,cs),
(537,381,o),
(467,305,o),
(467,183,cs),
(467,63,o),
(533,-15,o),
(629,-15,cs)
);
},
{
closed = 1;
nodes = (
(176,0,l),
(244,0,l),
(637,685,l),
(569,685,l)
);
},
{
closed = 1;
nodes = (
(130,365,o),
(100,425,o),
(100,503,cs),
(100,583,o),
(130,641,o),
(186,641,cs),
(241,641,o),
(272,581,o),
(272,503,cs),
(272,423,o),
(243,365,o),
(186,365,cs)
);
},
{
closed = 1;
nodes = (
(573,45,o),
(543,105,o),
(543,183,cs),
(543,263,o),
(573,321,o),
(629,321,cs),
(684,321,o),
(715,261,o),
(715,183,cs),
(715,103,o),
(686,45,o),
(629,45,cs)
);
}
);
width = 813;
}
);
note = percent;
unicode = 37;
},
{
glyphname = ampersand;
kernLeft = ampersand;
kernRight = ampersand;
layers = (
{
hints = (
{
horizontal = 1;
place = (-14, 71);
place = (-14, 71);
type = Stem;
},
{
horizontal = 1;
place = (641, 67);
place = (641, 67);
type = Stem;
},
{
place = (39, 81);
place = (39, 81);
type = Stem;
},
{
place = (350, 78);
place = (350, 78);
type = Stem;
},
{
place = (463, 70);
place = (463, 70);
type = Stem;
},
{
horizontal = 1;
place = (0, 21);
target = up;
type = BottomGhost;
},
{
place = (119, 76);
place = (119, 76);
type = Stem;
}
);
layerId = m01;
shapes = (
{
closed = 1;
nodes = (
(328,-14,o),
(394,20,o),
(442,72,c),
(498,0,l),
(595,0,l),
(487,138,l),
(517,195,o),
(533,263,o),
(533,331,c),
(463,331,l),
(463,282,o),
(454,238,o),
(439,199,c),
(297,380,l),
(365,424,o),
(428,472,o),
(428,559,cs),
(428,659,o),
(352,708,o),
(273,708,cs),
(186,708,o),
(119,646,o),
(119,565,cs),
(119,513,o),
(133,471,o),
(174,418,cs),
(194,392,l),
(104,337,o),
(39,283,o),
(39,177,cs),
(39,60,o),
(140,-14,o),
(244,-14,cs)
);
},
{
closed = 1;
nodes = (
(178,57,o),
(120,106,o),
(120,177,cs),
(120,256,o),
(169,297,o),
(234,340,c),
(398,129,l),
(360,84,o),
(309,57,o),
(249,57,cs)
);
},
{
closed = 1;
nodes = (
(195,610,o),
(227,641,o),
(273,641,cs),
(320,641,o),
(350,610,o),
(350,561,cs),
(350,506,o),
(320,470,o),
(258,430,c),
(239,455,ls),
(208,495,o),
(195,524,o),
(195,564,cs)
);
}
);
width = 587;
}
);
note = ampersand;
unicode = 38;
},
{
glyphname = quotesingle;
kernLeft = quotedbl;
kernRight = quotedbl;
layers = (
{
hints = (
{
horizontal = 1;
place = (501, 214);
place = (501, 214);
type = Stem;
},
{
place = (42, 74);
place = (42, 74);
type = Stem;
}
);
layerId = m01;
shapes = (
{
closed = 1;
nodes = (
(42,501,l),
(116,501,l),
(116,715,l),
(42,715,l)
);
}
);
width = 158;
}
);
note = quotesingle;
unicode = 39;
},
{
glyphname = parenleft;
kernRight = parenleft;
layers = (
{
hints = (
{
horizontal = 1;
place = (-118, 872);
place = (-118, 872);
type = Stem;
},
{
place = (71, 95);
place = (71, 95);
type = Stem;
}
);
layerId = m01;
shapes = (
{
closed = 1;
nodes = (
(283,-118,l),
(208,20,o),
(166,158,o),
(166,335,cs),
(166,499,o),
(217,642,o),
(283,754,c),
(217,754,l),
(141,648,o),
(71,509,o),
(71,335,cs),
(71,147,o),
(135,7,o),
(217,-118,c)
);
}
);
width = 304;
}
);
note = parenleft;
unicode = 40;
},
{
glyphname = parenright;
kernLeft = parenright;
layers = (
{
hints = (
{
horizontal = 1;
place = (-118, 872);
place = (-118, 872);
type = Stem;
},
{
place = (139, 95);
place = (139, 95);
type = Stem;
}
);
layerId = m01;
shapes = (
{
closed = 1;
nodes = (
(88,-118,l),
(170,7,o),
(234,147,o),
(234,335,cs),
(234,509,o),
(164,648,o),
(88,754,c),
(22,754,l),
(88,642,o),
(139,499,o),
(139,335,cs),
(139,158,o),
(97,20,o),
(22,-118,c)
);
}
);
width = 304;
}
);
note = parenright;
unicode = 41;
},
{
glyphname = asterisk;
kernLeft = asterisk;
kernRight = asterisk;
layers = (
{
hints = (
{
horizontal = 1;
place = (715, -20);
target = down;
type = TopGhost;
},
{
place = (157, 54);
place = (157, 54);
type = Stem;
}
);
layerId = m01;
shapes = (
{
closed = 1;
nodes = (
(122,441,l),
(184,533,l),
(246,441,l),
(289,471,l),
(229,558,l),
(324,591,l),
(306,637,l),
(211,606,l),
(211,715,l),
(157,715,l),
(157,606,l),
(62,637,l),
(44,591,l),
(139,558,l),
(79,471,l)
);
}
);
width = 368;
}
);
note = asterisk;
unicode = 42;
},
{
glyphname = plus;
kernLeft = minus;
kernRight = minus;
layers = (
{
hints = (
{
horizontal = 1;
place = (294, 64);
place = (294, 64);
type = Stem;
},
{
place = (247, 66);
place = (247, 66);
type = Stem;
}
);
layerId = m01;
shapes = (
{
closed = 1;
nodes = (
(53,294,l),
(247,294,l),
(247,94,l),
(313,94,l),
(313,294,l),
(507,294,l),
(507,358,l),
(313,358,l),
(313,558,l),
(247,558,l),
(247,358,l),
(53,358,l)
);
}
);
width = 560;
}
);
note = plus;
unicode = 43;
},
{
glyphname = comma;
kernLeft = comma;
kernRight = comma;
layers = (
{
hints = (
{
horizontal = 1;
place = (0, 99);
place = (0, 99);
type = Stem;
},
{
place = (44, 97);
place = (44, 97);
type = Stem;
}
);
layerId = m01;
shapes = (
{
closed = 1;
nodes = (
(45,-128,l),
(102,-117,o),
(141,-76,o),
(141,-3,cs),
(141,99,l),
(44,99,l),
(44,0,l),
(90,0,l),
(90,-56,o),
(67,-75,o),
(45,-83,c)
);
}
);
width = 185;
}
);
note = comma;
unicode = 44;
},
{
glyphname = hyphen;
kernLeft = hyphen;
kernRight = hyphen;
layers = (
{
hints = (
{
horizontal = 1;
place = (239, 74);
place = (239, 74);
type = Stem;
},
{
place = (38, 268);
place = (38, 268);
type = Stem;
}
);
layerId = m01;
shapes = (
{
closed = 1;
nodes = (
(38,239,l),
(306,239,l),
(306,313,l),
(38,313,l)
);
}
);
width = 344;
}
);
note = hyphen;
unicode = 45;
},
{
glyphname = period;
kernLeft = comma;
kernRight = comma;
layers = (
{
hints = (
{
horizontal = 1;
place = (0, 99);
place = (0, 99);
type = Stem;
},
{
place = (44, 97);
place = (44, 97);
type = Stem;
}
);
layerId = m01;
shapes = (
{
closed = 1;
nodes = (
(44,0,l),
(141,0,l),
(141,99,l),
(44,99,l)
);
}
);
width = 185;
}
);
note = period;
unicode = 46;
},
{
glyphname = slash;
kernLeft = slash;
kernRight = slash;
layers = (
{
hints = (
{
horizontal = 1;
place = (0, 21);
target = up;
type = BottomGhost;
},
{
horizontal = 1;
place = (715, -20);
target = down;
type = TopGhost;
},
{
place = (16, 368);
place = (16, 368);
type = Stem;
}
);
layerId = m01;
shapes = (
{
closed = 1;
nodes = (
(16,0,l),
(100,0,l),
(384,715,l),
(300,715,l)
);
}
);
width = 400;
}
);
note = slash;
unicode = 47;
},
{
glyphname = zero;
kernLeft = zero;
kernRight = zero;
layers = (
{
hints = (
{
horizontal = 1;
place = (-15, 73);
place = (-15, 73);
type = Stem;
},
{
horizontal = 1;
place = (629, 72);
place = (629, 72);
type = Stem;
},
{
place = (44, 87);
place = (44, 87);
type = Stem;
},
{
place = (489, 87);
place = (489, 87);
type = Stem;
}
);
layerId = m01;
shapes = (
{
closed = 1;
nodes = (
(481,-15,o),
(576,125,o),
(576,343,cs),
(576,567,o),
(473,701,o),
(311,701,cs),
(149,701,o),
(44,565,o),
(44,343,cs),
(44,125,o),
(141,-15,o),
(310,-15,cs)
);
},
{
closed = 1;
nodes = (
(190,58,o),
(131,169,o),
(131,343,cs),
(131,520,o),
(190,629,o),
(311,629,cs),
(430,629,o),
(489,517,o),
(489,343,cs),
(489,166,o),
(433,58,o),
(311,58,cs)
);
}
);
width = 620;
}
);
note = zero;
unicode = 48;
},
{
glyphname = one;
kernLeft = one;
layers = (
{
hints = (
{
horizontal = 1;
place = (0, 21);
target = up;
type = BottomGhost;
},
{
horizontal = 1;
place = (499, 56);
place = (499, 56);
type = Stem;
},
{
horizontal = 1;
place = (689, -20);
target = down;
type = TopGhost;
},
{
place = (184, 84);
place = (184, 84);
type = Stem;
}
);
layerId = m01;
shapes = (
{
closed = 1;
nodes = (
(184,0,l),
(268,0,l),
(268,689,l),
(203,689,l),
(190,588,o),
(118,557,o),
(34,555,c),
(34,499,l),
(184,499,l)
);
}
);
width = 346;
}
);
note = one;
unicode = 49;
},
{
glyphname = two;
kernLeft = two;
kernRight = two;
layers = (
{
hints = (
{
horizontal = 1;
place = (0, 80);
place = (0, 80);
type = Stem;
},
{
horizontal = 1;
place = (630, 70);
place = (630, 70);
type = Stem;
},
{
place = (48, 88);
place = (48, 88);
type = Stem;
},
{
place = (433, 87);
place = (433, 87);
type = Stem;
}
);
layerId = m01;
shapes = (
{
closed = 1;
nodes = (
(506,0,l),
(506,80,l),
(132,80,l),
(151,156,o),
(246,212,o),
(320,253,cs),
(430,314,o),
(520,358,o),
(520,490,cs),
(520,612,o),
(430,700,o),
(291,700,cs),
(221,700,o),
(157,679,o),
(113,636,cs),
(71,594,o),
(48,538,o),
(48,450,c),
(136,450,l),
(136,520,o),
(148,558,o),
(175,587,cs),
(200,614,o),
(236,630,o),
(284,630,cs),
(375,630,o),
(433,573,o),
(433,489,cs),
(433,406,o),
(378,371,o),
(288,319,cs),
(168,250,o),
(39,183,o),
(31,0,c)
);
}
);
width = 556;
}
);
note = two;
unicode = 50;
},
{
glyphname = three;
kernLeft = three;
kernRight = three;
layers = (
{
hints = (
{
horizontal = 1;
place = (-15, 70);
place = (-15, 70);
type = Stem;
},
{
horizontal = 1;
place = (332, 65);
place = (332, 65);
type = Stem;
},
{
horizontal = 1;
place = (635, 66);
place = (635, 66);
type = Stem;
},
{
place = (41, 82);
place = (41, 82);
type = Stem;
},
{
place = (450, 87);
place = (450, 87);
type = Stem;
},
{
place = (430, 82);
place = (430, 82);
type = Stem;
}
);
layerId = m01;
shapes = (
{
closed = 1;
nodes = (
(430,-15,o),
(537,60,o),
(537,191,cs),
(537,280,o),
(495,341,o),
(399,366,c),
(399,369,l),
(465,391,o),
(512,436,o),
(512,513,cs),
(512,632,o),
(411,701,o),
(284,701,cs),
(133,701,o),
(42,611,o),
(41,476,c),
(123,476,l),
(123,571,o),
(182,635,o),
(281,635,cs),
(363,635,o),
(430,590,o),
(430,515,cs),
(430,442,o),
(376,397,o),
(269,397,cs),
(227,397,l),
(227,332,l),
(270,332,ls),
(385,332,o),
(450,286,o),
(450,199,cs),
(450,102,o),
(383,55,o),
(288,55,cs),
(175,55,o),
(104,116,o),
(101,226,c),
(18,226,l),
(21,70,o),
(140,-15,o),
(291,-15,cs)
);
}
);
width = 569;
}
);
note = three;
unicode = 51;
},
{
glyphname = four;
kernLeft = four;
kernRight = four;
layers = (
{
hints = (
{
horizontal = 1;
place = (0, 21);
target = up;
type = BottomGhost;
},
{
horizontal = 1;
place = (168, 67);
place = (168, 67);
type = Stem;
},
{
horizontal = 1;
place = (692, -20);
target = down;
type = TopGhost;
},
{
place = (26, 81);
place = (26, 81);
type = Stem;
},
{
place = (349, 82);
place = (349, 82);
type = Stem;
}
);
layerId = m01;
shapes = (
{
closed = 1;
nodes = (
(349,0,l),
(431,0,l),
(431,168,l),
(544,168,l),
(544,235,l),
(431,235,l),
(431,692,l),
(365,692,l),
(26,243,l),
(26,168,l),
(349,168,l)
);
},
{
closed = 1;
nodes = (
(107,238,l),
(347,556,l),
(349,556,l),
(349,235,l),
(107,235,l)
);
}
);
width = 566;
}
);
note = four;
unicode = 52;
},
{
glyphname = five;
kernLeft = five;
kernRight = five;
layers = (
{
hints = (
{
horizontal = 1;
place = (-15, 74);
place = (-15, 74);
type = Stem;
},
{
horizontal = 1;
place = (388, 74);
place = (388, 74);
type = Stem;
},
{
horizontal = 1;
place = (610, 75);
place = (610, 75);
type = Stem;
},
{
place = (435, 86);
place = (435, 86);
type = Stem;
},
{
horizontal = 1;
place = (317, 87);
place = (317, 87);
type = Stem;
}
);
layerId = m01;
shapes = (
{
closed = 1;
nodes = (
(417,-15,o),
(521,77,o),
(521,223,cs),
(521,375,o),
(410,462,o),
(288,462,cs),
(222,462,o),
(170,441,o),
(131,404,c),
(129,404,l),
(174,610,l),
(480,610,l),
(480,685,l),
(115,685,l),
(39,317,l),
(120,317,l),
(149,358,o),
(200,388,o),
(274,388,cs),
(364,388,o),
(435,328,o),
(435,225,cs),
(435,125,o),
(372,59,o),
(274,59,cs),
(177,59,o),
(117,113,o),
(106,198,c),
(23,198,l),
(29,71,o),
(133,-15,o),
(275,-15,cs)
);
}
);
width = 553;
}
);
note = five;
unicode = 53;
},
{
glyphname = six;
kernLeft = six;
kernRight = six;
layers = (
{
hints = (
{
horizontal = 1;
place = (-15, 68);
place = (-15, 68);
type = Stem;
},
{
horizontal = 1;
place = (380, 69);
place = (380, 69);
type = Stem;
},
{
horizontal = 1;
place = (630, 71);
place = (630, 71);
type = Stem;
},
{
place = (44, 82);
place = (44, 82);
type = Stem;
},
{
place = (464, 78);
place = (464, 78);
type = Stem;
}
);
layerId = m01;
shapes = (
{
closed = 1;
nodes = (
(440,-15,o),
(543,91,o),
(542,219,cs),
(541,345,o),
(442,449,o),
(316,449,cs),
(234,449,o),
(172,415,o),
(128,354,c),
(126,354,l),
(129,522,o),
(177,630,o),
(311,630,cs),
(390,630,o),
(436,576,o),
(442,511,c),
(525,511,l),
(514,610,o),
(446,701,o),
(309,701,cs),
(135,701,o),
(44,560,o),
(44,347,cs),
(44,206,o),
(68,112,o),
(141,46,cs),
(182,8,o),
(237,-15,o),
(312,-15,cs)
);
},
{
closed = 1;
nodes = (
(214,53,o),
(141,120,o),
(141,217,cs),
(141,315,o),
(209,380,o),
(307,380,cs),
(396,380,o),
(464,313,o),
(464,216,cs),
(464,119,o),
(399,53,o),
(310,53,cs)
);
}
);
width = 581;
}
);
note = six;
unicode = 54;
},
{
glyphname = seven;
kernLeft = seven;
kernRight = seven;
layers = (
{
hints = (
{
horizontal = 1;
place = (0, 21);
target = up;
type = BottomGhost;
},
{
horizontal = 1;
place = (610, 75);
place = (610, 75);
type = Stem;
},
{
place = (120, 90);
place = (120, 90);
type = Stem;
}
);
layerId = m01;
shapes = (
{
closed = 1;
nodes = (
(210,0,l),
(224,272,o),
(362,493,o),
(502,616,c),
(502,685,l),
(23,685,l),
(23,610,l),
(414,610,l),
(414,608,l),
(260,484,o),
(135,239,o),
(120,0,c)
);
}
);
width = 513;
}
);
note = seven;
unicode = 55;
},
{
glyphname = eight;
kernLeft = eight;
kernRight = eight;
layers = (
{
hints = (
{
horizontal = 1;
place = (-15, 70);
place = (-15, 70);
type = Stem;
},
{
horizontal = 1;
place = (342, 66);
place = (342, 66);
type = Stem;
},
{
horizontal = 1;
place = (632, 70);
place = (632, 70);
type = Stem;
},
{
place = (33, 86);
place = (33, 86);
type = Stem;
},
{
place = (467, 84);
place = (467, 84);
type = Stem;
},
{
place = (67, 82);
place = (67, 82);
type = Stem;
},
{
place = (435, 82);
place = (435, 82);
type = Stem;
}
);
layerId = m01;
shapes = (
{
closed = 1;
nodes = (
(421,-15,o),
(551,40,o),
(551,196,cs),
(551,289,o),
(489,351,o),
(412,374,c),
(412,377,l),
(476,402,o),
(517,452,o),
(517,523,cs),
(517,633,o),
(418,702,o),
(292,702,cs),
(166,702,o),
(67,632,o),
(67,523,cs),
(67,452,o),
(110,401,o),
(174,377,c),
(174,374,l),
(97,349,o),
(33,295,o),
(33,196,cs),
(33,41,o),
(169,-15,o),
(295,-15,cs)
);
},
{
closed = 1;
nodes = (
(185,55,o),
(119,107,o),
(119,196,cs),
(119,286,o),
(184,342,o),
(292,342,cs),
(402,342,o),
(467,286,o),
(467,196,cs),
(467,108,o),
(402,55,o),
(295,55,cs)
);
},
{
closed = 1;
nodes = (
(204,408,o),
(149,450,o),
(149,520,cs),
(149,590,o),
(204,632,o),
(292,632,cs),
(380,632,o),
(435,590,o),
(435,520,cs),
(435,450,o),
(380,408,o),
(292,408,cs)
);
}
);
width = 584;
}
);
note = eight;
unicode = 56;
},
{
glyphname = nine;
kernLeft = nine;
kernRight = nine;
layers = (
{
hints = (
{
horizontal = 1;
place = (-15, 71);
place = (-15, 71);
type = Stem;
},
{
horizontal = 1;
place = (237, 69);
place = (237, 69);
type = Stem;
},
{
horizontal = 1;
place = (633, 68);
place = (633, 68);
type = Stem;
},
{
place = (40, 78);
place = (40, 78);
type = Stem;
},
{
place = (459, 82);
place = (459, 82);
type = Stem;
}
);
layerId = m01;
shapes = (
{
closed = 1;
nodes = (
(349,-15,o),
(404,4,o),
(445,40,cs),
(513,100,o),
(541,200,o),
(541,339,cs),
(541,492,o),
(516,590,o),
(438,650,cs),
(399,680,o),
(347,701,o),
(280,701,cs),
(141,701,o),
(39,595,o),
(40,467,cs),
(41,341,o),
(142,237,o),
(268,237,cs),
(350,237,o),
(413,269,o),
(457,324,c),
(459,324,l),
(455,222,o),
(439,145,o),
(398,101,cs),
(371,71,o),
(334,56,o),
(282,56,cs),
(190,56,o),
(138,111,o),
(132,186,c),
(47,186,l),
(53,65,o),
(149,-15,o),
(284,-15,cs)
);
},
{
closed = 1;
nodes = (
(190,306,o),
(118,373,o),
(118,470,cs),
(118,567,o),
(185,633,o),
(280,633,cs),
(372,633,o),
(447,567,o),
(447,470,cs),
(447,373,o),
(382,306,o),
(279,306,cs)
);
}
);
width = 581;
}
);
note = nine;
unicode = 57;
},
{
glyphname = colon;
kernLeft = colon;
kernRight = colon;
layers = (
{
hints = (
{
horizontal = 1;
place = (0, 99);
place = (0, 99);
type = Stem;
},
{
horizontal = 1;
place = (303, 99);
place = (303, 99);
type = Stem;
},
{
place = (47, 97);
place = (47, 97);
type = Stem;
}
);
layerId = m01;
shapes = (
{
closed = 1;
nodes = (
(47,303,l),
(144,303,l),
(144,402,l),
(47,402,l)
);
},
{
closed = 1;
nodes = (
(47,0,l),
(144,0,l),
(144,99,l),
(47,99,l)
);
}
);
width = 191;
}
);
note = colon;
unicode = 58;
},
{
glyphname = semicolon;
kernLeft = colon;
kernRight = colon;
layers = (
{
hints = (
{
horizontal = 1;
place = (0, 99);
place = (0, 99);
type = Stem;
},
{
horizontal = 1;
place = (303, 99);
place = (303, 99);
type = Stem;
},
{
place = (47, 97);
place = (47, 97);
type = Stem;
}
);
layerId = m01;
shapes = (
{
closed = 1;
nodes = (
(48,-128,l),
(105,-117,o),
(144,-76,o),
(144,-3,cs),
(144,99,l),
(47,99,l),
(47,0,l),
(93,0,l),
(93,-56,o),
(70,-75,o),
(48,-83,c)
);
},
{
closed = 1;
nodes = (
(47,303,l),
(144,303,l),
(144,402,l),
(47,402,l)
);
}
);
width = 191;
}
);
note = semicolon;
unicode = 59;
},
{
glyphname = less;
layers = (
{
hints = (
{
horizontal = 1;
place = (526, -20);
target = down;
type = TopGhost;
},
{
place = (50, 64);
place = (50, 64);
type = Stem;
}
);
layerId = m01;
shapes = (
{
closed = 1;
nodes = (
(457,97,l),
(457,171,l),
(114,312,l),
(114,314,l),
(457,453,l),
(457,526,l),
(50,353,l),
(50,270,l)
);
}
);
width = 511;
}
);
note = less;
unicode = 60;
},
{
glyphname = equal;
layers = (
{
hints = (
{
horizontal = 1;
place = (194, 64);
place = (194, 64);
type = Stem;
},
{
horizontal = 1;
place = (369, 64);
place = (369, 64);
type = Stem;
},
{
place = (53, 454);
place = (53, 454);
type = Stem;
}
);
layerId = m01;
shapes = (
{
closed = 1;
nodes = (
(53,369,l),
(507,369,l),
(507,433,l),
(53,433,l)
);
},
{
closed = 1;
nodes = (
(53,194,l),
(507,194,l),
(507,258,l),
(53,258,l)
);
}
);
width = 560;
}
);
note = equal;
unicode = 61;
},
{
glyphname = greater;
layers = (
{
hints = (
{
horizontal = 1;
place = (526, -20);
target = down;
type = TopGhost;
},
{
place = (397, 64);
place = (397, 64);
type = Stem;
}
);
layerId = m01;
shapes = (
{
closed = 1;
nodes = (
(54,97,l),
(461,270,l),
(461,353,l),
(54,526,l),
(54,452,l),
(397,311,l),
(397,309,l),
(54,170,l)
);
}
);
width = 511;
}
);
note = greater;
unicode = 62;
},
{
glyphname = question;
kernLeft = question;
layers = (
{
hints = (
{
horizontal = 1;
place = (0, 99);
place = (0, 99);
type = Stem;
},
{
horizontal = 1;
place = (656, 72);
place = (656, 72);
type = Stem;
},
{
place = (17, 82);
place = (17, 82);
type = Stem;
},
{
place = (200, 76);
place = (200, 76);
type = Stem;
},
{
place = (388, 86);
place = (388, 86);
type = Stem;
},
{
place = (189, 97);
place = (189, 97);
type = Stem;
}
);
layerId = m01;
shapes = (
{
closed = 1;
nodes = (
(276,173,l),
(277,275,o),
(299,300,o),
(382,369,cs),
(429,408,o),
(474,455,o),
(474,537,cs),
(474,642,o),
(397,728,o),
(256,728,cs),
(89,728,o),
(20,621,o),
(17,485,c),
(99,485,l),
(102,587,o),
(150,656,o),
(253,656,cs),
(341,656,o),
(388,600,o),
(388,536,cs),
(388,471,o),
(349,440,o),
(305,401,cs),
(229,334,o),
(201,283,o),
(200,173,c)
);
},
{
closed = 1;
nodes = (
(189,0,l),
(286,0,l),
(286,99,l),
(189,99,l)
);
}
);
width = 504;
}
);
note = question;
unicode = 63;
},
{
glyphname = at;
kernLeft = at;
kernRight = at;
layers = (
{
hints = (
{
horizontal = 1;
place = (-105, 61);
place = (-105, 61);
type = Stem;
},
{
horizontal = 1;
place = (79, 62);
place = (79, 62);
type = Stem;
},
{
horizontal = 1;
place = (458, 63);
place = (458, 63);
type = Stem;
},
{
horizontal = 1;
place = (650, 63);
place = (650, 63);
type = Stem;
},
{
place = (33, 71);
place = (33, 71);
type = Stem;
},
{
place = (233, 81);
place = (233, 81);
type = Stem;
},
{
place = (778, 69);
place = (778, 69);
type = Stem;
},
{
horizontal = 1;
place = (86, 64);
place = (86, 64);
type = Stem;
},
{
place = (548, 67);
place = (548, 67);
type = Stem;
}
);
layerId = m01;
shapes = (
{
closed = 1;
nodes = (
(464,79,o),
(517,111,o),
(548,158,c),
(550,158,l),
(565,116,o),
(603,86,o),
(665,86,cs),
(787,86,o),
(847,198,o),
(847,351,cs),
(847,589,o),
(655,713,o),
(459,713,cs),
(245,713,o),
(33,559,o),
(33,285,cs),
(33,50,o),
(201,-105,o),
(443,-105,cs),
(516,-105,o),
(586,-91,o),
(647,-64,c),
(624,-9,l),
(567,-31,o),
(507,-44,o),
(438,-44,cs),
(223,-44,o),
(104,95,o),
(104,284,cs),
(104,514,o),
(269,650,o),
(456,650,cs),
(636,650,o),
(778,552,o),
(778,347,cs),
(778,208,o),
(723,150,o),
(670,150,cs),
(625,150,o),
(608,178,o),
(615,233,cs),
(649,511,l),
(571,511,l),
(563,450,l),
(561,450,l),
(540,490,o),
(499,521,o),
(438,521,cs),
(322,521,o),
(233,423,o),
(233,269,cs),
(233,157,o),
(298,79,o),
(404,79,cs)
);
},
{
closed = 1;
nodes = (
(343,141,o),
(314,198,o),
(314,270,cs),
(314,373,o),
(352,458,o),
(440,458,cs),
(514,458,o),
(548,408,o),
(548,332,cs),
(548,225,o),
(505,141,o),
(412,141,cs)
);
}
);
width = 880;
}
);
note = at;
unicode = 64;
},
{
glyphname = A;
kernLeft = A;
kernRight = A;
layers = (
{
hints = (
{
horizontal = 1;
place = (0, 21);
target = up;
type = BottomGhost;
},
{
horizontal = 1;
place = (218, 73);
place = (218, 73);
type = Stem;
},
{
horizontal = 1;
place = (715, -20);
target = down;
type = TopGhost;
},
{
place = (10, 628);
place = (10, 628);
type = Stem;
},
{
horizontal = 1;
place = (632, 83);
place = (632, 83);
type = Stem;
}
);
layerId = m01;
shapes = (
{
closed = 1;
nodes = (
(10,0,l),
(102,0,l),
(179,218,l),
(464,218,l),
(540,0,l),
(638,0,l),
(374,715,l),
(273,715,l)
);
},
{
closed = 1;
nodes = (
(290,531,ls),
(304,572,o),
(323,632,o),
(323,632,c),
(325,632,l),
(325,632,o),
(343,571,o),
(357,531,cs),
(439,291,l),
(205,291,l)
);
}
);
width = 648;
}
);
note = A;
unicode = 65;
},
{
glyphname = B;
layers = (
{
hints = (
{
horizontal = 1;
place = (0, 81);
place = (0, 81);
type = Stem;
},
{
horizontal = 1;
place = (333, 76);
place = (333, 76);
type = Stem;
},
{
horizontal = 1;
place = (637, 78);
place = (637, 78);
type = Stem;
},
{
place = (67, 90);
place = (67, 90);
type = Stem;
},
{
place = (498, 90);
place = (498, 90);
type = Stem;
},
{
place = (526, 91);
place = (526, 91);
type = Stem;
}
);
layerId = m01;
shapes = (
{
closed = 1;
nodes = (
(67,0,l),
(386,0,ls),
(463,0,o),
(525,25,o),
(565,68,cs),
(598,103,o),
(617,150,o),
(617,205,cs),
(617,301,o),
(554,359,o),
(473,378,c),
(473,381,l),
(544,403,o),
(588,452,o),
(588,531,cs),
(588,582,o),
(571,623,o),
(542,653,cs),
(502,695,o),
(445,715,o),
(370,715,cs),
(67,715,l)
);
},
{
closed = 1;
nodes = (
(157,81,l),
(157,333,l),
(376,333,ls),
(463,333,o),
(526,289,o),
(526,200,cs),
(526,166,o),
(514,138,o),
(494,117,cs),
(470,94,o),
(433,81,o),
(382,81,cs)
);
},
{
closed = 1;
nodes = (
(157,409,l),
(157,637,l),
(371,637,ls),
(451,637,o),
(498,595,o),
(498,526,cs),
(498,452,o),
(446,409,o),
(359,409,cs)
);
}
);
width = 644;
}
);
note = B;
unicode = 66;
},
{
glyphname = C;
kernLeft = C;
kernRight = C;
layers = (
{
hints = (
{
horizontal = 1;
place = (-14, 79);
place = (-14, 79);
type = Stem;
},
{
horizontal = 1;
place = (653, 78);
place = (653, 78);
type = Stem;
},
{
place = (40, 92);
place = (40, 92);
type = Stem;
}
);
layerId = m01;
shapes = (
{
closed = 1;
nodes = (
(466,-14,o),
(539,12,o),
(589,61,cs),
(640,111,o),
(674,191,o),
(675,262,c),
(586,262,l),
(577,157,o),
(513,65,o),
(378,65,cs),
(229,65,o),
(132,183,o),
(132,358,cs),
(132,526,o),
(220,653,o),
(377,653,cs),
(490,653,o),
(561,592,o),
(578,503,c),
(666,503,l),
(647,635,o),
(546,731,o),
(379,731,cs),
(166,731,o),
(40,568,o),
(40,358,cs),
(40,141,o),
(172,-14,o),
(375,-14,cs)
);
}
);
width = 709;
}
);
note = C;
unicode = 67;
},
{
glyphname = D;
kernRight = Eth;
layers = (
{
hints = (
{
horizontal = 1;
place = (0, 79);
place = (0, 79);
type = Stem;
},
{
horizontal = 1;
place = (637, 78);
place = (637, 78);
type = Stem;
},
{
place = (67, 90);
place = (67, 90);
type = Stem;
},
{
place = (552, 92);
place = (552, 92);
type = Stem;
}
);
layerId = m01;
shapes = (
{
closed = 1;
nodes = (
(67,0,l),
(320,0,ls),
(535,0,o),
(644,141,o),
(644,355,cs),
(644,569,o),
(542,715,o),
(327,715,cs),
(67,715,l)
);
},
{
closed = 1;
nodes = (
(157,79,l),
(157,637,l),
(324,637,ls),
(492,637,o),
(552,523,o),
(552,355,cs),
(552,187,o),
(485,79,o),
(317,79,cs)
);
}
);
width = 684;
}
);
note = D;
unicode = 68;
},
{
glyphname = E;
kernRight = E;
layers = (
{
hints = (
{
horizontal = 1;
place = (0, 83);
place = (0, 83);
type = Stem;
},
{
horizontal = 1;
place = (334, 76);
place = (334, 76);
type = Stem;
},
{
horizontal = 1;
place = (636, 79);
place = (636, 79);
type = Stem;
},
{
place = (67, 90);
place = (67, 90);
type = Stem;
}
);
layerId = m01;
shapes = (
{
closed = 1;
nodes = (
(67,0,l),
(584,0,l),
(584,83,l),
(157,83,l),
(157,334,l),
(534,334,l),
(534,410,l),
(157,410,l),
(157,636,l),
(572,636,l),
(572,715,l),
(67,715,l)
);
}
);
width = 622;
}
);
note = E;
unicode = 69;
},
{
glyphname = F;
kernRight = F;
layers = (
{
hints = (
{
horizontal = 1;
place = (0, 21);
target = up;
type = BottomGhost;
},
{
horizontal = 1;
place = (337, 76);
place = (337, 76);
type = Stem;
},
{
horizontal = 1;
place = (636, 79);
place = (636, 79);
type = Stem;
},
{
place = (67, 90);
place = (67, 90);
type = Stem;
}
);
layerId = m01;
shapes = (
{
closed = 1;
nodes = (
(67,0,l),
(157,0,l),
(157,337,l),
(486,337,l),
(486,413,l),
(157,413,l),
(157,636,l),
(552,636,l),
(552,715,l),
(67,715,l)
);
}
);
width = 578;
}
);
note = F;
unicode = 70;
},
{
glyphname = G;
kernLeft = C;
kernRight = G;
layers = (
{
hints = (
{
horizontal = 1;
place = (0, 21);
target = up;
type = BottomGhost;
},
{
horizontal = 1;
place = (300, 78);
place = (300, 78);
type = Stem;
},
{
horizontal = 1;
place = (652, 78);
place = (652, 78);
type = Stem;
},
{
place = (40, 92);
place = (40, 92);
type = Stem;
},
{
place = (595, 90);
place = (595, 90);
type = Stem;
},
{
horizontal = 1;
place = (-15, 78);
place = (-15, 78);
type = Stem;
}
);
layerId = m01;
shapes = (
{
closed = 1;
nodes = (
(627,0,l),
(685,0,l),
(685,378,l),
(380,378,l),
(380,300,l),
(595,300,l),
(595,283,ls),
(595,163,o),
(526,63,o),
(379,63,cs),
(234,63,o),
(132,180,o),
(132,355,cs),
(132,523,o),
(210,652,o),
(382,652,cs),
(495,652,o),
(562,595,o),
(582,500,c),
(675,500,l),
(652,640,o),
(550,730,o),
(384,730,cs),
(159,730,o),
(40,565,o),
(40,355,cs),
(40,138,o),
(175,-15,o),
(376,-15,cs),
(470,-15,o),
(547,21,o),
(599,94,c),
(601,94,l)
);
}
);
width = 742;
}
);
note = G;
unicode = 71;
},
{
glyphname = H;
layers = (
{
hints = (
{
horizontal = 1;
place = (0, 21);
target = up;
type = BottomGhost;
},
{
horizontal = 1;
place = (338, 73);
place = (338, 73);
type = Stem;
},
{
horizontal = 1;
place = (715, -20);
target = down;
type = TopGhost;
},
{
place = (67, 90);
place = (67, 90);
type = Stem;
},
{
place = (539, 90);
place = (539, 90);
type = Stem;
}
);
layerId = m01;
shapes = (
{
closed = 1;
nodes = (
(67,0,l),
(157,0,l),
(157,338,l),
(539,338,l),
(539,0,l),
(629,0,l),
(629,715,l),
(539,715,l),
(539,411,l),
(157,411,l),
(157,715,l),
(67,715,l)
);
}
);
width = 696;
}
);
note = H;
unicode = 72;
},
{
glyphname = I;
layers = (
{
hints = (
{
horizontal = 1;
place = (0, 21);
target = up;
type = BottomGhost;
},
{
horizontal = 1;
place = (715, -20);
target = down;
type = TopGhost;
},
{
place = (69, 90);
place = (69, 90);
type = Stem;
}
);
layerId = m01;
shapes = (
{
closed = 1;
nodes = (
(69,0,l),
(159,0,l),
(159,715,l),
(69,715,l)
);
}
);
width = 228;
}
);
note = I;
unicode = 73;
},
{
glyphname = J;
kernLeft = J;
kernRight = J;
layers = (
{
hints = (
{
horizontal = 1;
place = (-14, 74);
place = (-14, 74);
type = Stem;
},
{
horizontal = 1;
place = (715, -20);
target = down;
type = TopGhost;
},
{
place = (22, 89);
place = (22, 89);
type = Stem;
},
{
place = (349, 90);
place = (349, 90);
type = Stem;
}
);
layerId = m01;
shapes = (
{
closed = 1;
nodes = (
(370,-14,o),
(439,67,o),
(439,181,cs),
(439,715,l),
(349,715,l),
(349,187,ls),
(349,97,o),
(307,60,o),
(235,60,cs),
(151,60,o),
(111,98,o),
(111,225,cs),
(111,232,l),
(22,232,l),
(22,222,ls),
(22,56,o),
(103,-14,o),
(232,-14,cs)
);
}
);
width = 497;
}
);
note = J;
unicode = 74;
},
{
glyphname = K;
kernRight = K;
layers = (
{
hints = (
{
horizontal = 1;
place = (0, 21);
target = up;
type = BottomGhost;
},
{
horizontal = 1;
place = (715, -20);
target = down;
type = TopGhost;
},
{
place = (67, 90);
place = (67, 90);
type = Stem;
}
);
layerId = m01;
shapes = (
{
closed = 1;
nodes = (
(67,0,l),
(157,0,l),
(157,253,l),
(272,368,l),
(541,0,l),
(646,0,l),
(333,429,l),
(622,715,l),
(509,715,l),
(157,360,l),
(157,715,l),
(67,715,l)
);
}
);
width = 644;
}
);
note = K;
unicode = 75;
},
{
glyphname = L;
kernRight = L;
layers = (
{
hints = (
{
horizontal = 1;
place = (0, 83);
place = (0, 83);
type = Stem;
},
{
horizontal = 1;
place = (715, -20);
target = down;
type = TopGhost;
},
{
place = (67, 90);
place = (67, 90);
type = Stem;
}
);
layerId = m01;
shapes = (
{
closed = 1;
nodes = (
(67,0,l),
(532,0,l),
(532,83,l),
(157,83,l),
(157,715,l),
(67,715,l)
);
}
);
width = 554;
}
);
note = L;
unicode = 76;
},
{
glyphname = M;
layers = (
{
hints = (
{
horizontal = 1;
place = (0, 21);
target = up;
type = BottomGhost;
},
{
horizontal = 1;
place = (588, 127);
place = (588, 127);
type = Stem;
},
{
place = (67, 81);
place = (67, 81);
type = Stem;
},
{
place = (677, 86);
place = (677, 86);
type = Stem;
}
);
layerId = m01;
shapes = (
{
closed = 1;
nodes = (
(67,0,l),
(148,0,l),
(148,588,l),
(150,588,l),
(150,588,o),
(168,534,o),
(182,498,cs),
(378,0,l),
(447,0,l),
(643,498,ls),
(656,532,o),
(675,588,o),
(675,588,c),
(677,588,l),
(677,0,l),
(763,0,l),
(763,715,l),
(646,715,l),
(416,121,l),
(414,121,l),
(182,715,l),
(67,715,l)
);
}
);
width = 830;
}
);
note = M;
unicode = 77;
},
{
glyphname = N;
layers = (
{
hints = (
{
horizontal = 1;
place = (0, 21);
target = up;
type = BottomGhost;
},
{
horizontal = 1;
place = (715, -20);
target = down;
type = TopGhost;
},
{
place = (67, 84);
place = (67, 84);
type = Stem;
},
{
place = (542, 84);
place = (542, 84);
type = Stem;
},
{
horizontal = 1;
place = (587, 128);
place = (587, 128);
type = Stem;
},
{
horizontal = 1;
place = (0, 126);
place = (0, 126);
type = Stem;
}
);
layerId = m01;
shapes = (
{
closed = 1;
nodes = (
(67,0,l),
(151,0,l),
(151,587,l),
(153,587,l),
(153,587,o),
(183,533,o),
(206,498,cs),
(534,0,l),
(626,0,l),
(626,715,l),
(542,715,l),
(542,126,l),
(540,126,l),
(540,126,o),
(512,181,o),
(488,218,cs),
(162,715,l),
(67,715,l)
);
}
);
width = 693;
}
);
note = N;
unicode = 78;
},
{
glyphname = O;
kernLeft = C;
kernRight = O;
layers = (
{
hints = (
{
horizontal = 1;
place = (-15, 79);
place = (-15, 79);
type = Stem;
},
{
horizontal = 1;
place = (653, 78);
place = (653, 78);
type = Stem;
},
{
place = (40, 92);
place = (40, 92);
type = Stem;
},
{
place = (648, 92);
place = (648, 92);
type = Stem;
}
);
layerId = m01;
shapes = (
{
closed = 1;
nodes = (
(606,-15,o),
(740,144,o),
(740,358,cs),
(740,572,o),
(606,731,o),
(390,731,cs),
(174,731,o),
(40,572,o),
(40,358,cs),
(40,144,o),
(174,-15,o),
(390,-15,cs)
);
},
{
closed = 1;
nodes = (
(222,64,o),
(132,190,o),
(132,358,cs),
(132,526,o),
(222,653,o),
(390,653,cs),
(558,653,o),
(648,526,o),
(648,358,cs),
(648,190,o),
(558,64,o),
(390,64,cs)
);
}
);
width = 780;
}
);
note = O;
unicode = 79;
},
{
glyphname = P;
kernRight = P;
layers = (
{
hints = (
{
horizontal = 1;
place = (0, 21);
target = up;
type = BottomGhost;
},
{
horizontal = 1;
place = (300, 73);
place = (300, 73);
type = Stem;
},
{
horizontal = 1;
place = (637, 78);
place = (637, 78);
type = Stem;
},
{
place = (67, 90);
place = (67, 90);
type = Stem;
},
{
place = (494, 89);
place = (494, 89);
type = Stem;
}
);
layerId = m01;
shapes = (
{
closed = 1;
nodes = (
(67,0,l),
(157,0,l),
(157,300,l),
(352,300,ls),
(508,300,o),
(583,379,o),
(583,510,cs),
(583,564,o),
(565,611,o),
(535,646,cs),
(498,690,o),
(440,715,o),
(365,715,cs),
(67,715,l)
);
},
{
closed = 1;
nodes = (
(157,637,l),
(350,637,ls),
(441,637,o),
(494,592,o),
(494,506,cs),
(494,424,o),
(446,373,o),
(345,373,cs),
(157,373,l)
);
}
);
width = 603;
}
);
note = P;
unicode = 80;
},
{
glyphname = Q;
kernLeft = C;
kernRight = Q;
layers = (
{
hints = (
{
horizontal = 1;
place = (-2, 21);
target = up;
type = BottomGhost;
},
{
horizontal = 1;
place = (653, 78);
place = (653, 78);
type = Stem;
},
{
place = (40, 92);
place = (40, 92);
type = Stem;
},
{
place = (648, 92);
place = (648, 92);
type = Stem;
},
{
horizontal = 1;
place = (-15, 79);
place = (-15, 79);
type = Stem;
}
);
layerId = m01;
shapes = (
{
closed = 1;
nodes = (
(678,-60,l),
(724,-2,l),
(629,74,l),
(700,141,o),
(740,241,o),
(740,358,cs),
(740,572,o),
(606,731,o),
(390,731,cs),
(174,731,o),
(40,572,o),
(40,358,cs),
(40,144,o),
(174,-15,o),
(390,-15,cs),
(457,-15,o),
(517,0,o),
(567,28,c)
);
},
{
closed = 1;
nodes = (
(222,64,o),
(132,190,o),
(132,358,cs),
(132,526,o),
(222,653,o),
(390,653,cs),
(558,653,o),
(648,526,o),
(648,358,cs),
(648,262,o),
(618,180,o),
(562,127,c),
(471,200,l),
(425,142,l),
(497,84,l),
(466,71,o),
(430,64,o),
(390,64,cs)
);
}
);
width = 780;
}
);
note = Q;
unicode = 81;
},
{
glyphname = R;
kernRight = R;
layers = (
{
hints = (
{
horizontal = 1;
place = (0, 21);
target = up;
type = BottomGhost;
},
{
horizontal = 1;
place = (302, 73);
place = (302, 73);
type = Stem;
},
{
horizontal = 1;
place = (637, 78);
place = (637, 78);
type = Stem;
},
{
place = (67, 90);
place = (67, 90);
type = Stem;
},
{
place = (519, 93);
place = (519, 93);
type = Stem;
}
);
layerId = m01;
shapes = (
{
closed = 1;
nodes = (
(67,0,l),
(157,0,l),
(157,302,l),
(356,302,ls),
(452,302,o),
(494,265,o),
(501,160,cs),
(509,40,o),
(512,13,o),
(527,0,c),
(624,0,l),
(624,4,l),
(611,13,o),
(599,42,o),
(591,157,cs),
(584,263,o),
(561,313,o),
(488,339,c),
(488,342,l),
(574,370,o),
(612,432,o),
(612,519,cs),
(612,636,o),
(527,715,o),
(401,715,cs),
(67,715,l)
);
},
{
closed = 1;
nodes = (
(157,637,l),
(374,637,ls),
(479,637,o),
(519,593,o),
(519,506,cs),
(519,425,o),
(469,375,o),
(369,375,cs),
(157,375,l)
);
}
);
width = 654;
}
);
note = R;
unicode = 82;
},
{
glyphname = S;
kernLeft = Scaron;
kernRight = Scaron;
layers = (
{
hints = (
{
horizontal = 1;
place = (-14, 72);
place = (-14, 72);
type = Stem;
},
{
horizontal = 1;
place = (659, 70);
place = (659, 70);
type = Stem;
},
{
place = (53, 84);
place = (53, 84);
type = Stem;
},
{
place = (501, 89);
place = (501, 89);
type = Stem;
}
);
layerId = m01;
shapes = (
{
closed = 1;
nodes = (
(481,-14,o),
(590,61,o),
(590,195,cs),
(590,356,o),
(463,390,o),
(324,418,cs),
(217,439,o),
(137,463,o),
(137,544,cs),
(137,618,o),
(201,659,o),
(298,659,cs),
(403,659,o),
(469,608,o),
(482,506,c),
(567,506,l),
(549,638,o),
(475,729,o),
(296,729,cs),
(151,729,o),
(53,658,o),
(53,540,cs),
(53,405,o),
(161,369,o),
(287,341,cs),
(415,313,o),
(501,290,o),
(501,192,cs),
(501,103,o),
(430,58,o),
(331,58,cs),
(196,58,o),
(122,121,o),
(110,242,c),
(22,242,l),
(30,98,o),
(126,-14,o),
(327,-14,cs)
);
}
);
width = 626;
}
);
note = S;
unicode = 83;
},
{
glyphname = T;
kernLeft = T;
kernRight = T;
layers = (
{
hints = (
{
horizontal = 1;
place = (0, 21);
target = up;
type = BottomGhost;
},
{
horizontal = 1;
place = (636, 79);
place = (636, 79);
type = Stem;
},
{
place = (260, 90);
place = (260, 90);
type = Stem;
}
);
layerId = m01;
shapes = (
{
closed = 1;
nodes = (
(22,636,l),
(260,636,l),
(260,0,l),
(350,0,l),
(350,636,l),
(588,636,l),
(588,715,l),
(22,715,l)
);
}
);
width = 610;
}
);
note = T;
unicode = 84;
},
{
glyphname = U;
kernLeft = U;
kernRight = U;
layers = (
{
hints = (
{
horizontal = 1;
place = (-11, 77);
place = (-11, 77);
type = Stem;
},
{
horizontal = 1;
place = (715, -20);
target = down;
type = TopGhost;
},
{
place = (55, 90);
place = (55, 90);
type = Stem;
},
{
place = (513, 90);
place = (513, 90);
type = Stem;
}
);
layerId = m01;
shapes = (
{
closed = 1;
nodes = (
(482,-11,o),
(603,58,o),
(603,231,cs),
(603,715,l),
(513,715,l),
(513,240,ls),
(513,118,o),
(445,66,o),
(332,66,cs),
(214,66,o),
(145,118,o),
(145,240,cs),
(145,715,l),
(55,715,l),
(55,231,ls),
(55,58,o),
(173,-11,o),
(329,-11,cs)
);
}
);
width = 658;
}
);
note = U;
unicode = 85;
},
{
glyphname = V;
kernLeft = V;
kernRight = V;
layers = (
{
hints = (
{
horizontal = 1;
place = (0, 21);
target = up;
type = BottomGhost;
},
{
horizontal = 1;
place = (715, -20);
target = down;
type = TopGhost;
},
{
place = (10, 599);
place = (10, 599);
type = Stem;
},
{
horizontal = 1;
place = (0, 87);
place = (0, 87);
type = Stem;
}
);
layerId = m01;
shapes = (
{
closed = 1;
nodes = (
(259,0,l),
(358,0,l),
(609,715,l),
(515,715,l),
(341,183,ls),
(330,151,o),
(313,87,o),
(313,87,c),
(311,87,l),
(311,87,o),
(294,150,o),
(283,183,cs),
(107,715,l),
(10,715,l)
);
}
);
width = 619;
}
);
note = V;
unicode = 86;
},
{
glyphname = W;
kernLeft = W;
kernRight = W;
layers = (
{
hints = (
{
horizontal = 1;
place = (0, 21);
target = up;
type = BottomGhost;
},
{
horizontal = 1;
place = (715, -20);
target = down;
type = TopGhost;
},
{
place = (14, 886);
place = (14, 886);
type = Stem;
},
{
horizontal = 1;
place = (613, 102);
place = (613, 102);
type = Stem;
},
{
horizontal = 1;
place = (0, 129);
place = (0, 129);
type = Stem;
}
);
layerId = m01;
shapes = (
{
closed = 1;
nodes = (
(199,0,l),
(289,0,l),
(429,504,ls),
(441,546,o),
(456,613,o),
(456,613,c),
(458,613,l),
(458,613,o),
(473,546,o),
(484,504,cs),
(615,0,l),
(701,0,l),
(900,715,l),
(809,715,l),
(690,250,ls),
(679,206,o),
(662,129,o),
(662,129,c),
(660,129,l),
(660,129,o),
(644,204,o),
(631,252,cs),
(506,715,l),
(409,715,l),
(280,252,ls),
(267,205,o),
(250,129,o),
(250,129,c),
(248,129,l),
(248,129,o),
(233,202,o),
(221,250,cs),
(108,715,l),
(14,715,l)
);
}
);
width = 914;
}
);
note = W;
unicode = 87;
},
{
glyphname = X;
kernLeft = X;
kernRight = X;
layers = (
{
hints = (
{
horizontal = 1;
place = (0, 21);
target = up;
type = BottomGhost;
},
{
horizontal = 1;
place = (715, -20);
target = down;
type = TopGhost;
},
{
place = (14, 588);
place = (14, 588);
type = Stem;
}
);
layerId = m01;
shapes = (
{
closed = 1;
nodes = (
(14,0,l),
(116,0,l),
(308,301,l),
(310,301,l),
(494,0,l),
(602,0,l),
(361,365,l),
(595,715,l),
(496,715,l),
(315,429,l),
(313,429,l),
(136,715,l),
(32,715,l),
(262,366,l)
);
}
);
width = 616;
}
);
note = X;
unicode = 88;
},
{
glyphname = Y;
kernLeft = Yacute;
kernRight = Yacute;
layers = (
{
hints = (
{
horizontal = 1;
place = (0, 21);
target = up;
type = BottomGhost;
},
{
horizontal = 1;
place = (715, -20);
target = down;
type = TopGhost;
},
{
place = (269, 90);
place = (269, 90);
type = Stem;
}
);
layerId = m01;
shapes = (
{
closed = 1;
nodes = (
(269,0,l),
(359,0,l),
(359,301,l),
(621,715,l),
(525,715,l),
(317,375,l),
(315,375,l),
(110,715,l),
(10,715,l),
(269,303,l)
);
}
);
width = 631;
}
);
note = Y;
unicode = 89;
},
{
glyphname = Z;
kernLeft = Zcaron;
kernRight = Zcaron;
layers = (
{
hints = (
{
horizontal = 1;
place = (0, 81);
place = (0, 81);
type = Stem;
},
{
horizontal = 1;
place = (639, 76);
place = (639, 76);
type = Stem;
},
{
place = (30, 105);
place = (30, 105);
type = Stem;
},
{
place = (458, 111);
place = (458, 111);
type = Stem;
}
);
layerId = m01;
shapes = (
{
closed = 1;
nodes = (
(30,0,l),
(586,0,l),
(586,81,l),
(135,81,l),
(135,84,l),
(569,645,l),
(569,715,l),
(55,715,l),
(55,639,l),
(458,639,l),
(458,636,l),
(30,86,l)
);
}
);
width = 622;
}
);
note = Z;
unicode = 90;
},
{
glyphname = bracketleft;
kernRight = bracketleft;
layers = (
{
hints = (
{
horizontal = 1;
place = (-118, 69);
place = (-118, 69);
type = Stem;
},
{
horizontal = 1;
place = (688, 66);
place = (688, 66);
type = Stem;
},
{
place = (77, 84);
place = (77, 84);
type = Stem;
}
);
layerId = m01;
shapes = (
{
closed = 1;
nodes = (
(77,-118,l),
(266,-118,l),
(266,-49,l),
(161,-49,l),
(161,688,l),
(266,688,l),
(266,754,l),
(77,754,l)
);
}
);
width = 296;
}
);
note = bracketleft;
unicode = 91;
},
{
glyphname = backslash;
kernLeft = backslash;
kernRight = backslash;
layers = (
{
hints = (
{
horizontal = 1;
place = (0, 21);
target = up;
type = BottomGhost;
},
{
horizontal = 1;
place = (715, -20);
target = down;
type = TopGhost;
},
{
place = (16, 368);
place = (16, 368);
type = Stem;
}
);
layerId = m01;
shapes = (
{
closed = 1;
nodes = (
(300,0,l),
(384,0,l),
(100,715,l),
(16,715,l)
);
}
);
width = 400;
}
);
note = backslash;
unicode = 92;
},
{
glyphname = bracketright;
kernLeft = bracketright;
layers = (
{
hints = (
{
horizontal = 1;
place = (-118, 69);
place = (-118, 69);
type = Stem;
},
{
horizontal = 1;
place = (688, 66);
place = (688, 66);
type = Stem;
},
{
place = (135, 84);
place = (135, 84);
type = Stem;
}
);
layerId = m01;
shapes = (
{
closed = 1;
nodes = (
(30,-118,l),
(219,-118,l),
(219,754,l),
(30,754,l),
(30,688,l),
(135,688,l),
(135,-49,l),
(30,-49,l)
);
}
);
width = 296;
}
);
note = bracketright;
unicode = 93;
},
{
glyphname = asciicircum;
layers = (
{
hints = (
{
horizontal = 1;
place = (652, 63);
place = (652, 63);
type = Stem;
},
{
place = (11, 431);
place = (11, 431);
type = Stem;
}
);
layerId = m01;
shapes = (
{
closed = 1;
nodes = (
(11,428,l),
(96,428,l),
(226,652,l),
(228,652,l),
(357,428,l),
(442,428,l),
(274,715,l),
(179,715,l)
);
}
);
width = 453;
}
);
note = asciicircum;
unicode = 94;
},
{
glyphname = underscore;
layers = (
{
hints = (
{
horizontal = 1;
place = (-166, 61);
place = (-166, 61);
type = Stem;
},
{
place = (-2, 412);
place = (-2, 412);
type = Stem;
}
);
layerId = m01;
shapes = (
{
closed = 1;
nodes = (
(-2,-166,l),
(410,-166,l),
(410,-105,l),
(-2,-105,l)
);
}
);
width = 408;
}
);
note = underscore;
unicode = 95;
},
{
glyphname = grave;
layers = (
{
hints = (
{
horizontal = 1;
place = (598, 127);
place = (598, 127);
type = Stem;
},
{
place = (139, 151);
place = (139, 151);
type = Stem;
}
);
layerId = m01;
shapes = (
{
closed = 1;
nodes = (
(221,598,l),
(290,598,l),
(239,725,l),
(139,725,l)
);
}
);
width = 500;
}
);
note = grave;
unicode = 96;
},
{
glyphname = a;
kernLeft = a;
kernRight = a;
layers = (
{
hints = (
{
horizontal = 1;
place = (-5, 21);
target = up;
type = BottomGhost;
},
{
horizontal = 1;
place = (466, 61);
place = (466, 61);
type = Stem;
},
{
place = (24, 86);
place = (24, 86);
type = Stem;
},
{
place = (374, 73);
place = (374, 73);
type = Stem;
},
{
horizontal = 1;
place = (-10, 62);
place = (-10, 62);
type = Stem;
}
);
layerId = m01;
shapes = (
{
closed = 1;
nodes = (
(482,-5,o),
(495,-1,o),
(505,3,c),
(505,62,l),
(502,62,l),
(457,52,o),
(447,75,o),
(447,117,cs),
(447,363,ls),
(447,486,o),
(366,527,o),
(256,527,cs),
(119,527,o),
(53,452,o),
(50,352,c),
(128,352,l),
(131,430,o),
(173,466,o),
(257,466,cs),
(331,466,o),
(373,433,o),
(373,375,cs),
(373,319,o),
(322,312,o),
(249,301,cs),
(120,281,o),
(24,256,o),
(24,134,cs),
(24,36,o),
(101,-10,o),
(199,-10,cs),
(287,-10,o),
(340,32,o),
(371,72,c),
(372,72,l),
(380,19,o),
(408,-5,o),
(461,-5,cs)
);
},
{
closed = 1;
nodes = (
(164,52,o),
(110,67,o),
(110,136,cs),
(110,212,o),
(175,226,o),
(256,241,cs),
(300,249,o),
(347,262,o),
(374,279,c),
(374,191,ls),
(374,131,o),
(325,52,o),
(217,52,cs)
);
}
);
width = 510;
}
);
note = a;
unicode = 97;
},
{
glyphname = b;
kernLeft = b;
kernRight = thorn;
layers = (
{
hints = (
{
horizontal = 1;
place = (-15, 68);
place = (-15, 68);
type = Stem;
},
{
horizontal = 1;
place = (460, 69);
place = (460, 69);
type = Stem;
},
{
horizontal = 1;
place = (715, -20);
target = down;
type = TopGhost;
},
{
place = (55, 81);
place = (55, 81);
type = Stem;
},
{
place = (441, 83);
place = (441, 83);
type = Stem;
},
{
horizontal = 1;
place = (0, 21);
target = up;
type = BottomGhost;
}
);
layerId = m01;
shapes = (
{
closed = 1;
nodes = (
(441,-15,o),
(524,91,o),
(524,257,cs),
(524,429,o),
(435,529,o),
(304,529,cs),
(229,529,o),
(177,496,o),
(138,443,c),
(136,443,l),
(136,715,l),
(55,715,l),
(55,0,l),
(136,0,l),
(136,68,l),
(138,68,l),
(180,10,o),
(231,-15,o),
(301,-15,cs)
);
},
{
closed = 1;
nodes = (
(185,53,o),
(131,140,o),
(131,256,cs),
(131,368,o),
(183,460,o),
(296,460,cs),
(394,460,o),
(441,372,o),
(441,256,cs),
(441,139,o),
(394,53,o),
(295,53,cs)
);
}
);
width = 550;
}
);
note = b;
unicode = 98;
},
{
glyphname = c;
kernLeft = c;
kernRight = c;
layers = (
{
hints = (
{
horizontal = 1;
place = (-14, 68);
place = (-14, 68);
type = Stem;
},
{
horizontal = 1;
place = (463, 67);
place = (463, 67);
type = Stem;
},
{
place = (26, 83);
place = (26, 83);
type = Stem;
}
);
layerId = m01;
shapes = (
{
closed = 1;
nodes = (
(405,-14,o),
(486,58,o),
(497,182,c),
(417,182,l),
(410,102,o),
(360,54,o),
(276,54,cs),
(166,54,o),
(109,144,o),
(109,258,cs),
(109,372,o),
(166,463,o),
(276,463,cs),
(354,463,o),
(403,420,o),
(415,350,c),
(497,350,l),
(479,460,o),
(398,530,o),
(276,530,cs),
(122,530,o),
(26,408,o),
(26,258,cs),
(26,108,o),
(122,-14,o),
(276,-14,cs)
);
}
);
width = 519;
}
);
note = c;
unicode = 99;
},
{
glyphname = d;
kernLeft = d;
kernRight = d;
layers = (
{
hints = (
{
horizontal = 1;
place = (-15, 68);
place = (-15, 68);
type = Stem;
},
{
horizontal = 1;
place = (460, 69);
place = (460, 69);
type = Stem;
},
{
horizontal = 1;
place = (715, -20);
target = down;
type = TopGhost;
},
{
place = (26, 83);
place = (26, 83);
type = Stem;
},
{
place = (417, 81);
place = (417, 81);
type = Stem;
},
{
horizontal = 1;
place = (0, 21);
target = up;
type = BottomGhost;
}
);
layerId = m01;
shapes = (
{
closed = 1;
nodes = (
(328,-15,o),
(376,13,o),
(415,63,c),
(417,63,l),
(417,0,l),
(498,0,l),
(498,715,l),
(417,715,l),
(417,444,l),
(415,444,l),
(382,493,o),
(326,529,o),
(253,529,cs),
(125,529,o),
(26,429,o),
(26,257,cs),
(26,91,o),
(114,-15,o),
(255,-15,cs)
);
},
{
closed = 1;
nodes = (
(159,53,o),
(109,139,o),
(109,256,cs),
(109,372,o),
(159,460,o),
(257,460,cs),
(364,460,o),
(422,376,o),
(422,256,cs),
(422,139,o),
(373,53,o),
(258,53,cs)
);
}
);
width = 553;
}
);
note = d;
unicode = 100;
},
{
glyphname = e;
kernLeft = c;
kernRight = e;
layers = (
{
hints = (
{
horizontal = 1;
place = (-14, 68);
place = (-14, 68);
type = Stem;
},
{
horizontal = 1;
place = (239, 61);
place = (239, 61);
type = Stem;
},
{
horizontal = 1;
place = (466, 64);
place = (466, 64);
type = Stem;
},
{
place = (26, 83);
place = (26, 83);
type = Stem;
},
{
place = (422, 87);
place = (422, 87);
type = Stem;
}
);
layerId = m01;
shapes = (
{
closed = 1;
nodes = (
(393,-14,o),
(474,49,o),
(498,160,c),
(419,160,l),
(401,90,o),
(351,54,o),
(276,54,cs),
(172,54,o),
(115,134,o),
(109,239,c),
(509,239,l),
(509,410,o),
(426,530,o),
(271,530,cs),
(124,530,o),
(26,408,o),
(26,258,cs),
(26,108,o),
(118,-14,o),
(276,-14,cs)
);
},
{
closed = 1;
nodes = (
(364,466,o),
(417,403,o),
(422,300,c),
(111,300,l),
(123,394,o),
(175,466,o),
(271,466,cs)
);
}
);
width = 533;
}
);
note = e;
unicode = 101;
},
{
glyphname = f;
kernLeft = f;
kernRight = f;
layers = (
{
hints = (
{
horizontal = 1;
place = (0, 21);
target = up;
type = BottomGhost;
},
{
horizontal = 1;
place = (451, 66);
place = (451, 66);
type = Stem;
},
{
horizontal = 1;
place = (651, 70);
place = (651, 70);
type = Stem;
},
{
place = (93, 81);
place = (93, 81);
type = Stem;
}
);
layerId = m01;
shapes = (
{
closed = 1;
nodes = (
(22,451,l),
(93,451,l),
(93,0,l),
(174,0,l),
(174,451,l),
(270,451,l),
(270,517,l),
(174,517,l),
(174,596,ls),
(174,638,o),
(193,651,o),
(245,651,cs),
(253,651,o),
(257,651,o),
(271,650,c),
(271,719,l),
(260,720,o),
(247,721,o),
(230,721,cs),
(144,721,o),
(93,689,o),
(93,600,cs),
(93,517,l),
(22,517,l)
);
}
);
width = 294;
}
);
note = f;
unicode = 102;
},
{
glyphname = g;
kernLeft = g;
kernRight = g;
layers = (
{
hints = (
{
horizontal = 1;
place = (-172, 64);
place = (-172, 64);
type = Stem;
},
{
horizontal = 1;
place = (18, 68);
place = (18, 68);
type = Stem;
},
{
horizontal = 1;
place = (461, 68);
place = (461, 68);
type = Stem;
},
{
place = (26, 83);
place = (26, 83);
type = Stem;
},
{
place = (407, 81);
place = (407, 81);
type = Stem;
},
{
horizontal = 1;
place = (461, 56);
place = (461, 56);
type = Stem;
}
);
layerId = m01;
shapes = (
{
closed = 1;
nodes = (
(398,-172,o),
(488,-108,o),
(488,28,cs),
(488,517,l),
(407,517,l),
(407,451,l),
(405,451,l),
(370,500,o),
(322,529,o),
(247,529,cs),
(127,529,o),
(26,435,o),
(26,274,cs),
(26,125,o),
(118,18,o),
(252,18,cs),
(326,18,o),
(367,49,o),
(405,98,c),
(407,98,l),
(407,25,ls),
(407,-65,o),
(354,-108,o),
(259,-108,cs),
(179,-108,o),
(125,-86,o),
(117,-29,c),
(42,-29,l),
(51,-118,o),
(127,-172,o),
(261,-172,cs)
);
},
{
closed = 1;
nodes = (
(160,86,o),
(109,160,o),
(109,273,cs),
(109,385,o),
(158,461,o),
(255,461,cs),
(365,461,o),
(413,391,o),
(413,278,cs),
(413,169,o),
(375,86,o),
(256,86,cs)
);
}
);
width = 543;
}
);
note = g;
unicode = 103;
},
{
glyphname = h;
kernLeft = b;
kernRight = h;
layers = (
{
hints = (
{
horizontal = 1;
place = (0, 21);
target = up;
type = BottomGhost;
},
{
horizontal = 1;
place = (461, 68);
place = (461, 68);
type = Stem;
},
{
horizontal = 1;
place = (715, -20);
target = down;
type = TopGhost;
},
{
place = (55, 81);
place = (55, 81);
type = Stem;
},
{
place = (395, 81);
place = (395, 81);
type = Stem;
}
);
layerId = m01;
shapes = (
{
closed = 1;
nodes = (
(136,715,l),
(55,715,l),
(55,0,l),
(136,0,l),
(136,318,ls),
(136,403,o),
(196,461,o),
(278,461,cs),
(351,461,o),
(395,423,o),
(395,356,cs),
(395,0,l),
(476,0,l),
(476,363,ls),
(476,470,o),
(410,529,o),
(302,529,cs),
(227,529,o),
(175,498,o),
(138,449,c),
(136,449,l)
);
}
);
width = 528;
}
);
note = h;
unicode = 104;
},
{
glyphname = i;
kernLeft = b;
kernRight = d;
layers = (
{
hints = (
{
horizontal = 1;
place = (0, 21);
target = up;
type = BottomGhost;
},
{
horizontal = 1;
place = (517, -20);
target = down;
type = TopGhost;
},
{
horizontal = 1;
place = (615, 100);
place = (615, 100);
type = Stem;
},
{
place = (55, 81);
place = (55, 81);
type = Stem;
}
);
layerId = m01;
shapes = (
{
closed = 1;
nodes = (
(55,0,l),
(136,0,l),
(136,517,l),
(55,517,l)
);
},
{
closed = 1;
nodes = (
(55,615,l),
(136,615,l),
(136,715,l),
(55,715,l)
);
}
);
width = 191;
}
);
note = i;
unicode = 105;
},
{
glyphname = j;
kernLeft = j;
kernRight = j;
layers = (
{
hints = (
{
horizontal = 1;
place = (-147, 67);
place = (-147, 67);
type = Stem;
},
{
horizontal = 1;
place = (517, -20);
target = down;
type = TopGhost;
},
{
horizontal = 1;
place = (615, 100);
place = (615, 100);
type = Stem;
},
{
place = (55, 81);
place = (55, 81);
type = Stem;
}
);
layerId = m01;
shapes = (
{
closed = 1;
nodes = (
(83,-147,o),
(136,-130,o),
(136,-34,cs),
(136,517,l),
(55,517,l),
(55,-30,ls),
(55,-65,o),
(37,-80,o),
(2,-80,cs),
(-7,-80,o),
(-16,-79,o),
(-26,-77,cs),
(-28,-77,l),
(-28,-143,l),
(-15,-145,o),
(-1,-147,o),
(17,-147,cs)
);
},
{
closed = 1;
nodes = (
(55,615,l),
(136,615,l),
(136,715,l),
(55,715,l)
);
}
);
width = 191;
}
);
note = j;
unicode = 106;
},
{
glyphname = k;
kernLeft = b;
kernRight = k;
layers = (
{
hints = (
{
horizontal = 1;
place = (0, 21);
target = up;
type = BottomGhost;
},
{
horizontal = 1;
place = (517, -20);
target = down;
type = TopGhost;
},
{
horizontal = 1;
place = (715, -20);
target = down;
type = TopGhost;
},
{
place = (55, 81);
place = (55, 81);
type = Stem;
}
);
layerId = m01;
shapes = (
{
closed = 1;
nodes = (
(395,0,l),
(490,0,l),
(268,331,l),
(466,517,l),
(363,517,l),
(136,296,l),
(136,715,l),
(55,715,l),
(55,0,l),
(136,0,l),
(136,207,l),
(212,279,l)
);
}
);
width = 489;
}
);
note = k;
unicode = 107;
},
{
glyphname = l;
kernLeft = b;
kernRight = d;
layers = (
{
hints = (
{
horizontal = 1;
place = (0, 21);
target = up;
type = BottomGhost;
},
{
horizontal = 1;
place = (715, -20);
target = down;
type = TopGhost;
},
{
place = (58, 81);
place = (58, 81);
type = Stem;
}
);
layerId = m01;
shapes = (
{
closed = 1;
nodes = (
(58,0,l),
(139,0,l),
(139,715,l),
(58,715,l)
);
}
);
width = 197;
}
);
note = l;
unicode = 108;
},
{
glyphname = m;
kernLeft = m;
kernRight = h;
layers = (
{
hints = (
{
horizontal = 1;
place = (0, 21);
target = up;
type = BottomGhost;
},
{
horizontal = 1;
place = (461, 68);
place = (461, 68);
type = Stem;
},
{
place = (55, 81);
place = (55, 81);
type = Stem;
},
{
place = (358, 81);
place = (358, 81);
type = Stem;
},
{
place = (661, 81);
place = (661, 81);
type = Stem;
},
{
horizontal = 1;
place = (517, -20);
target = down;
type = TopGhost;
}
);
layerId = m01;
shapes = (
{
closed = 1;
nodes = (
(55,0,l),
(136,0,l),
(136,322,ls),
(136,403,o),
(206,461,o),
(269,461,cs),
(322,461,o),
(358,423,o),
(358,359,cs),
(358,0,l),
(439,0,l),
(439,322,ls),
(439,403,o),
(499,461,o),
(566,461,cs),
(618,461,o),
(661,423,o),
(661,359,cs),
(661,0,l),
(742,0,l),
(742,363,ls),
(742,470,o),
(677,529,o),
(585,529,cs),
(522,529,o),
(460,496,o),
(427,437,c),
(425,437,l),
(403,497,o),
(353,529,o),
(290,529,cs),
(225,529,o),
(170,493,o),
(138,443,c),
(136,443,l),
(136,517,l),
(55,517,l)
);
}
);
width = 794;
}
);
note = m;
unicode = 109;
},
{
glyphname = n;
kernLeft = m;
kernRight = h;
layers = (
{
hints = (
{
horizontal = 1;
place = (0, 21);
target = up;
type = BottomGhost;
},
{
horizontal = 1;
place = (517, -20);
target = down;
type = TopGhost;
},
{
place = (55, 81);
place = (55, 81);
type = Stem;
},
{
place = (395, 81);
place = (395, 81);
type = Stem;
},
{
horizontal = 1;
place = (461, 68);
place = (461, 68);
type = Stem;
}
);
layerId = m01;
shapes = (
{
closed = 1;
nodes = (
(136,517,l),
(55,517,l),
(55,0,l),
(136,0,l),
(136,318,ls),
(136,403,o),
(196,461,o),
(278,461,cs),
(351,461,o),
(395,423,o),
(395,356,cs),
(395,0,l),
(476,0,l),
(476,363,ls),
(476,470,o),
(410,529,o),
(302,529,cs),
(227,529,o),
(175,498,o),
(138,449,c),
(136,449,l)
);
}
);
width = 528;
}
);
note = n;
unicode = 110;
},
{
glyphname = o;
kernLeft = c;
kernRight = o;
layers = (
{
hints = (
{
horizontal = 1;
place = (-14, 68);
place = (-14, 68);
type = Stem;
},
{
horizontal = 1;
place = (463, 67);
place = (463, 67);
type = Stem;
},
{
place = (26, 83);
place = (26, 83);
type = Stem;
},
{
place = (442, 83);
place = (442, 83);
type = Stem;
}
);
layerId = m01;
shapes = (
{
closed = 1;
nodes = (
(431,-14,o),
(525,108,o),
(525,258,cs),
(525,408,o),
(431,530,o),
(276,530,cs),
(122,530,o),
(26,408,o),
(26,258,cs),
(26,108,o),
(122,-14,o),
(276,-14,cs)
);
},
{
closed = 1;
nodes = (
(166,54,o),
(109,144,o),
(109,258,cs),
(109,372,o),
(166,463,o),
(276,463,cs),
(386,463,o),
(442,372,o),
(442,258,cs),
(442,144,o),
(386,54,o),
(276,54,cs)
);
}
);
width = 551;
}
);
note = o;
unicode = 111;
},
{
glyphname = p;
kernLeft = p;
kernRight = thorn;
layers = (
{
hints = (
{
horizontal = 1;
place = (-166, 21);
target = up;
type = BottomGhost;
},
{
horizontal = 1;
place = (-15, 68);
place = (-15, 68);
type = Stem;
},
{
horizontal = 1;
place = (460, 69);
place = (460, 69);
type = Stem;
},
{
place = (55, 81);
place = (55, 81);
type = Stem;
},
{
place = (443, 83);
place = (443, 83);
type = Stem;
},
{
horizontal = 1;
place = (517, -20);
target = down;
type = TopGhost;
}
);
layerId = m01;
shapes = (
{
closed = 1;
nodes = (
(55,-166,l),
(136,-166,l),
(136,61,l),
(138,61,l),
(181,6,o),
(231,-15,o),
(301,-15,cs),
(441,-15,o),
(526,91,o),
(526,257,cs),
(526,429,o),
(435,529,o),
(304,529,cs),
(229,529,o),
(177,497,o),
(138,444,c),
(136,444,l),
(136,517,l),
(55,517,l)
);
},
{
closed = 1;
nodes = (
(176,53,o),
(131,144,o),
(131,256,cs),
(131,368,o),
(183,460,o),
(296,460,cs),
(394,460,o),
(443,372,o),
(443,256,cs),
(443,139,o),
(394,53,o),
(295,53,cs)
);
}
);
width = 552;
}
);
note = p;
unicode = 112;
},
{
glyphname = q;
kernLeft = d;
kernRight = q;
layers = (
{
hints = (
{
horizontal = 1;
place = (-166, 21);
target = up;
type = BottomGhost;
},
{
horizontal = 1;
place = (-15, 68);
place = (-15, 68);
type = Stem;
},
{
horizontal = 1;
place = (460, 69);
place = (460, 69);
type = Stem;
},
{
place = (29, 83);
place = (29, 83);
type = Stem;
},
{
place = (416, 81);
place = (416, 81);
type = Stem;
},
{
horizontal = 1;
place = (517, -20);
target = down;
type = TopGhost;
}
);
layerId = m01;
shapes = (
{
closed = 1;
nodes = (
(416,-166,l),
(497,-166,l),
(497,517,l),
(416,517,l),
(416,448,l),
(414,448,l),
(378,499,o),
(326,529,o),
(251,529,cs),
(125,529,o),
(29,429,o),
(29,257,cs),
(29,91,o),
(114,-15,o),
(254,-15,cs),
(328,-15,o),
(375,13,o),
(414,63,c),
(416,63,l)
);
},
{
closed = 1;
nodes = (
(159,53,o),
(112,139,o),
(112,256,cs),
(112,372,o),
(159,460,o),
(257,460,cs),
(370,460,o),
(421,376,o),
(421,256,cs),
(421,139,o),
(377,53,o),
(258,53,cs)
);
}
);
width = 552;
}
);
note = q;
unicode = 113;
},
{
glyphname = r;
kernLeft = m;
kernRight = r;
layers = (
{
hints = (
{
horizontal = 1;
place = (0, 21);
target = up;
type = BottomGhost;
},
{
horizontal = 1;
place = (517, -20);
target = down;
type = TopGhost;
},
{
place = (55, 81);
place = (55, 81);
type = Stem;
},
{
horizontal = 1;
place = (444, 79);
place = (444, 79);
type = Stem;
}
);
layerId = m01;
shapes = (
{
closed = 1;
nodes = (
(136,517,l),
(55,517,l),
(55,0,l),
(136,0,l),
(136,287,ls),
(136,384,o),
(206,444,o),
(286,444,cs),
(302,444,o),
(310,443,o),
(322,439,c),
(325,439,l),
(325,517,l),
(315,521,o),
(307,523,o),
(292,523,cs),
(223,523,o),
(169,481,o),
(138,431,c),
(136,431,l)
);
}
);
width = 343;
}
);
note = r;
unicode = 114;
},
{
glyphname = s;
kernLeft = scaron;
kernRight = scaron;
layers = (
{
hints = (
{
horizontal = 1;
place = (-15, 68);
place = (-15, 68);
type = Stem;
},
{
horizontal = 1;
place = (464, 64);
place = (464, 64);
type = Stem;
},
{
place = (45, 80);
place = (45, 80);
type = Stem;
},
{
place = (373, 82);
place = (373, 82);
type = Stem;
}
);
layerId = m01;
shapes = (
{
closed = 1;
nodes = (
(370,-15,o),
(455,38,o),
(455,142,cs),
(455,261,o),
(368,284,o),
(264,305,cs),
(175,323,o),
(125,334,o),
(125,390,cs),
(125,431,o),
(155,464,o),
(229,464,cs),
(306,464,o),
(343,434,o),
(351,366,c),
(434,366,l),
(422,467,o),
(359,528,o),
(231,528,cs),
(111,528,o),
(45,472,o),
(45,386,cs),
(45,273,o),
(136,252,o),
(238,231,cs),
(333,211,o),
(373,196,o),
(373,138,cs),
(373,90,o),
(338,53,o),
(253,53,cs),
(176,53,o),
(116,78,o),
(105,168,c),
(22,168,l),
(30,52,o),
(109,-15,o),
(251,-15,cs)
);
}
);
width = 478;
}
);
note = s;
unicode = 115;
},
{
glyphname = t;
kernLeft = t;
kernRight = t;
layers = (
{
hints = (
{
horizontal = 1;
place = (-3, 70);
place = (-3, 70);
type = Stem;
},
{
horizontal = 1;
place = (451, 66);
place = (451, 66);
type = Stem;
},
{
place = (97, 81);
place = (97, 81);
type = Stem;
}
);
layerId = m01;
shapes = (
{
closed = 1;
nodes = (
(22,451,l),
(97,451,l),
(97,97,ls),
(97,24,o),
(145,-3,o),
(211,-3,cs),
(235,-3,o),
(257,0,o),
(276,4,c),
(276,74,l),
(273,74,l),
(264,71,o),
(246,67,o),
(230,67,cs),
(197,67,o),
(178,79,o),
(178,115,cs),
(178,451,l),
(278,451,l),
(278,517,l),
(178,517,l),
(178,680,l),
(97,680,l),
(97,517,l),
(22,517,l)
);
}
);
width = 307;
}
);
note = t;
unicode = 116;
},
{
glyphname = u;
kernLeft = u;
kernRight = u;
layers = (
{
hints = (
{
horizontal = 1;
place = (0, 55);
place = (0, 55);
type = Stem;
},
{
horizontal = 1;
place = (517, -20);
target = down;
type = TopGhost;
},
{
place = (52, 81);
place = (52, 81);
type = Stem;
},
{
place = (384, 81);
place = (384, 81);
type = Stem;
},
{
horizontal = 1;
place = (-12, 67);
place = (-12, 67);
type = Stem;
}
);
layerId = m01;
shapes = (
{
closed = 1;
nodes = (
(465,0,l),
(465,517,l),
(384,517,l),
(384,199,ls),
(384,117,o),
(331,55,o),
(249,55,cs),
(176,55,o),
(133,94,o),
(133,161,cs),
(133,517,l),
(52,517,l),
(52,159,ls),
(52,52,o),
(120,-12,o),
(226,-12,cs),
(301,-12,o),
(345,21,o),
(382,71,c),
(384,71,l),
(384,0,l)
);
}
);
width = 520;
}
);
note = u;
unicode = 117;
},
{
glyphname = v;
kernLeft = v;
kernRight = v;
layers = (
{
hints = (
{
horizontal = 1;
place = (0, 21);
target = up;
type = BottomGhost;
},
{
horizontal = 1;
place = (517, -20);
target = down;
type = TopGhost;
},
{
place = (2, 457);
place = (2, 457);
type = Stem;
},
{
horizontal = 1;
place = (0, 80);
place = (0, 80);
type = Stem;
}
);
layerId = m01;
shapes = (
{
closed = 1;
nodes = (
(183,0,l),
(273,0,l),
(459,517,l),
(375,517,l),
(266,189,ls),
(251,144,o),
(232,80,o),
(232,80,c),
(230,80,l),
(230,80,o),
(211,143,o),
(196,189,cs),
(89,517,l),
(2,517,l)
);
}
);
width = 461;
}
);
note = v;
unicode = 118;
},
{
glyphname = w;
kernLeft = w;
kernRight = w;
layers = (
{
hints = (
{
horizontal = 1;
place = (0, 87);
place = (0, 87);
type = Stem;
},
{
horizontal = 1;
place = (517, -20);
target = down;
type = TopGhost;
},
{
place = (4, 726);
place = (4, 726);
type = Stem;
},
{
horizontal = 1;
place = (421, 96);
place = (421, 96);
type = Stem;
}
);
layerId = m01;
shapes = (
{
closed = 1;
nodes = (
(168,0,l),
(252,0,l),
(339,313,ls),
(351,356,o),
(365,421,o),
(365,421,c),
(367,421,l),
(367,421,o),
(380,356,o),
(392,313,cs),
(478,0,l),
(561,0,l),
(730,517,l),
(646,517,l),
(550,198,ls),
(537,155,o),
(521,87,o),
(521,87,c),
(519,87,l),
(519,87,o),
(505,154,o),
(494,196,cs),
(410,517,l),
(325,517,l),
(238,196,ls),
(227,155,o),
(212,87,o),
(212,87,c),
(210,87,l),
(210,87,o),
(194,155,o),
(182,198,cs),
(91,517,l),
(4,517,l)
);
}
);
width = 734;
}
);
note = w;
unicode = 119;
},
{
glyphname = x;
kernLeft = x;
kernRight = x;
layers = (
{
hints = (
{
horizontal = 1;
place = (0, 21);
target = up;
type = BottomGhost;
},
{
horizontal = 1;
place = (517, -20);
target = down;
type = TopGhost;
},
{
place = (6, 491);
place = (6, 491);
type = Stem;
}
);
layerId = m01;
shapes = (
{
closed = 1;
nodes = (
(6,0,l),
(97,0,l),
(247,222,l),
(249,222,l),
(402,0,l),
(497,0,l),
(295,280,l),
(465,517,l),
(376,517,l),
(248,329,l),
(246,329,l),
(123,517,l),
(29,517,l),
(201,271,l)
);
}
);
width = 503;
}
);
note = x;
unicode = 120;
},
{
glyphname = y;
kernLeft = yacute;
kernRight = yacute;
layers = (
{
hints = (
{
horizontal = 1;
place = (-171, 72);
place = (-171, 72);
type = Stem;
},
{
horizontal = 1;
place = (517, -20);
target = down;
type = TopGhost;
},
{
place = (2, 485);
place = (2, 485);
type = Stem;
},
{
horizontal = 1;
place = (-160, 21);
target = up;
type = BottomGhost;
}
);
layerId = m01;
shapes = (
{
closed = 1;
nodes = (
(184,-171,o),
(224,-149,o),
(266,-42,cs),
(487,517,l),
(401,517,l),
(283,195,ls),
(267,152,o),
(249,94,o),
(249,94,c),
(247,94,l),
(247,94,o),
(228,152,o),
(212,195,cs),
(90,517,l),
(2,517,l),
(204,15,l),
(184,-36,ls),
(164,-86,o),
(141,-99,o),
(107,-99,cs),
(80,-99,o),
(63,-94,o),
(52,-88,c),
(48,-88,l),
(48,-160,l),
(70,-169,o),
(90,-171,o),
(121,-171,cs)
);
}
);
width = 489;
}
);
note = y;
unicode = 121;
},
{
glyphname = z;
kernLeft = zcaron;
kernRight = zcaron;
layers = (
{
hints = (
{
horizontal = 1;
place = (0, 74);
place = (0, 74);
type = Stem;
},
{
horizontal = 1;
place = (446, 71);
place = (446, 71);
type = Stem;
},
{
place = (34, 104);
place = (34, 104);
type = Stem;
}
);
layerId = m01;
shapes = (
{
closed = 1;
nodes = (
(34,0,l),
(446,0,l),
(446,74,l),
(138,74,l),
(138,77,l),
(435,469,l),
(435,517,l),
(51,517,l),
(51,446,l),
(322,446,l),
(322,443,l),
(34,64,l)
);
}
);
width = 471;
}
);
note = z;
unicode = 122;
},
{
glyphname = braceleft;
kernRight = bracketleft;
layers = (
{
hints = (
{
horizontal = 1;
place = (-118, 69);
place = (-118, 69);
type = Stem;
},
{
horizontal = 1;
place = (288, 67);
place = (288, 67);
type = Stem;
},
{
horizontal = 1;
place = (688, 66);
place = (688, 66);
type = Stem;
},
{
place = (93, 84);
place = (93, 84);
type = Stem;
},
{
place = (24, 97);
place = (24, 97);
type = Stem;
}
);
layerId = m01;
shapes = (
{
closed = 1;
nodes = (
(266,-118,l),
(266,-49,l),
(250,-49,ls),
(198,-49,o),
(177,-29,o),
(177,44,cs),
(177,227,ls),
(177,278,o),
(160,308,o),
(121,320,c),
(121,323,l),
(160,335,o),
(177,365,o),
(177,416,cs),
(177,595,ls),
(177,668,o),
(198,688,o),
(250,688,cs),
(266,688,l),
(266,754,l),
(248,754,ls),
(148,754,o),
(93,715,o),
(93,596,cs),
(93,422,ls),
(93,378,o),
(75,357,o),
(24,355,c),
(24,288,l),
(78,286,o),
(93,265,o),
(93,221,cs),
(93,43,ls),
(93,-76,o),
(148,-118,o),
(248,-118,cs)
);
}
);
width = 296;
}
);
note = braceleft;
unicode = 123;
},
{
glyphname = bar;
layers = (
{
hints = (
{
horizontal = 1;
place = (-118, 872);
place = (-118, 872);
type = Stem;
},
{
place = (77, 70);
place = (77, 70);
type = Stem;
}
);
layerId = m01;
shapes = (
{
closed = 1;
nodes = (
(77,-118,l),
(147,-118,l),
(147,754,l),
(77,754,l)
);
}
);
width = 224;
}
);
note = bar;
unicode = 124;
},
{
glyphname = braceright;
kernLeft = bracketright;
layers = (
{
hints = (
{
horizontal = 1;
place = (-118, 69);
place = (-118, 69);
type = Stem;
},
{
horizontal = 1;
place = (285, 67);
place = (285, 67);
type = Stem;
},
{
horizontal = 1;
place = (688, 66);
place = (688, 66);
type = Stem;
},
{
place = (119, 84);
place = (119, 84);
type = Stem;
},
{
place = (175, 97);
place = (175, 97);
type = Stem;
}
);
layerId = m01;
shapes = (
{
closed = 1;
nodes = (
(30,-118,l),
(48,-118,ls),
(148,-118,o),
(203,-79,o),
(203,40,cs),
(203,218,ls),
(203,262,o),
(221,283,o),
(272,285,c),
(272,352,l),
(218,354,o),
(203,375,o),
(203,419,cs),
(203,593,ls),
(203,712,o),
(148,754,o),
(48,754,cs),
(30,754,l),
(30,688,l),
(46,688,ls),
(98,688,o),
(119,665,o),
(119,592,cs),
(119,413,ls),
(119,362,o),
(136,332,o),
(175,320,c),
(175,317,l),
(136,305,o),
(119,275,o),
(119,224,cs),
(119,41,ls),
(119,-32,o),
(98,-49,o),
(46,-49,cs),
(30,-49,l)
);
}
);
width = 296;
}
);
note = braceright;
unicode = 125;
},
{
glyphname = asciitilde;
layers = (
{
hints = (
{
horizontal = 1;
place = (272, 116);
place = (272, 116);
type = Stem;
},
{
place = (36, 65);
place = (36, 65);
type = Stem;
},
{
place = (292, 65);
place = (292, 65);
type = Stem;
},
{
horizontal = 1;
place = (315, 75);
place = (315, 75);
type = Stem;
}
);
layerId = m01;
shapes = (
{
closed = 1;
nodes = (
(329,272,o),
(355,322,o),
(357,388,c),
(292,388,l),
(291,362,o),
(280,347,o),
(258,347,cs),
(241,347,o),
(229,354,o),
(203,367,cs),
(180,379,o),
(155,390,o),
(126,390,cs),
(72,390,o),
(38,345,o),
(36,274,c),
(101,274,l),
(102,300,o),
(111,315,o),
(131,315,cs),
(148,315,o),
(162,307,o),
(196,292,cs),
(219,282,o),
(243,272,o),
(267,272,cs)
);
}
);
width = 393;
}
);
note = asciitilde;
unicode = 126;
},
{
glyphname = Adieresis;
kernLeft = A;
kernRight = A;
layers = (
{
hints = (
{
horizontal = 1;
place = (0, 21);
target = up;
type = BottomGhost;
},
{
horizontal = 1;
place = (218, 73);
place = (218, 73);
type = Stem;
},
{
horizontal = 1;
place = (715, -20);
target = down;
type = TopGhost;
},
{
horizontal = 1;
place = (760, 95);
place = (760, 95);
type = Stem;
},
{
place = (205, 78);
place = (205, 78);
type = Stem;
},
{
place = (369, 78);
place = (369, 78);
type = Stem;
},
{
horizontal = 1;
place = (632, 83);
place = (632, 83);
type = Stem;
}
);
layerId = m01;
shapes = (
{
closed = 1;
nodes = (
(10,0,l),
(102,0,l),
(179,218,l),
(464,218,l),
(540,0,l),
(638,0,l),
(374,715,l),
(273,715,l)
);
},
{
closed = 1;
nodes = (
(290,531,ls),
(304,572,o),
(323,632,o),
(323,632,c),
(325,632,l),
(325,632,o),
(343,571,o),
(357,531,cs),
(439,291,l),
(205,291,l)
);
},
{
closed = 1;
nodes = (
(369,760,l),
(447,760,l),
(447,855,l),
(369,855,l)
);
},
{
closed = 1;
nodes = (
(205,760,l),
(283,760,l),
(283,855,l),
(205,855,l)
);
}
);
width = 648;
}
);
note = Adieresis;
unicode = 196;
},
{
glyphname = Aring;
kernLeft = A;
kernRight = A;
layers = (
{
hints = (
{
horizontal = 1;
place = (0, 21);
target = up;
type = BottomGhost;
},
{
horizontal = 1;
place = (218, 73);
place = (218, 73);
type = Stem;
},
{
horizontal = 1;
place = (715, -20);
target = down;
type = TopGhost;
},
{
horizontal = 1;
place = (746, 35);
place = (746, 35);
type = Stem;
},
{
horizontal = 1;
place = (881, 35);
place = (881, 35);
type = Stem;
},
{
place = (239, 40);
place = (239, 40);
type = Stem;
},
{
place = (373, 40);
place = (373, 40);
type = Stem;
},
{
horizontal = 1;
place = (632, 83);
place = (632, 83);
type = Stem;
}
);
layerId = m01;
shapes = (
{
closed = 1;
nodes = (
(10,0,l),
(102,0,l),
(179,218,l),
(464,218,l),
(540,0,l),
(638,0,l),
(374,715,l),
(273,715,l)
);
},
{
closed = 1;
nodes = (
(290,531,ls),
(304,572,o),
(323,632,o),
(323,632,c),
(325,632,l),
(325,632,o),
(343,571,o),
(357,531,cs),
(439,291,l),
(205,291,l)
);
},
{
closed = 1;
nodes = (
(374,746,o),
(413,784,o),
(413,831,cs),
(413,878,o),
(374,916,o),
(326,916,cs),
(278,916,o),
(239,878,o),
(239,831,cs),
(239,784,o),
(278,746,o),
(326,746,cs)
);
},
{
closed = 1;
nodes = (
(298,781,o),
(279,803,o),
(279,831,cs),
(279,859,o),
(298,881,o),
(326,881,cs),
(354,881,o),
(373,859,o),
(373,831,cs),
(373,803,o),
(354,781,o),
(326,781,cs)
);
}
);
width = 648;
}
);
note = Aring;
unicode = 197;
},
{
glyphname = Ccedilla;
kernLeft = C;
kernRight = C;
layers = (
{
hints = (
{
horizontal = 1;
place = (-191, 43);
place = (-191, 43);
type = Stem;
},
{
horizontal = 1;
place = (-88, 37);
place = (-88, 37);
type = Stem;
},
{
horizontal = 1;
place = (-13, 78);
place = (-13, 78);
type = Stem;
},
{
horizontal = 1;
place = (653, 78);
place = (653, 78);
type = Stem;
},
{
place = (40, 92);
place = (40, 92);
type = Stem;
},
{
place = (386, 65);
place = (386, 65);
type = Stem;
},
{
horizontal = 1;
place = (-162, 21);
target = up;
type = BottomGhost;
}
);
layerId = m01;
shapes = (
{
closed = 1;
nodes = (
(408,-191,o),
(451,-163,o),
(451,-115,cs),
(451,-61,o),
(396,-46,o),
(359,-51,c),
(359,-49,l),
(402,-13,l),
(480,-9,o),
(544,17,o),
(589,61,cs),
(640,111,o),
(674,191,o),
(675,262,c),
(586,262,l),
(577,157,o),
(513,65,o),
(378,65,cs),
(229,65,o),
(132,183,o),
(132,358,cs),
(132,526,o),
(220,653,o),
(377,653,cs),
(490,653,o),
(561,592,o),
(578,503,c),
(666,503,l),
(647,635,o),
(546,731,o),
(379,731,cs),
(166,731,o),
(40,568,o),
(40,358,cs),
(40,150,o),
(161,0,o),
(349,-13,c),
(291,-71,l),
(307,-95,l),
(319,-91,o),
(330,-88,o),
(348,-88,cs),
(372,-88,o),
(386,-97,o),
(386,-116,cs),
(386,-138,o),
(361,-148,o),
(328,-148,cs),
(303,-148,o),
(277,-142,o),
(256,-133,c),
(240,-162,l),
(264,-178,o),
(298,-191,o),
(347,-191,cs)
);
}
);
width = 709;
}
);
note = Ccedilla;
unicode = 199;
},
{
glyphname = Eacute;
kernRight = E;
layers = (
{
hints = (
{
horizontal = 1;
place = (0, 83);
place = (0, 83);
type = Stem;
},
{
horizontal = 1;
place = (334, 76);
place = (334, 76);
type = Stem;
},
{
horizontal = 1;
place = (636, 79);
place = (636, 79);
type = Stem;
},
{
horizontal = 1;
place = (753, 121);
place = (753, 121);
type = Stem;
},
{
place = (67, 90);
place = (67, 90);
type = Stem;
}
);
layerId = m01;
shapes = (
{
closed = 1;
nodes = (
(67,0,l),
(584,0,l),
(584,83,l),
(157,83,l),
(157,334,l),
(534,334,l),
(534,410,l),
(157,410,l),
(157,636,l),
(572,636,l),
(572,715,l),
(67,715,l)
);
},
{
closed = 1;
nodes = (
(294,753,l),
(363,753,l),
(445,874,l),
(345,874,l)
);
}
);
width = 622;
}
);
note = Eacute;
unicode = 201;
},
{
glyphname = Ntilde;
layers = (
{
hints = (
{
horizontal = 1;
place = (0, 21);
target = up;
type = BottomGhost;
},
{
horizontal = 1;
place = (715, -20);
target = down;
type = TopGhost;
},
{
horizontal = 1;
place = (760, 62);
place = (760, 62);
type = Stem;
},
{
place = (67, 84);
place = (67, 84);
type = Stem;
},
{
place = (542, 84);
place = (542, 84);
type = Stem;
},
{
horizontal = 1;
place = (587, 128);
place = (587, 128);
type = Stem;
},
{
horizontal = 1;
place = (0, 126);
place = (0, 126);
type = Stem;
},
{
place = (445, 58);
place = (445, 58);
type = Stem;
},
{
horizontal = 1;
place = (792, 62);
place = (792, 62);
type = Stem;
},
{
place = (224, 60);
place = (224, 60);
type = Stem;
}
);
layerId = m01;
shapes = (
{
closed = 1;
nodes = (
(67,0,l),
(151,0,l),
(151,587,l),
(153,587,l),
(153,587,o),
(183,533,o),
(206,498,cs),
(534,0,l),
(626,0,l),
(626,715,l),
(542,715,l),
(542,126,l),
(540,126,l),
(540,126,o),
(512,181,o),
(488,218,cs),
(162,715,l),
(67,715,l)
);
},
{
closed = 1;
nodes = (
(479,760,o),
(500,801,o),
(503,852,c),
(445,852,l),
(443,836,o),
(437,822,o),
(418,822,cs),
(381,822,o),
(355,854,o),
(301,854,cs),
(254,854,o),
(229,819,o),
(224,762,c),
(284,762,l),
(285,780,o),
(293,792,o),
(307,792,cs),
(334,792,o),
(379,760,o),
(427,760,cs)
);
}
);
width = 693;
}
);
note = Ntilde;
unicode = 209;
},
{
glyphname = Odieresis;
kernLeft = C;
kernRight = O;
layers = (
{
hints = (
{
horizontal = 1;
place = (-15, 79);
place = (-15, 79);
type = Stem;
},
{
horizontal = 1;
place = (653, 78);
place = (653, 78);
type = Stem;
},
{
place = (40, 92);
place = (40, 92);
type = Stem;
},
{
place = (269, 78);
place = (269, 78);
type = Stem;
},
{
place = (433, 78);
place = (433, 78);
type = Stem;
},
{
place = (648, 92);
place = (648, 92);
type = Stem;
},
{
horizontal = 1;
place = (760, 95);
place = (760, 95);
type = Stem;
}
);
layerId = m01;
shapes = (
{
closed = 1;
nodes = (
(606,-15,o),
(740,144,o),
(740,358,cs),
(740,572,o),
(606,731,o),
(390,731,cs),
(174,731,o),
(40,572,o),
(40,358,cs),
(40,144,o),
(174,-15,o),
(390,-15,cs)
);
},
{
closed = 1;
nodes = (
(222,64,o),
(132,190,o),
(132,358,cs),
(132,526,o),
(222,653,o),
(390,653,cs),
(558,653,o),
(648,526,o),
(648,358,cs),
(648,190,o),
(558,64,o),
(390,64,cs)
);
},
{
closed = 1;
nodes = (
(433,760,l),
(511,760,l),
(511,855,l),
(433,855,l)
);
},
{
closed = 1;
nodes = (
(269,760,l),
(347,760,l),
(347,855,l),
(269,855,l)
);
}
);
width = 780;
}
);
note = Odieresis;
unicode = 214;
},
{
glyphname = Udieresis;
kernLeft = U;
kernRight = U;
layers = (
{
hints = (
{
horizontal = 1;
place = (-11, 77);
place = (-11, 77);
type = Stem;
},
{
horizontal = 1;
place = (715, -20);
target = down;
type = TopGhost;
},
{
horizontal = 1;
place = (760, 95);
place = (760, 95);
type = Stem;
},
{
place = (55, 90);
place = (55, 90);
type = Stem;
},
{
place = (208, 78);
place = (208, 78);
type = Stem;
},
{
place = (372, 78);
place = (372, 78);
type = Stem;
},
{
place = (513, 90);
place = (513, 90);
type = Stem;
}
);
layerId = m01;
shapes = (
{
closed = 1;
nodes = (
(482,-11,o),
(603,58,o),
(603,231,cs),
(603,715,l),
(513,715,l),
(513,240,ls),
(513,118,o),
(445,66,o),
(332,66,cs),
(214,66,o),
(145,118,o),
(145,240,cs),
(145,715,l),
(55,715,l),
(55,231,ls),
(55,58,o),
(173,-11,o),
(329,-11,cs)
);
},
{
closed = 1;
nodes = (
(372,760,l),
(450,760,l),
(450,855,l),
(372,855,l)
);
},
{
closed = 1;
nodes = (
(208,760,l),
(286,760,l),
(286,855,l),
(208,855,l)
);
}
);
width = 658;
}
);
note = Udieresis;
unicode = 220;
},
{
glyphname = aacute;
kernLeft = a;
kernRight = a;
layers = (
{
hints = (
{
horizontal = 1;
place = (-5, 21);
target = up;
type = BottomGhost;
},
{
horizontal = 1;
place = (466, 61);
place = (466, 61);
type = Stem;
},
{
horizontal = 1;
place = (598, 127);
place = (598, 127);
type = Stem;
},
{
place = (24, 86);
place = (24, 86);
type = Stem;
},
{
place = (374, 73);
place = (374, 73);
type = Stem;
},
{
horizontal = 1;
place = (-10, 62);
place = (-10, 62);
type = Stem;
}
);
layerId = m01;
shapes = (
{
closed = 1;
nodes = (
(482,-5,o),
(495,-1,o),
(505,3,c),
(505,62,l),
(502,62,l),
(457,52,o),
(447,75,o),
(447,117,cs),
(447,363,ls),
(447,486,o),
(366,527,o),
(256,527,cs),
(119,527,o),
(53,452,o),
(50,352,c),
(128,352,l),
(131,430,o),
(173,466,o),
(257,466,cs),
(331,466,o),
(373,433,o),
(373,375,cs),
(373,319,o),
(322,312,o),
(249,301,cs),
(120,281,o),
(24,256,o),
(24,134,cs),
(24,36,o),
(101,-10,o),
(199,-10,cs),
(287,-10,o),
(340,32,o),
(371,72,c),
(372,72,l),
(380,19,o),
(408,-5,o),
(461,-5,cs)
);
},
{
closed = 1;
nodes = (
(164,52,o),
(110,67,o),
(110,136,cs),
(110,212,o),
(175,226,o),
(256,241,cs),
(300,249,o),
(347,262,o),
(374,279,c),
(374,191,ls),
(374,131,o),
(325,52,o),
(217,52,cs)
);
},
{
closed = 1;
nodes = (
(224,598,l),
(293,598,l),
(375,725,l),
(275,725,l)
);
}
);
width = 510;
}
);
note = aacute;
unicode = 225;
},
{
glyphname = agrave;
kernLeft = a;
kernRight = a;
layers = (
{
hints = (
{
horizontal = 1;
place = (-5, 21);
target = up;
type = BottomGhost;
},
{
horizontal = 1;
place = (466, 61);
place = (466, 61);
type = Stem;
},
{
horizontal = 1;
place = (598, 127);
place = (598, 127);
type = Stem;
},
{
place = (24, 86);
place = (24, 86);
type = Stem;
},
{
place = (374, 73);
place = (374, 73);
type = Stem;
},
{
horizontal = 1;
place = (-10, 62);
place = (-10, 62);
type = Stem;
}
);
layerId = m01;
shapes = (
{
closed = 1;
nodes = (
(482,-5,o),
(495,-1,o),
(505,3,c),
(505,62,l),
(502,62,l),
(457,52,o),
(447,75,o),
(447,117,cs),
(447,363,ls),
(447,486,o),
(366,527,o),
(256,527,cs),
(119,527,o),
(53,452,o),
(50,352,c),
(128,352,l),
(131,430,o),
(173,466,o),
(257,466,cs),
(331,466,o),
(373,433,o),
(373,375,cs),
(373,319,o),
(322,312,o),
(249,301,cs),
(120,281,o),
(24,256,o),
(24,134,cs),
(24,36,o),
(101,-10,o),
(199,-10,cs),
(287,-10,o),
(340,32,o),
(371,72,c),
(372,72,l),
(380,19,o),
(408,-5,o),
(461,-5,cs)
);
},
{
closed = 1;
nodes = (
(164,52,o),
(110,67,o),
(110,136,cs),
(110,212,o),
(175,226,o),
(256,241,cs),
(300,249,o),
(347,262,o),
(374,279,c),
(374,191,ls),
(374,131,o),
(325,52,o),
(217,52,cs)
);
},
{
closed = 1;
nodes = (
(230,598,l),
(299,598,l),
(248,725,l),
(148,725,l)
);
}
);
width = 510;
}
);
note = agrave;
unicode = 224;
},
{
glyphname = acircumflex;
kernLeft = a;
kernRight = a;
layers = (
{
hints = (
{
horizontal = 1;
place = (-5, 21);
target = up;
type = BottomGhost;
},
{
horizontal = 1;
place = (466, 61);
place = (466, 61);
type = Stem;
},
{
horizontal = 1;
place = (602, 106);
place = (602, 106);
type = Stem;
},
{
place = (24, 86);
place = (24, 86);
type = Stem;
},
{
place = (374, 73);
place = (374, 73);
type = Stem;
},
{
horizontal = 1;
place = (-10, 62);
place = (-10, 62);
type = Stem;
}
);
layerId = m01;
shapes = (
{
closed = 1;
nodes = (
(482,-5,o),
(495,-1,o),
(505,3,c),
(505,62,l),
(502,62,l),
(457,52,o),
(447,75,o),
(447,117,cs),
(447,363,ls),
(447,486,o),
(366,527,o),
(256,527,cs),
(119,527,o),
(53,452,o),
(50,352,c),
(128,352,l),
(131,430,o),
(173,466,o),
(257,466,cs),
(331,466,o),
(373,433,o),
(373,375,cs),
(373,319,o),
(322,312,o),
(249,301,cs),
(120,281,o),
(24,256,o),
(24,134,cs),
(24,36,o),
(101,-10,o),
(199,-10,cs),
(287,-10,o),
(340,32,o),
(371,72,c),
(372,72,l),
(380,19,o),
(408,-5,o),
(461,-5,cs)
);
},
{
closed = 1;
nodes = (
(164,52,o),
(110,67,o),
(110,136,cs),
(110,212,o),
(175,226,o),
(256,241,cs),
(300,249,o),
(347,262,o),
(374,279,c),
(374,191,ls),
(374,131,o),
(325,52,o),
(217,52,cs)
);
},
{
closed = 1;
nodes = (
(119,602,l),
(204,602,l),
(255,665,l),
(257,665,l),
(306,602,l),
(393,602,l),
(304,708,l),
(212,708,l)
);
}
);
width = 510;
}
);
note = acircumflex;
unicode = 226;
},
{
glyphname = adieresis;
kernLeft = a;
kernRight = a;
layers = (
{
hints = (
{
horizontal = 1;
place = (-5, 21);
target = up;
type = BottomGhost;
},
{
horizontal = 1;
place = (466, 61);
place = (466, 61);
type = Stem;
},
{
horizontal = 1;
place = (615, 95);
place = (615, 95);
type = Stem;
},
{
place = (24, 86);
place = (24, 86);
type = Stem;
},
{
place = (135, 78);
place = (135, 78);
type = Stem;
},
{
place = (374, 73);
place = (374, 73);
type = Stem;
},
{
horizontal = 1;
place = (-10, 62);
place = (-10, 62);
type = Stem;
},
{
place = (299, 78);
place = (299, 78);
type = Stem;
}
);
layerId = m01;
shapes = (
{
closed = 1;
nodes = (
(482,-5,o),
(495,-1,o),
(505,3,c),
(505,62,l),
(502,62,l),
(457,52,o),
(447,75,o),
(447,117,cs),
(447,363,ls),
(447,486,o),
(366,527,o),
(256,527,cs),
(119,527,o),
(53,452,o),
(50,352,c),
(128,352,l),
(131,430,o),
(173,466,o),
(257,466,cs),
(331,466,o),
(373,433,o),
(373,375,cs),
(373,319,o),
(322,312,o),
(249,301,cs),
(120,281,o),
(24,256,o),
(24,134,cs),
(24,36,o),
(101,-10,o),
(199,-10,cs),
(287,-10,o),
(340,32,o),
(371,72,c),
(372,72,l),
(380,19,o),
(408,-5,o),
(461,-5,cs)
);
},
{
closed = 1;
nodes = (
(164,52,o),
(110,67,o),
(110,136,cs),
(110,212,o),
(175,226,o),
(256,241,cs),
(300,249,o),
(347,262,o),
(374,279,c),
(374,191,ls),
(374,131,o),
(325,52,o),
(217,52,cs)
);
},
{
closed = 1;
nodes = (
(299,615,l),
(377,615,l),
(377,710,l),
(299,710,l)
);
},
{
closed = 1;
nodes = (
(135,615,l),
(213,615,l),
(213,710,l),
(135,710,l)
);
}
);
width = 510;
}
);
note = adieresis;
unicode = 228;
},
{
glyphname = atilde;
kernLeft = a;
kernRight = a;
layers = (
{
hints = (
{
horizontal = 1;
place = (-5, 21);
target = up;
type = BottomGhost;
},
{
horizontal = 1;
place = (466, 61);
place = (466, 61);
type = Stem;
},
{
horizontal = 1;
place = (633, 62);
place = (633, 62);
type = Stem;
},
{
place = (24, 86);
place = (24, 86);
type = Stem;
},
{
place = (374, 73);
place = (374, 73);
type = Stem;
},
{
horizontal = 1;
place = (-10, 62);
place = (-10, 62);
type = Stem;
},
{
horizontal = 1;
place = (601, 92);
place = (601, 92);
type = Stem;
},
{
place = (338, 58);
place = (338, 58);
type = Stem;
},
{
horizontal = 1;
place = (601, 62);
place = (601, 62);
type = Stem;
},
{
place = (117, 60);
place = (117, 60);
type = Stem;
},
{
horizontal = 1;
place = (603, 92);
place = (603, 92);
type = Stem;
}
);
layerId = m01;
shapes = (
{
closed = 1;
nodes = (
(482,-5,o),
(495,-1,o),
(505,3,c),
(505,62,l),
(502,62,l),
(457,52,o),
(447,75,o),
(447,117,cs),
(447,363,ls),
(447,486,o),
(366,527,o),
(256,527,cs),
(119,527,o),
(53,452,o),
(50,352,c),
(128,352,l),
(131,430,o),
(173,466,o),
(257,466,cs),
(331,466,o),
(373,433,o),
(373,375,cs),
(373,319,o),
(322,312,o),
(249,301,cs),
(120,281,o),
(24,256,o),
(24,134,cs),
(24,36,o),
(101,-10,o),
(199,-10,cs),
(287,-10,o),
(340,32,o),
(371,72,c),
(372,72,l),
(380,19,o),
(408,-5,o),
(461,-5,cs)
);
},
{
closed = 1;
nodes = (
(164,52,o),
(110,67,o),
(110,136,cs),
(110,212,o),
(175,226,o),
(256,241,cs),
(300,249,o),
(347,262,o),
(374,279,c),
(374,191,ls),
(374,131,o),
(325,52,o),
(217,52,cs)
);
},
{
closed = 1;
nodes = (
(372,601,o),
(393,642,o),
(396,693,c),
(338,693,l),
(336,677,o),
(330,663,o),
(311,663,cs),
(274,663,o),
(248,695,o),
(194,695,cs),
(147,695,o),
(122,660,o),
(117,603,c),
(177,603,l),
(178,621,o),
(186,633,o),
(200,633,cs),
(227,633,o),
(272,601,o),
(320,601,cs)
);
}
);
width = 510;
}
);
note = atilde;
unicode = 227;
},
{
glyphname = aring;
kernLeft = a;
kernRight = a;
layers = (
{
hints = (
{
horizontal = 1;
place = (-5, 21);
target = up;
type = BottomGhost;
},
{
horizontal = 1;
place = (466, 61);
place = (466, 61);
type = Stem;
},
{
horizontal = 1;
place = (559, 35);
place = (559, 35);
type = Stem;
},
{
horizontal = 1;
place = (694, 35);
place = (694, 35);
type = Stem;
},
{
place = (24, 86);
place = (24, 86);
type = Stem;
},
{
place = (169, 40);
place = (169, 40);
type = Stem;
},
{
place = (303, 40);
place = (303, 40);
type = Stem;
},
{
place = (374, 73);
place = (374, 73);
type = Stem;
},
{
horizontal = 1;
place = (-10, 62);
place = (-10, 62);
type = Stem;
}
);
layerId = m01;
shapes = (
{
closed = 1;
nodes = (
(482,-5,o),
(495,-1,o),
(505,3,c),
(505,62,l),
(502,62,l),
(457,52,o),
(447,75,o),
(447,117,cs),
(447,363,ls),
(447,486,o),
(366,527,o),
(256,527,cs),
(119,527,o),
(53,452,o),
(50,352,c),
(128,352,l),
(131,430,o),
(173,466,o),
(257,466,cs),
(331,466,o),
(373,433,o),
(373,375,cs),
(373,319,o),
(322,312,o),
(249,301,cs),
(120,281,o),
(24,256,o),
(24,134,cs),
(24,36,o),
(101,-10,o),
(199,-10,cs),
(287,-10,o),
(340,32,o),
(371,72,c),
(372,72,l),
(380,19,o),
(408,-5,o),
(461,-5,cs)
);
},
{
closed = 1;
nodes = (
(164,52,o),
(110,67,o),
(110,136,cs),
(110,212,o),
(175,226,o),
(256,241,cs),
(300,249,o),
(347,262,o),
(374,279,c),
(374,191,ls),
(374,131,o),
(325,52,o),
(217,52,cs)
);
},
{
closed = 1;
nodes = (
(304,559,o),
(343,597,o),
(343,644,cs),
(343,691,o),
(304,729,o),
(256,729,cs),
(208,729,o),
(169,691,o),
(169,644,cs),
(169,597,o),
(208,559,o),
(256,559,cs)
);
},
{
closed = 1;
nodes = (
(228,594,o),
(209,616,o),
(209,644,cs),
(209,672,o),
(228,694,o),
(256,694,cs),
(284,694,o),
(303,672,o),
(303,644,cs),
(303,616,o),
(284,594,o),
(256,594,cs)
);
}
);
width = 510;
}
);
note = aring;
unicode = 229;
},
{
glyphname = ccedilla;
kernLeft = c;
kernRight = c;
layers = (
{
hints = (
{
horizontal = 1;
place = (-191, 43);
place = (-191, 43);
type = Stem;
},
{
horizontal = 1;
place = (-88, 37);
place = (-88, 37);
type = Stem;
},
{
horizontal = 1;
place = (-13, 67);
place = (-13, 67);
type = Stem;
},
{
horizontal = 1;
place = (463, 67);
place = (463, 67);
type = Stem;
},
{
place = (26, 83);
place = (26, 83);
type = Stem;
},
{
place = (291, 65);
place = (291, 65);
type = Stem;
},
{
horizontal = 1;
place = (-162, 21);
target = up;
type = BottomGhost;
}
);
layerId = m01;
shapes = (
{
closed = 1;
nodes = (
(313,-191,o),
(356,-163,o),
(356,-115,cs),
(356,-61,o),
(301,-46,o),
(264,-51,c),
(264,-49,l),
(308,-12,l),
(418,-1,o),
(487,68,o),
(497,182,c),
(417,182,l),
(410,102,o),
(360,54,o),
(276,54,cs),
(166,54,o),
(109,144,o),
(109,258,cs),
(109,372,o),
(166,463,o),
(276,463,cs),
(354,463,o),
(403,420,o),
(415,350,c),
(497,350,l),
(479,460,o),
(398,530,o),
(276,530,cs),
(122,530,o),
(26,408,o),
(26,258,cs),
(26,115,o),
(113,-2,o),
(254,-13,c),
(196,-71,l),
(212,-95,l),
(224,-91,o),
(235,-88,o),
(253,-88,cs),
(277,-88,o),
(291,-97,o),
(291,-116,cs),
(291,-138,o),
(266,-148,o),
(233,-148,cs),
(208,-148,o),
(182,-142,o),
(161,-133,c),
(145,-162,l),
(169,-178,o),
(203,-191,o),
(252,-191,cs)
);
}
);
width = 519;
}
);
note = ccedilla;
unicode = 231;
},
{
glyphname = eacute;
kernLeft = c;
kernRight = e;
layers = (
{
hints = (
{
horizontal = 1;
place = (-14, 68);
place = (-14, 68);
type = Stem;
},
{
horizontal = 1;
place = (239, 61);
place = (239, 61);
type = Stem;
},
{
horizontal = 1;
place = (466, 64);
place = (466, 64);
type = Stem;
},
{
horizontal = 1;
place = (598, 127);
place = (598, 127);
type = Stem;
},
{
place = (26, 83);
place = (26, 83);
type = Stem;
},
{
place = (422, 87);
place = (422, 87);
type = Stem;
}
);
layerId = m01;
shapes = (
{
closed = 1;
nodes = (
(393,-14,o),
(474,49,o),
(498,160,c),
(419,160,l),
(401,90,o),
(351,54,o),
(276,54,cs),
(172,54,o),
(115,134,o),
(109,239,c),
(509,239,l),
(509,410,o),
(426,530,o),
(271,530,cs),
(124,530,o),
(26,408,o),
(26,258,cs),
(26,108,o),
(118,-14,o),
(276,-14,cs)
);
},
{
closed = 1;
nodes = (
(364,466,o),
(417,403,o),
(422,300,c),
(111,300,l),
(123,394,o),
(175,466,o),
(271,466,cs)
);
},
{
closed = 1;
nodes = (
(239,598,l),
(308,598,l),
(390,725,l),
(290,725,l)
);
}
);
width = 533;
}
);
note = eacute;
unicode = 233;
},
{
glyphname = egrave;
kernLeft = c;
kernRight = e;
layers = (
{
hints = (
{
horizontal = 1;
place = (-14, 68);
place = (-14, 68);
type = Stem;
},
{
horizontal = 1;
place = (239, 61);
place = (239, 61);
type = Stem;
},
{
horizontal = 1;
place = (466, 64);
place = (466, 64);
type = Stem;
},
{
horizontal = 1;
place = (598, 127);
place = (598, 127);
type = Stem;
},
{
place = (26, 83);
place = (26, 83);
type = Stem;
},
{
place = (422, 87);
place = (422, 87);
type = Stem;
}
);
layerId = m01;
shapes = (
{
closed = 1;
nodes = (
(393,-14,o),
(474,49,o),
(498,160,c),
(419,160,l),
(401,90,o),
(351,54,o),
(276,54,cs),
(172,54,o),
(115,134,o),
(109,239,c),
(509,239,l),
(509,410,o),
(426,530,o),
(271,530,cs),
(124,530,o),
(26,408,o),
(26,258,cs),
(26,108,o),
(118,-14,o),
(276,-14,cs)
);
},
{
closed = 1;
nodes = (
(364,466,o),
(417,403,o),
(422,300,c),
(111,300,l),
(123,394,o),
(175,466,o),
(271,466,cs)
);
},
{
closed = 1;
nodes = (
(245,598,l),
(314,598,l),
(263,725,l),
(163,725,l)
);
}
);
width = 533;
}
);
note = egrave;
unicode = 232;
},
{
glyphname = ecircumflex;
kernLeft = c;
kernRight = e;
layers = (
{
hints = (
{
horizontal = 1;
place = (-14, 68);
place = (-14, 68);
type = Stem;
},
{
horizontal = 1;
place = (239, 61);
place = (239, 61);
type = Stem;
},
{
horizontal = 1;
place = (466, 64);
place = (466, 64);
type = Stem;
},
{
horizontal = 1;
place = (602, 106);
place = (602, 106);
type = Stem;
},
{
place = (26, 83);
place = (26, 83);
type = Stem;
},
{
place = (422, 87);
place = (422, 87);
type = Stem;
}
);
layerId = m01;
shapes = (
{
closed = 1;
nodes = (
(393,-14,o),
(474,49,o),
(498,160,c),
(419,160,l),
(401,90,o),
(351,54,o),
(276,54,cs),
(172,54,o),
(115,134,o),
(109,239,c),
(509,239,l),
(509,410,o),
(426,530,o),
(271,530,cs),
(124,530,o),
(26,408,o),
(26,258,cs),
(26,108,o),
(118,-14,o),
(276,-14,cs)
);
},
{
closed = 1;
nodes = (
(364,466,o),
(417,403,o),
(422,300,c),
(111,300,l),
(123,394,o),
(175,466,o),
(271,466,cs)
);
},
{
closed = 1;
nodes = (
(134,602,l),
(219,602,l),
(270,665,l),
(272,665,l),
(321,602,l),
(408,602,l),
(319,708,l),
(227,708,l)
);
}
);
width = 533;
}
);
note = ecircumflex;
unicode = 234;
},
{
glyphname = edieresis;
kernLeft = c;
kernRight = e;
layers = (
{
hints = (
{
horizontal = 1;
place = (-14, 68);
place = (-14, 68);
type = Stem;
},
{
horizontal = 1;
place = (239, 61);
place = (239, 61);
type = Stem;
},
{
horizontal = 1;
place = (466, 64);
place = (466, 64);
type = Stem;
},
{
horizontal = 1;
place = (615, 95);
place = (615, 95);
type = Stem;
},
{
place = (26, 83);
place = (26, 83);
type = Stem;
},
{
place = (150, 78);
place = (150, 78);
type = Stem;
},
{
place = (314, 78);
place = (314, 78);
type = Stem;
},
{
place = (422, 87);
place = (422, 87);
type = Stem;
}
);
layerId = m01;
shapes = (
{
closed = 1;
nodes = (
(393,-14,o),
(474,49,o),
(498,160,c),
(419,160,l),
(401,90,o),
(351,54,o),
(276,54,cs),
(172,54,o),
(115,134,o),
(109,239,c),
(509,239,l),
(509,410,o),
(426,530,o),
(271,530,cs),
(124,530,o),
(26,408,o),
(26,258,cs),
(26,108,o),
(118,-14,o),
(276,-14,cs)
);
},
{
closed = 1;
nodes = (
(364,466,o),
(417,403,o),
(422,300,c),
(111,300,l),
(123,394,o),
(175,466,o),
(271,466,cs)
);
},
{
closed = 1;
nodes = (
(314,615,l),
(392,615,l),
(392,710,l),
(314,710,l)
);
},
{
closed = 1;
nodes = (
(150,615,l),
(228,615,l),
(228,710,l),
(150,710,l)
);
}
);
width = 533;
}
);
note = edieresis;
unicode = 235;
},
{
glyphname = iacute;
kernLeft = b;
kernRight = d;
layers = (
{
hints = (
{
horizontal = 1;
place = (0, 21);
target = up;
type = BottomGhost;
},
{
horizontal = 1;
place = (517, -20);
target = down;
type = TopGhost;
},
{
horizontal = 1;
place = (598, 127);
place = (598, 127);
type = Stem;
},
{
place = (55, 81);
place = (55, 81);
type = Stem;
}
);
layerId = m01;
shapes = (
{
closed = 1;
nodes = (
(63,598,l),
(131,598,l),
(208,725,l),
(109,725,l)
);
},
{
closed = 1;
nodes = (
(55,0,l),
(136,0,l),
(136,517,l),
(55,517,l)
);
}
);
width = 191;
}
);
note = iacute;
unicode = 237;
},
{
glyphname = igrave;
kernLeft = b;
kernRight = d;
layers = (
{
hints = (
{
horizontal = 1;
place = (0, 21);
target = up;
type = BottomGhost;
},
{
horizontal = 1;
place = (517, -20);
target = down;
type = TopGhost;
},
{
horizontal = 1;
place = (598, 127);
place = (598, 127);
type = Stem;
},
{
place = (55, 81);
place = (55, 81);
type = Stem;
}
);
layerId = m01;
shapes = (
{
closed = 1;
nodes = (
(55,0,l),
(136,0,l),
(136,517,l),
(55,517,l)
);
},
{
closed = 1;
nodes = (
(92,725,l),
(-7,725,l),
(70,598,l),
(138,598,l)
);
}
);
width = 191;
}
);
note = igrave;
unicode = 236;
},
{
glyphname = icircumflex;
kernLeft = b;
kernRight = d;
layers = (
{
hints = (
{
horizontal = 1;
place = (0, 21);
target = up;
type = BottomGhost;
},
{
horizontal = 1;
place = (517, -20);
target = down;
type = TopGhost;
},
{
horizontal = 1;
place = (602, 106);
place = (602, 106);
type = Stem;
},
{
place = (55, 81);
place = (55, 81);
type = Stem;
}
);
layerId = m01;
shapes = (
{
closed = 1;
nodes = (
(-27,602,l),
(53,602,l),
(94,663,l),
(96,663,l),
(135,602,l),
(217,602,l),
(143,708,l),
(51,708,l)
);
},
{
closed = 1;
nodes = (
(55,0,l),
(136,0,l),
(136,517,l),
(55,517,l)
);
}
);
width = 191;
}
);
note = icircumflex;
unicode = 238;
},
{
glyphname = idieresis;
kernLeft = b;
kernRight = d;
layers = (
{
hints = (
{
horizontal = 1;
place = (0, 21);
target = up;
type = BottomGhost;
},
{
horizontal = 1;
place = (517, -20);
target = down;
type = TopGhost;
},
{
horizontal = 1;
place = (615, 95);
place = (615, 95);
type = Stem;
},
{
place = (-12, 78);
place = (-12, 78);
type = Stem;
},
{
place = (124, 78);
place = (124, 78);
type = Stem;
},
{
place = (55, 81);
place = (55, 81);
type = Stem;
}
);
layerId = m01;
shapes = (
{
closed = 1;
nodes = (
(124,615,l),
(202,615,l),
(202,710,l),
(124,710,l)
);
},
{
closed = 1;
nodes = (
(-12,615,l),
(66,615,l),
(66,710,l),
(-12,710,l)
);
},
{
closed = 1;
nodes = (
(55,0,l),
(136,0,l),
(136,517,l),
(55,517,l)
);
}
);
width = 191;
}
);
note = idieresis;
unicode = 239;
},
{
glyphname = ntilde;
kernLeft = m;
kernRight = h;
layers = (
{
hints = (
{
horizontal = 1;
place = (0, 21);
target = up;
type = BottomGhost;
},
{
horizontal = 1;
place = (517, -20);
target = down;
type = TopGhost;
},
{
horizontal = 1;
place = (633, 62);
place = (633, 62);
type = Stem;
},
{
place = (55, 81);
place = (55, 81);
type = Stem;
},
{
place = (395, 81);
place = (395, 81);
type = Stem;
},
{
horizontal = 1;
place = (461, 68);
place = (461, 68);
type = Stem;
},
{
horizontal = 1;
place = (601, 92);
place = (601, 92);
type = Stem;
},
{
place = (347, 58);
place = (347, 58);
type = Stem;
},
{
horizontal = 1;
place = (601, 62);
place = (601, 62);
type = Stem;
},
{
place = (126, 60);
place = (126, 60);
type = Stem;
},
{
horizontal = 1;
place = (603, 92);
place = (603, 92);
type = Stem;
}
);
layerId = m01;
shapes = (
{
closed = 1;
nodes = (
(136,517,l),
(55,517,l),
(55,0,l),
(136,0,l),
(136,318,ls),
(136,403,o),
(196,461,o),
(278,461,cs),
(351,461,o),
(395,423,o),
(395,356,cs),
(395,0,l),
(476,0,l),
(476,363,ls),
(476,470,o),
(410,529,o),
(302,529,cs),
(227,529,o),
(175,498,o),
(138,449,c),
(136,449,l)
);
},
{
closed = 1;
nodes = (
(381,601,o),
(402,642,o),
(405,693,c),
(347,693,l),
(345,677,o),
(339,663,o),
(320,663,cs),
(283,663,o),
(257,695,o),
(203,695,cs),
(156,695,o),
(131,660,o),
(126,603,c),
(186,603,l),
(187,621,o),
(195,633,o),
(209,633,cs),
(236,633,o),
(281,601,o),
(329,601,cs)
);
}
);
width = 528;
}
);
note = ntilde;
unicode = 241;
},
{
glyphname = oacute;
kernLeft = c;
kernRight = o;
layers = (
{
hints = (
{
horizontal = 1;
place = (-14, 68);
place = (-14, 68);
type = Stem;
},
{
horizontal = 1;
place = (463, 67);
place = (463, 67);
type = Stem;
},
{
horizontal = 1;
place = (598, 127);
place = (598, 127);
type = Stem;
},
{
place = (26, 83);
place = (26, 83);
type = Stem;
},
{
place = (442, 83);
place = (442, 83);
type = Stem;
}
);
layerId = m01;
shapes = (
{
closed = 1;
nodes = (
(431,-14,o),
(525,108,o),
(525,258,cs),
(525,408,o),
(431,530,o),
(276,530,cs),
(122,530,o),
(26,408,o),
(26,258,cs),
(26,108,o),
(122,-14,o),
(276,-14,cs)
);
},
{
closed = 1;
nodes = (
(166,54,o),
(109,144,o),
(109,258,cs),
(109,372,o),
(166,463,o),
(276,463,cs),
(386,463,o),
(442,372,o),
(442,258,cs),
(442,144,o),
(386,54,o),
(276,54,cs)
);
},
{
closed = 1;
nodes = (
(243,598,l),
(312,598,l),
(394,725,l),
(294,725,l)
);
}
);
width = 551;
}
);
note = oacute;
unicode = 243;
},
{
glyphname = ograve;
kernLeft = c;
kernRight = o;
layers = (
{
hints = (
{
horizontal = 1;
place = (-14, 68);
place = (-14, 68);
type = Stem;
},
{
horizontal = 1;
place = (463, 67);
place = (463, 67);
type = Stem;
},
{
horizontal = 1;
place = (598, 127);
place = (598, 127);
type = Stem;
},
{
place = (26, 83);
place = (26, 83);
type = Stem;
},
{
place = (442, 83);
place = (442, 83);
type = Stem;
}
);
layerId = m01;
shapes = (
{
closed = 1;
nodes = (
(431,-14,o),
(525,108,o),
(525,258,cs),
(525,408,o),
(431,530,o),
(276,530,cs),
(122,530,o),
(26,408,o),
(26,258,cs),
(26,108,o),
(122,-14,o),
(276,-14,cs)
);
},
{
closed = 1;
nodes = (
(166,54,o),
(109,144,o),
(109,258,cs),
(109,372,o),
(166,463,o),
(276,463,cs),
(386,463,o),
(442,372,o),
(442,258,cs),
(442,144,o),
(386,54,o),
(276,54,cs)
);
},
{
closed = 1;
nodes = (
(249,598,l),
(318,598,l),
(267,725,l),
(167,725,l)
);
}
);
width = 551;
}
);
note = ograve;
unicode = 242;
},
{
glyphname = ocircumflex;
kernLeft = c;
kernRight = o;
layers = (
{
hints = (
{
horizontal = 1;
place = (-14, 68);
place = (-14, 68);
type = Stem;
},
{
horizontal = 1;
place = (463, 67);
place = (463, 67);
type = Stem;
},
{
horizontal = 1;
place = (602, 106);
place = (602, 106);
type = Stem;
},
{
place = (26, 83);
place = (26, 83);
type = Stem;
},
{
place = (442, 83);
place = (442, 83);
type = Stem;
}
);
layerId = m01;
shapes = (
{
closed = 1;
nodes = (
(431,-14,o),
(525,108,o),
(525,258,cs),
(525,408,o),
(431,530,o),
(276,530,cs),
(122,530,o),
(26,408,o),
(26,258,cs),
(26,108,o),
(122,-14,o),
(276,-14,cs)
);
},
{
closed = 1;
nodes = (
(166,54,o),
(109,144,o),
(109,258,cs),
(109,372,o),
(166,463,o),
(276,463,cs),
(386,463,o),
(442,372,o),
(442,258,cs),
(442,144,o),
(386,54,o),
(276,54,cs)
);
},
{
closed = 1;
nodes = (
(138,602,l),
(223,602,l),
(274,665,l),
(276,665,l),
(325,602,l),
(412,602,l),
(323,708,l),
(231,708,l)
);
}
);
width = 551;
}
);
note = ocircumflex;
unicode = 244;
},
{
glyphname = odieresis;
kernLeft = c;
kernRight = o;
layers = (
{
hints = (
{
horizontal = 1;
place = (-14, 68);
place = (-14, 68);
type = Stem;
},
{
horizontal = 1;
place = (463, 67);
place = (463, 67);
type = Stem;
},
{
horizontal = 1;
place = (615, 95);
place = (615, 95);
type = Stem;
},
{
place = (26, 83);
place = (26, 83);
type = Stem;
},
{
place = (154, 78);
place = (154, 78);
type = Stem;
},
{
place = (318, 78);
place = (318, 78);
type = Stem;
},
{
place = (442, 83);
place = (442, 83);
type = Stem;
}
);
layerId = m01;
shapes = (
{
closed = 1;
nodes = (
(431,-14,o),
(525,108,o),
(525,258,cs),
(525,408,o),
(431,530,o),
(276,530,cs),
(122,530,o),
(26,408,o),
(26,258,cs),
(26,108,o),
(122,-14,o),
(276,-14,cs)
);
},
{
closed = 1;
nodes = (
(166,54,o),
(109,144,o),
(109,258,cs),
(109,372,o),
(166,463,o),
(276,463,cs),
(386,463,o),
(442,372,o),
(442,258,cs),
(442,144,o),
(386,54,o),
(276,54,cs)
);
},
{
closed = 1;
nodes = (
(318,615,l),
(396,615,l),
(396,710,l),
(318,710,l)
);
},
{
closed = 1;
nodes = (
(154,615,l),
(232,615,l),
(232,710,l),
(154,710,l)
);
}
);
width = 551;
}
);
note = odieresis;
unicode = 246;
},
{
glyphname = otilde;
kernLeft = c;
kernRight = o;
layers = (
{
hints = (
{
horizontal = 1;
place = (-14, 68);
place = (-14, 68);
type = Stem;
},
{
horizontal = 1;
place = (463, 67);
place = (463, 67);
type = Stem;
},
{
horizontal = 1;
place = (633, 62);
place = (633, 62);
type = Stem;
},
{
place = (26, 83);
place = (26, 83);
type = Stem;
},
{
place = (442, 83);
place = (442, 83);
type = Stem;
},
{
horizontal = 1;
place = (601, 92);
place = (601, 92);
type = Stem;
},
{
place = (357, 58);
place = (357, 58);
type = Stem;
},
{
horizontal = 1;
place = (601, 62);
place = (601, 62);
type = Stem;
},
{
place = (136, 60);
place = (136, 60);
type = Stem;
},
{
horizontal = 1;
place = (603, 92);
place = (603, 92);
type = Stem;
}
);
layerId = m01;
shapes = (
{
closed = 1;
nodes = (
(431,-14,o),
(525,108,o),
(525,258,cs),
(525,408,o),
(431,530,o),
(276,530,cs),
(122,530,o),
(26,408,o),
(26,258,cs),
(26,108,o),
(122,-14,o),
(276,-14,cs)
);
},
{
closed = 1;
nodes = (
(166,54,o),
(109,144,o),
(109,258,cs),
(109,372,o),
(166,463,o),
(276,463,cs),
(386,463,o),
(442,372,o),
(442,258,cs),
(442,144,o),
(386,54,o),
(276,54,cs)
);
},
{
closed = 1;
nodes = (
(391,601,o),
(412,642,o),
(415,693,c),
(357,693,l),
(355,677,o),
(349,663,o),
(330,663,cs),
(293,663,o),
(267,695,o),
(213,695,cs),
(166,695,o),
(141,660,o),
(136,603,c),
(196,603,l),
(197,621,o),
(205,633,o),
(219,633,cs),
(246,633,o),
(291,601,o),
(339,601,cs)
);
}
);
width = 551;
}
);
note = otilde;
unicode = 245;
},
{
glyphname = uacute;
kernLeft = u;
kernRight = u;
layers = (
{
hints = (
{
horizontal = 1;
place = (0, 55);
place = (0, 55);
type = Stem;
},
{
horizontal = 1;
place = (517, -20);
target = down;
type = TopGhost;
},
{
horizontal = 1;
place = (598, 127);
place = (598, 127);
type = Stem;
},
{
place = (52, 81);
place = (52, 81);
type = Stem;
},
{
place = (384, 81);
place = (384, 81);
type = Stem;
},
{
horizontal = 1;
place = (-12, 67);
place = (-12, 67);
type = Stem;
}
);
layerId = m01;
shapes = (
{
closed = 1;
nodes = (
(465,0,l),
(465,517,l),
(384,517,l),
(384,199,ls),
(384,117,o),
(331,55,o),
(249,55,cs),
(176,55,o),
(133,94,o),
(133,161,cs),
(133,517,l),
(52,517,l),
(52,159,ls),
(52,52,o),
(120,-12,o),
(226,-12,cs),
(301,-12,o),
(345,21,o),
(382,71,c),
(384,71,l),
(384,0,l)
);
},
{
closed = 1;
nodes = (
(230,598,l),
(299,598,l),
(381,725,l),
(281,725,l)
);
}
);
width = 520;
}
);
note = uacute;
unicode = 250;
},
{
glyphname = ugrave;
kernLeft = u;
kernRight = u;
layers = (
{
hints = (
{
horizontal = 1;
place = (0, 55);
place = (0, 55);
type = Stem;
},
{
horizontal = 1;
place = (517, -20);
target = down;
type = TopGhost;
},
{
horizontal = 1;
place = (598, 127);
place = (598, 127);
type = Stem;
},
{
place = (52, 81);
place = (52, 81);
type = Stem;
},
{
place = (384, 81);
place = (384, 81);
type = Stem;
},
{
horizontal = 1;
place = (-12, 67);
place = (-12, 67);
type = Stem;
}
);
layerId = m01;
shapes = (
{
closed = 1;
nodes = (
(465,0,l),
(465,517,l),
(384,517,l),
(384,199,ls),
(384,117,o),
(331,55,o),
(249,55,cs),
(176,55,o),
(133,94,o),
(133,161,cs),
(133,517,l),
(52,517,l),
(52,159,ls),
(52,52,o),
(120,-12,o),
(226,-12,cs),
(301,-12,o),
(345,21,o),
(382,71,c),
(384,71,l),
(384,0,l)
);
},
{
closed = 1;
nodes = (
(236,598,l),
(305,598,l),
(254,725,l),
(154,725,l)
);
}
);
width = 520;
}
);
note = ugrave;
unicode = 249;
},
{
glyphname = ucircumflex;
kernLeft = u;
kernRight = u;
layers = (
{
hints = (
{
horizontal = 1;
place = (0, 55);
place = (0, 55);
type = Stem;
},
{
horizontal = 1;
place = (517, -20);
target = down;
type = TopGhost;
},
{
horizontal = 1;
place = (602, 106);
place = (602, 106);
type = Stem;
},
{
place = (52, 81);
place = (52, 81);
type = Stem;
},
{
place = (384, 81);
place = (384, 81);
type = Stem;
},
{
horizontal = 1;
place = (-12, 67);
place = (-12, 67);
type = Stem;
}
);
layerId = m01;
shapes = (
{
closed = 1;
nodes = (
(465,0,l),
(465,517,l),
(384,517,l),
(384,199,ls),
(384,117,o),
(331,55,o),
(249,55,cs),
(176,55,o),
(133,94,o),
(133,161,cs),
(133,517,l),
(52,517,l),
(52,159,ls),
(52,52,o),
(120,-12,o),
(226,-12,cs),
(301,-12,o),
(345,21,o),
(382,71,c),
(384,71,l),
(384,0,l)
);
},
{
closed = 1;
nodes = (
(125,602,l),
(210,602,l),
(261,665,l),
(263,665,l),
(312,602,l),
(399,602,l),
(310,708,l),
(218,708,l)
);
}
);
width = 520;
}
);
note = ucircumflex;
unicode = 251;
},
{
glyphname = udieresis;
kernLeft = u;
kernRight = u;
layers = (
{
hints = (
{
horizontal = 1;
place = (0, 55);
place = (0, 55);
type = Stem;
},
{
horizontal = 1;
place = (517, -20);
target = down;
type = TopGhost;
},
{
horizontal = 1;
place = (615, 95);
place = (615, 95);
type = Stem;
},
{
place = (52, 81);
place = (52, 81);
type = Stem;
},
{
place = (384, 81);
place = (384, 81);
type = Stem;
},
{
horizontal = 1;
place = (-12, 67);
place = (-12, 67);
type = Stem;
},
{
place = (141, 78);
place = (141, 78);
type = Stem;
},
{
place = (305, 78);
place = (305, 78);
type = Stem;
}
);
layerId = m01;
shapes = (
{
closed = 1;
nodes = (
(465,0,l),
(465,517,l),
(384,517,l),
(384,199,ls),
(384,117,o),
(331,55,o),
(249,55,cs),
(176,55,o),
(133,94,o),
(133,161,cs),
(133,517,l),
(52,517,l),
(52,159,ls),
(52,52,o),
(120,-12,o),
(226,-12,cs),
(301,-12,o),
(345,21,o),
(382,71,c),
(384,71,l),
(384,0,l)
);
},
{
closed = 1;
nodes = (
(305,615,l),
(383,615,l),
(383,710,l),
(305,710,l)
);
},
{
closed = 1;
nodes = (
(141,615,l),
(219,615,l),
(219,710,l),
(141,710,l)
);
}
);
width = 520;
}
);
note = udieresis;
unicode = 252;
},
{
glyphname = dagger;
layers = (
{
hints = (
{
horizontal = 1;
place = (456, 73);
place = (456, 73);
type = Stem;
},
{
horizontal = 1;
place = (715, -20);
target = down;
type = TopGhost;
},
{
place = (232, 82);
place = (232, 82);
type = Stem;
}
);
layerId = m01;
shapes = (
{
closed = 1;
nodes = (
(34,456,l),
(232,456,l),
(232,-104,l),
(314,-104,l),
(314,456,l),
(512,456,l),
(512,529,l),
(314,529,l),
(314,715,l),
(232,715,l),
(232,529,l),
(34,529,l)
);
}
);
width = 546;
}
);
note = dagger;
unicode = 8224;
},
{
glyphname = degree;
layers = (
{
hints = (
{
horizontal = 1;
place = (455, 47);
place = (455, 47);
type = Stem;
},
{
horizontal = 1;
place = (654, 47);
place = (654, 47);
type = Stem;
},
{
place = (34, 55);
place = (34, 55);
type = Stem;
},
{
place = (229, 55);
place = (229, 55);
type = Stem;
}
);
layerId = m01;
shapes = (
{
closed = 1;
nodes = (
(229,455,o),
(284,510,o),
(284,578,cs),
(284,646,o),
(229,701,o),
(159,701,cs),
(90,701,o),
(34,646,o),
(34,578,cs),
(34,510,o),
(90,455,o),
(159,455,cs)
);
},
{
closed = 1;
nodes = (
(117,502,o),
(89,534,o),
(89,578,cs),
(89,621,o),
(117,654,o),
(159,654,cs),
(202,654,o),
(229,621,o),
(229,578,cs),
(229,534,o),
(202,502,o),
(159,502,cs)
);
}
);
width = 318;
}
);
note = degree;
unicode = 176;
},
{
glyphname = cent;
layers = (
{
hints = (
{
horizontal = 1;
place = (-13, 21);
target = up;
type = BottomGhost;
},
{
horizontal = 1;
place = (529, -20);
target = down;
type = TopGhost;
},
{
place = (26, 83);
place = (26, 83);
type = Stem;
},
{
place = (245, 56);
place = (245, 56);
type = Stem;
},
{
place = (417, 80);
place = (417, 80);
type = Stem;
},
{
horizontal = 1;
place = (-12, 21);
target = up;
type = BottomGhost;
},
{
horizontal = 1;
place = (528, -20);
target = down;
type = TopGhost;
}
);
layerId = m01;
shapes = (
{
closed = 1;
nodes = (
(245,-85,l),
(301,-85,l),
(301,-13,l),
(415,-4,o),
(486,66,o),
(497,182,c),
(417,182,l),
(410,110,o),
(370,64,o),
(301,55,c),
(301,461,l),
(364,453,o),
(404,412,o),
(415,350,c),
(497,350,l),
(480,452,o),
(409,520,o),
(301,529,c),
(301,591,l),
(245,591,l),
(245,528,l),
(109,512,o),
(26,397,o),
(26,258,cs),
(26,118,o),
(109,3,o),
(245,-12,c)
);
},
{
closed = 1;
nodes = (
(109,361,o),
(155,445,o),
(245,460,c),
(245,56,l),
(155,72,o),
(109,155,o),
(109,258,cs)
);
}
);
width = 519;
}
);
note = cent;
unicode = 162;
},
{
glyphname = sterling;
layers = (
{
hints = (
{
horizontal = 1;
place = (-2, 21);
target = up;
type = BottomGhost;
},
{
horizontal = 1;
place = (41, 62);
place = (41, 62);
type = Stem;
},
{
horizontal = 1;
place = (301, 64);
place = (301, 64);
type = Stem;
},
{
horizontal = 1;
place = (630, 70);
place = (630, 70);
type = Stem;
},
{
place = (135, 79);
place = (135, 79);
type = Stem;
},
{
place = (437, 82);
place = (437, 82);
type = Stem;
},
{
horizontal = 1;
place = (-12, 74);
place = (-12, 74);
type = Stem;
},
{
place = (68, 87);
place = (68, 87);
type = Stem;
}
);
layerId = m01;
shapes = (
{
closed = 1;
nodes = (
(39,301,l),
(122,301,l),
(129,277,o),
(135,252,o),
(135,227,cs),
(135,146,o),
(88,106,o),
(31,64,c),
(79,-2,l),
(107,17,o),
(138,41,o),
(178,41,cs),
(256,41,o),
(292,-12,o),
(383,-12,cs),
(446,-12,o),
(496,14,o),
(538,51,c),
(490,110,l),
(461,84,o),
(427,62,o),
(386,62,cs),
(327,62,o),
(287,103,o),
(215,103,cs),
(181,103,o),
(165,97,o),
(136,87,c),
(134,89,l),
(182,128,o),
(214,172,o),
(214,242,cs),
(214,262,o),
(211,282,o),
(207,301,c),
(332,301,l),
(332,365,l),
(189,365,l),
(173,413,o),
(155,458,o),
(155,505,cs),
(155,582,o),
(206,630,o),
(293,630,cs),
(373,630,o),
(435,587,o),
(437,471,c),
(519,471,l),
(517,634,o),
(412,700,o),
(296,700,cs),
(157,700,o),
(68,618,o),
(68,506,cs),
(68,454,o),
(83,409,o),
(100,365,c),
(39,365,l)
);
}
);
width = 551;
}
);
note = sterling;
unicode = 163;
},
{
glyphname = section;
layers = (
{
hints = (
{
horizontal = 1;
place = (-186, 72);
place = (-186, 72);
type = Stem;
},
{
horizontal = 1;
place = (629, 72);
place = (629, 72);
type = Stem;
},
{
place = (28, 81);
place = (28, 81);
type = Stem;
},
{
place = (473, 81);
place = (473, 81);
type = Stem;
},
{
place = (400, 84);
place = (400, 84);
type = Stem;
},
{
place = (101, 84);
place = (101, 84);
type = Stem;
}
);
layerId = m01;
shapes = (
{
closed = 1;
nodes = (
(414,-186,o),
(484,-126,o),
(484,-39,cs),
(484,-3,o),
(467,29,o),
(440,58,c),
(509,79,o),
(554,126,o),
(554,201,cs),
(554,306,o),
(456,358,o),
(340,420,cs),
(241,473,o),
(185,502,o),
(185,555,cs),
(185,597,o),
(218,629,o),
(288,629,cs),
(364,629,o),
(402,590,o),
(407,517,c),
(490,517,l),
(483,629,o),
(416,701,o),
(290,701,cs),
(176,701,o),
(101,641,o),
(101,552,cs),
(101,515,o),
(116,485,o),
(141,457,c),
(74,435,o),
(28,391,o),
(28,321,cs),
(28,228,o),
(100,181,o),
(219,113,cs),
(338,45,o),
(400,14,o),
(400,-40,cs),
(400,-83,o),
(367,-114,o),
(303,-114,cs),
(212,-114,o),
(167,-72,o),
(162,11,c),
(79,11,l),
(82,-105,o),
(162,-186,o),
(301,-186,cs)
);
},
{
closed = 1;
nodes = (
(421,282,o),
(473,258,o),
(473,197,cs),
(473,156,o),
(453,116,o),
(393,99,c),
(351,131,o),
(301,159,o),
(254,186,cs),
(145,249,o),
(109,274,o),
(109,329,cs),
(109,367,o),
(135,404,o),
(188,418,c),
(220,394,o),
(259,372,o),
(303,348,cs)
);
}
);
width = 582;
}
);
note = section;
unicode = 167;
},
{
glyphname = bullet;
layers = (
{
hints = (
{
horizontal = 1;
place = (207, 237);
place = (207, 237);
type = Stem;
},
{
place = (34, 237);
place = (34, 237);
type = Stem;
}
);
layerId = m01;
shapes = (
{
closed = 1;
nodes = (
(218,207,o),
(271,260,o),
(271,325,cs),
(271,390,o),
(218,444,o),
(153,444,cs),
(87,444,o),
(34,390,o),
(34,325,cs),
(34,260,o),
(87,207,o),
(153,207,cs)
);
}
);
width = 305;
}
);
note = bullet;
unicode = 8226;
},
{
glyphname = paragraph;
layers = (
{
hints = (
{
horizontal = 1;
place = (0, 21);
target = up;
type = BottomGhost;
},
{
horizontal = 1;
place = (637, 78);
place = (637, 78);
type = Stem;
},
{
place = (265, 74);
place = (265, 74);
type = Stem;
},
{
place = (408, 74);
place = (408, 74);
type = Stem;
}
);
layerId = m01;
shapes = (
{
closed = 1;
nodes = (
(265,353,l),
(265,0,l),
(339,0,l),
(339,637,l),
(408,637,l),
(408,0,l),
(482,0,l),
(482,715,l),
(224,715,ls),
(161,715,o),
(112,699,o),
(80,666,cs),
(48,633,o),
(29,589,o),
(29,537,cs),
(29,422,o),
(98,353,o),
(231,353,cs)
);
}
);
width = 549;
}
);
note = paragraph;
unicode = 182;
},
{
glyphname = germandbls;
kernLeft = germandbls;
kernRight = germandbls;
layers = (
{
hints = (
{
horizontal = 1;
place = (-11, 67);
place = (-11, 67);
type = Stem;
},
{
horizontal = 1;
place = (366, 62);
place = (366, 62);
type = Stem;
},
{
horizontal = 1;
place = (658, 65);
place = (658, 65);
type = Stem;
},
{
place = (55, 81);
place = (55, 81);
type = Stem;
},
{
place = (394, 83);
place = (394, 83);
type = Stem;
},
{
horizontal = 1;
place = (0, 56);
place = (0, 56);
type = Stem;
},
{
place = (367, 80);
place = (367, 80);
type = Stem;
},
{
horizontal = 1;
place = (-6, 21);
target = up;
type = BottomGhost;
}
);
layerId = m01;
shapes = (
{
closed = 1;
nodes = (
(393,-11,o),
(477,77,o),
(477,213,cs),
(477,319,o),
(415,380,o),
(339,402,c),
(339,404,l),
(410,429,o),
(447,479,o),
(447,552,cs),
(447,655,o),
(363,723,o),
(256,723,cs),
(130,723,o),
(55,650,o),
(55,544,cs),
(55,0,l),
(136,0,l),
(136,539,ls),
(136,609,o),
(176,658,o),
(253,658,cs),
(325,658,o),
(367,613,o),
(367,549,cs),
(367,477,o),
(315,428,o),
(241,428,cs),
(211,428,l),
(211,366,l),
(238,366,ls),
(339,366,o),
(394,307,o),
(394,210,cs),
(394,96,o),
(313,39,o),
(206,60,c),
(204,60,l),
(204,-6,l),
(220,-9,o),
(240,-11,o),
(255,-11,cs)
);
}
);
width = 503;
}
);
note = germandbls;
unicode = 223;
},
{
glyphname = registered;
kernLeft = registered;
layers = (
{
hints = (
{
horizontal = 1;
place = (244, 35);
place = (244, 35);
type = Stem;
},
{
horizontal = 1;
place = (464, 39);
place = (464, 39);
type = Stem;
},
{
horizontal = 1;
place = (575, 42);
place = (575, 42);
type = Stem;
},
{
horizontal = 1;
place = (693, 35);
place = (693, 35);
type = Stem;
},
{
place = (26, 41);
place = (26, 41);
type = Stem;
},
{
place = (171, 51);
place = (171, 51);
type = Stem;
},
{
place = (313, 60);
place = (313, 60);
type = Stem;
},
{
place = (461, 41);
place = (461, 41);
type = Stem;
},
{
place = (320, 50);
place = (320, 50);
type = Stem;
}
);
layerId = m01;
shapes = (
{
closed = 1;
nodes = (
(395,244,o),
(502,346,o),
(502,486,cs),
(502,625,o),
(395,728,o),
(264,728,cs),
(133,728,o),
(26,625,o),
(26,486,cs),
(26,346,o),
(133,244,o),
(264,244,cs)
);
},
{
closed = 1;
nodes = (
(150,279,o),
(67,366,o),
(67,486,cs),
(67,605,o),
(150,693,o),
(264,693,cs),
(378,693,o),
(461,605,o),
(461,486,cs),
(461,366,o),
(378,279,o),
(264,279,cs)
);
},
{
closed = 1;
nodes = (
(171,361,l),
(222,361,l),
(222,464,l),
(264,464,ls),
(296,464,o),
(312,447,o),
(313,420,cs),
(314,393,o),
(317,364,o),
(324,361,c),
(373,361,l),
(373,364,l),
(364,368,o),
(366,395,o),
(362,431,cs),
(359,462,o),
(347,476,o),
(322,483,c),
(322,484,l),
(355,492,o),
(370,516,o),
(370,545,cs),
(370,587,o),
(336,617,o),
(289,617,cs),
(171,617,l)
);
},
{
closed = 1;
nodes = (
(222,575,l),
(278,575,ls),
(306,575,o),
(320,560,o),
(320,539,cs),
(320,518,o),
(306,503,o),
(278,503,cs),
(222,503,l)
);
}
);
width = 528;
}
);
note = registered;
unicode = 174;
},
{
glyphname = copyright;
kernLeft = copyright;
kernRight = copyright;
layers = (
{
hints = (
{
horizontal = 1;
place = (-17, 39);
place = (-17, 39);
type = Stem;
},
{
horizontal = 1;
place = (127, 64);
place = (127, 64);
type = Stem;
},
{
horizontal = 1;
place = (524, 64);
place = (524, 64);
type = Stem;
},
{
horizontal = 1;
place = (689, 39);
place = (689, 39);
type = Stem;
},
{
place = (40, 46);
place = (40, 46);
type = Stem;
},
{
place = (198, 78);
place = (198, 78);
type = Stem;
},
{
place = (726, 46);
place = (726, 46);
type = Stem;
}
);
layerId = m01;
shapes = (
{
closed = 1;
nodes = (
(612,-17,o),
(772,141,o),
(772,355,cs),
(772,569,o),
(612,728,o),
(406,728,cs),
(200,728,o),
(40,569,o),
(40,355,cs),
(40,141,o),
(200,-17,o),
(406,-17,cs)
);
},
{
closed = 1;
nodes = (
(223,22,o),
(86,163,o),
(86,355,cs),
(86,547,o),
(223,689,o),
(406,689,cs),
(589,689,o),
(726,547,o),
(726,355,cs),
(726,163,o),
(589,22,o),
(406,22,cs)
);
},
{
closed = 1;
nodes = (
(469,127,o),
(512,145,o),
(543,174,cs),
(574,203,o),
(592,246,o),
(593,287,c),
(519,287,l),
(513,233,o),
(475,191,o),
(409,191,cs),
(328,191,o),
(276,259,o),
(276,356,cs),
(276,451,o),
(321,524,o),
(409,524,cs),
(469,524,o),
(506,491,o),
(515,442,c),
(591,442,l),
(580,523,o),
(516,588,o),
(410,588,cs),
(278,588,o),
(198,488,o),
(198,356,cs),
(198,223,o),
(284,127,o),
(409,127,cs)
);
}
);
width = 812;
}
);
note = copyright;
unicode = 169;
},
{
glyphname = trademark;
kernLeft = trademark;
layers = (
{
hints = (
{
horizontal = 1;
place = (429, 68);
place = (429, 68);
type = Stem;
},
{
horizontal = 1;
place = (668, 47);
place = (668, 47);
type = Stem;
},
{
place = (122, 56);
place = (122, 56);
type = Stem;
},
{
place = (315, 51);
place = (315, 51);
type = Stem;
},
{
place = (550, 52);
place = (550, 52);
type = Stem;
}
);
layerId = m01;
shapes = (
{
closed = 1;
nodes = (
(315,429,l),
(366,429,l),
(366,648,l),
(368,648,l),
(368,648,o),
(380,600,o),
(390,567,cs),
(431,429,l),
(484,429,l),
(525,567,ls),
(536,603,o),
(548,648,o),
(548,648,c),
(550,648,l),
(550,429,l),
(602,429,l),
(602,715,l),
(521,715,l),
(458,497,l),
(457,497,l),
(395,715,l),
(315,715,l)
);
},
{
closed = 1;
nodes = (
(32,668,l),
(122,668,l),
(122,429,l),
(178,429,l),
(178,668,l),
(268,668,l),
(268,715,l),
(32,715,l)
);
}
);
width = 639;
}
);
note = trademark;
unicode = 8482;
},
{
glyphname = acute;
layers = (
{
hints = (
{
horizontal = 1;
place = (598, 127);
place = (598, 127);
type = Stem;
},
{
place = (210, 151);
place = (210, 151);
type = Stem;
}
);
layerId = m01;
shapes = (
{
closed = 1;
nodes = (
(210,598,l),
(279,598,l),
(361,725,l),
(261,725,l)
);
}
);
width = 500;
}
);
note = acute;
unicode = 180;
},
{
glyphname = dieresis;
layers = (
{
hints = (
{
horizontal = 1;
place = (615, 95);
place = (615, 95);
type = Stem;
},
{
place = (129, 78);
place = (129, 78);
type = Stem;
},
{
place = (293, 78);
place = (293, 78);
type = Stem;
}
);
layerId = m01;
shapes = (
{
closed = 1;
nodes = (
(293,615,l),
(371,615,l),
(371,710,l),
(293,710,l)
);
},
{
closed = 1;
nodes = (
(129,615,l),
(207,615,l),
(207,710,l),
(129,710,l)
);
}
);
width = 500;
}
);
note = dieresis;
unicode = 168;
},
{
glyphname = notequal;
layers = (
{
hints = (
{
horizontal = 1;
place = (194, 64);
place = (194, 64);
type = Stem;
},
{
horizontal = 1;
place = (369, 64);
place = (369, 64);
type = Stem;
},
{
place = (53, 454);
place = (53, 454);
type = Stem;
},
{
horizontal = 1;
place = (369, 160);
place = (369, 160);
type = Stem;
}
);
layerId = m01;
shapes = (
{
closed = 1;
nodes = (
(53,369,l),
(275,369,l),
(223,258,l),
(53,258,l),
(53,194,l),
(194,194,l),
(143,84,l),
(211,84,l),
(262,194,l),
(507,194,l),
(507,258,l),
(291,258,l),
(343,369,l),
(507,369,l),
(507,433,l),
(372,433,l),
(417,529,l),
(349,529,l),
(304,433,l),
(53,433,l)
);
}
);
width = 560;
}
);
note = notequal;
unicode = 8800;
},
{
glyphname = AE;
kernLeft = AE;
kernRight = E;
layers = (
{
hints = (
{
horizontal = 1;
place = (0, 83);
place = (0, 83);
type = Stem;
},
{
horizontal = 1;
place = (218, 73);
place = (218, 73);
type = Stem;
},
{
horizontal = 1;
place = (334, 76);
place = (334, 76);
type = Stem;
},
{
horizontal = 1;
place = (636, 79);
place = (636, 79);
type = Stem;
},
{
place = (435, 90);
place = (435, 90);
type = Stem;
}
);
layerId = m01;
shapes = (
{
closed = 1;
nodes = (
(896,715,l),
(274,715,l),
(14,0,l),
(105,0,l),
(182,218,l),
(435,218,l),
(435,0,l),
(908,0,l),
(908,83,l),
(525,83,l),
(525,334,l),
(858,334,l),
(858,410,l),
(525,410,l),
(525,636,l),
(896,636,l)
);
},
{
closed = 1;
nodes = (
(331,636,l),
(435,636,l),
(435,291,l),
(208,291,l)
);
}
);
width = 946;
}
);
note = AE;
unicode = 198;
},
{
glyphname = Oslash;
kernLeft = C;
kernRight = O;
layers = (
{
hints = (
{
horizontal = 1;
place = (-15, 79);
place = (-15, 79);
type = Stem;
},
{
horizontal = 1;
place = (653, 78);
place = (653, 78);
type = Stem;
},
{
place = (40, 92);
place = (40, 92);
type = Stem;
},
{
place = (648, 92);
place = (648, 92);
type = Stem;
},
{
horizontal = 1;
place = (694, -20);
target = down;
type = TopGhost;
}
);
layerId = m01;
shapes = (
{
closed = 1;
nodes = (
(76,-16,l),
(156,69,l),
(215,16,o),
(294,-15,o),
(390,-15,cs),
(606,-15,o),
(740,144,o),
(740,358,cs),
(740,456,o),
(712,542,o),
(661,607,c),
(742,694,l),
(704,729,l),
(625,645,l),
(566,699,o),
(486,731,o),
(390,731,cs),
(174,731,o),
(40,572,o),
(40,358,cs),
(40,259,o),
(68,172,o),
(120,107,c),
(38,19,l)
);
},
{
closed = 1;
nodes = (
(132,526,o),
(222,653,o),
(390,653,cs),
(465,653,o),
(525,627,o),
(568,584,c),
(181,171,l),
(149,221,o),
(132,286,o),
(132,358,cs)
);
},
{
closed = 1;
nodes = (
(315,64,o),
(256,89,o),
(213,131,c),
(600,543,l),
(632,493,o),
(648,429,o),
(648,358,cs),
(648,190,o),
(558,64,o),
(390,64,cs)
);
}
);
width = 780;
}
);
note = Oslash;
unicode = 216;
},
{
glyphname = infinity;
layers = (
{
hints = (
{
horizontal = 1;
place = (131, 72);
place = (131, 72);
type = Stem;
},
{
horizontal = 1;
place = (406, 72);
place = (406, 72);
type = Stem;
},
{
place = (35, 79);
place = (35, 79);
type = Stem;
},
{
place = (601, 79);
place = (601, 79);
type = Stem;
}
);
layerId = m01;
shapes = (
{
closed = 1;
nodes = (
(266,131,o),
(319,184,o),
(360,248,c),
(401,184,o),
(451,131,o),
(528,131,cs),
(620,131,o),
(680,201,o),
(680,305,cs),
(680,408,o),
(620,478,o),
(528,478,cs),
(451,478,o),
(401,425,o),
(360,361,c),
(319,425,o),
(266,478,o),
(186,478,cs),
(87,478,o),
(35,397,o),
(35,305,cs),
(35,212,o),
(86,131,o),
(186,131,cs)
);
},
{
closed = 1;
nodes = (
(245,406,o),
(284,358,o),
(315,304,c),
(284,252,o),
(245,203,o),
(192,203,cs),
(137,203,o),
(114,248,o),
(114,305,cs),
(114,361,o),
(137,406,o),
(192,406,cs)
);
},
{
closed = 1;
nodes = (
(472,203,o),
(436,252,o),
(405,304,c),
(436,358,o),
(472,406,o),
(522,406,cs),
(577,406,o),
(601,361,o),
(601,305,cs),
(601,248,o),
(577,203,o),
(522,203,cs)
);
}
);
width = 715;
}
);
note = infinity;
unicode = 8734;
},
{
glyphname = plusminus;
layers = (
{
hints = (
{
horizontal = 1;
place = (0, 64);
place = (0, 64);
type = Stem;
},
{
horizontal = 1;
place = (314, 64);
place = (314, 64);
type = Stem;
},
{
place = (247, 66);
place = (247, 66);
type = Stem;
}
);
layerId = m01;
shapes = (
{
closed = 1;
nodes = (
(53,314,l),
(247,314,l),
(247,134,l),
(313,134,l),
(313,314,l),
(507,314,l),
(507,378,l),
(313,378,l),
(313,558,l),
(247,558,l),
(247,378,l),
(53,378,l)
);
},
{
closed = 1;
nodes = (
(53,0,l),
(507,0,l),
(507,64,l),
(53,64,l)
);
}
);
width = 560;
}
);
note = plusminus;
unicode = 177;
},
{
glyphname = lessequal;
layers = (
{
hints = (
{
horizontal = 1;
place = (0, 64);
place = (0, 64);
type = Stem;
},
{
horizontal = 1;
place = (526, -20);
target = down;
type = TopGhost;
},
{
place = (50, 64);
place = (50, 64);
type = Stem;
}
);
layerId = m01;
shapes = (
{
closed = 1;
nodes = (
(457,107,l),
(457,181,l),
(114,317,l),
(114,319,l),
(457,453,l),
(457,526,l),
(50,358,l),
(50,275,l)
);
},
{
closed = 1;
nodes = (
(50,0,l),
(457,0,l),
(457,64,l),
(50,64,l)
);
}
);
width = 511;
}
);
note = lessequal;
unicode = 8804;
},
{
glyphname = greaterequal;
layers = (
{
hints = (
{
horizontal = 1;
place = (0, 64);
place = (0, 64);
type = Stem;
},
{
horizontal = 1;
place = (526, -20);
target = down;
type = TopGhost;
},
{
place = (397, 64);
place = (397, 64);
type = Stem;
}
);
layerId = m01;
shapes = (
{
closed = 1;
nodes = (
(461,275,l),
(461,358,l),
(54,526,l),
(54,453,l),
(397,319,l),
(397,317,l),
(54,181,l),
(54,107,l)
);
},
{
closed = 1;
nodes = (
(461,64,l),
(54,64,l),
(54,0,l),
(461,0,l)
);
}
);
width = 511;
}
);
note = greaterequal;
unicode = 8805;
},
{
glyphname = yen;
layers = (
{
hints = (
{
horizontal = 1;
place = (149, 54);
place = (149, 54);
type = Stem;
},
{
horizontal = 1;
place = (272, 54);
place = (272, 54);
type = Stem;
},
{
horizontal = 1;
place = (685, -20);
target = down;
type = TopGhost;
},
{
place = (241, 84);
place = (241, 84);
type = Stem;
},
{
horizontal = 1;
place = (0, 203);
place = (0, 203);
type = Stem;
}
);
layerId = m01;
shapes = (
{
closed = 1;
nodes = (
(61,272,l),
(241,272,l),
(241,203,l),
(61,203,l),
(61,149,l),
(241,149,l),
(241,0,l),
(325,0,l),
(325,149,l),
(505,149,l),
(505,203,l),
(325,203,l),
(325,272,l),
(505,272,l),
(505,326,l),
(337,326,l),
(552,685,l),
(462,685,l),
(284,368,l),
(282,368,l),
(104,685,l),
(10,685,l),
(227,326,l),
(61,326,l)
);
}
);
width = 562;
}
);
note = yen;
unicode = 165;
},
{
glyphname = mu;
layers = (
{
hints = (
{
horizontal = 1;
place = (-166, 21);
target = up;
type = BottomGhost;
},
{
horizontal = 1;
place = (-12, 67);
place = (-12, 67);
type = Stem;
},
{
horizontal = 1;
place = (517, -20);
target = down;
type = TopGhost;
},
{
place = (55, 81);
place = (55, 81);
type = Stem;
},
{
place = (387, 81);
place = (387, 81);
type = Stem;
},
{
horizontal = 1;
place = (0, 55);
place = (0, 55);
type = Stem;
}
);
layerId = m01;
shapes = (
{
closed = 1;
nodes = (
(55,-166,l),
(136,-166,l),
(136,23,l),
(138,23,l),
(159,-1,o),
(190,-12,o),
(234,-12,cs),
(305,-12,o),
(348,21,o),
(385,71,c),
(387,71,l),
(387,0,l),
(468,0,l),
(468,517,l),
(387,517,l),
(387,199,ls),
(387,117,o),
(334,55,o),
(252,55,cs),
(179,55,o),
(136,94,o),
(136,161,cs),
(136,517,l),
(55,517,l)
);
}
);
width = 523;
}
);
note = mu;
unicode = 181;
},
{
glyphname = partialdiff;
layers = (
{
hints = (
{
horizontal = 1;
place = (-14, 67);
place = (-14, 67);
type = Stem;
},
{
horizontal = 1;
place = (392, 67);
place = (392, 67);
type = Stem;
},
{
horizontal = 1;
place = (722, -20);
target = down;
type = TopGhost;
},
{
place = (44, 83);
place = (44, 83);
type = Stem;
},
{
place = (419, 86);
place = (419, 86);
type = Stem;
}
);
layerId = m01;
shapes = (
{
closed = 1;
nodes = (
(384,438,o),
(332,459,o),
(281,459,cs),
(136,459,o),
(44,345,o),
(44,198,cs),
(44,79,o),
(119,-14,o),
(256,-14,cs),
(427,-14,o),
(505,138,o),
(505,286,cs),
(505,517,o),
(426,691,o),
(157,722,c),
(157,650,l),
(306,625,o),
(395,549,o),
(414,397,c)
);
},
{
closed = 1;
nodes = (
(171,53,o),
(127,115,o),
(127,198,cs),
(127,313,o),
(192,392,o),
(285,392,cs),
(366,392,o),
(419,332,o),
(419,251,cs),
(419,152,o),
(353,53,o),
(257,53,cs)
);
}
);
width = 549;
}
);
note = partialdiff;
unicode = 8706;
},
{
glyphname = summation;
layers = (
{
hints = (
{
horizontal = 1;
place = (-100, 83);
place = (-100, 83);
type = Stem;
},
{
horizontal = 1;
place = (636, 79);
place = (636, 79);
type = Stem;
},
{
place = (40, 538);
place = (40, 538);
type = Stem;
},
{
place = (40, 105);
place = (40, 105);
type = Stem;
},
{
place = (322, 96);
place = (322, 96);
type = Stem;
}
);
layerId = m01;
shapes = (
{
closed = 1;
nodes = (
(578,-100,l),
(578,-17,l),
(138,-17,l),
(138,-15,l),
(418,299,l),
(418,339,l),
(145,634,l),
(145,636,l),
(568,636,l),
(568,715,l),
(40,715,l),
(40,629,l),
(322,317,l),
(322,315,l),
(40,-9,l),
(40,-100,l)
);
}
);
width = 616;
}
);
note = summation;
unicode = 8721;
},
{
glyphname = product;
layers = (
{
hints = (
{
horizontal = 1;
place = (636, 79);
place = (636, 79);
type = Stem;
},
{
place = (71, 90);
place = (71, 90);
type = Stem;
},
{
place = (542, 90);
place = (542, 90);
type = Stem;
}
);
layerId = m01;
shapes = (
{
closed = 1;
nodes = (
(71,715,l),
(71,-100,l),
(161,-100,l),
(161,636,l),
(542,636,l),
(542,-100,l),
(632,-100,l),
(632,715,l)
);
}
);
width = 703;
}
);
note = product;
unicode = 8719;
},
{
glyphname = pi;
layers = (
{
hints = (
{
horizontal = 1;
place = (-3, 70);
place = (-3, 70);
type = Stem;
},
{
horizontal = 1;
place = (451, 66);
place = (451, 66);
type = Stem;
},
{
place = (102, 81);
place = (102, 81);
type = Stem;
},
{
place = (409, 81);
place = (409, 81);
type = Stem;
},
{
horizontal = 1;
place = (0, 21);
target = up;
type = BottomGhost;
}
);
layerId = m01;
shapes = (
{
closed = 1;
nodes = (
(22,451,l),
(102,451,l),
(102,0,l),
(183,0,l),
(183,451,l),
(409,451,l),
(409,97,ls),
(409,23,o),
(459,-3,o),
(522,-3,cs),
(543,-3,o),
(565,0,o),
(581,4,c),
(581,74,l),
(578,74,l),
(569,71,o),
(558,67,o),
(542,67,cs),
(510,67,o),
(490,79,o),
(490,115,cs),
(490,451,l),
(583,451,l),
(583,517,l),
(22,517,l)
);
}
);
width = 612;
}
);
note = pi;
unicode = 960;
},
{
glyphname = integral;
layers = (
{
hints = (
{
horizontal = 1;
place = (-176, 72);
place = (-176, 72);
type = Stem;
},
{
horizontal = 1;
place = (732, -20);
target = down;
type = TopGhost;
},
{
place = (117, 81);
place = (117, 81);
type = Stem;
},
{
horizontal = 1;
place = (-166, 21);
target = up;
type = BottomGhost;
},
{
horizontal = 1;
place = (669, 72);
place = (669, 72);
type = Stem;
}
);
layerId = m01;
shapes = (
{
closed = 1;
nodes = (
(117,-34,ls),
(117,-82,o),
(94,-104,o),
(49,-104,cs),
(22,-104,o),
(4,-98,o),
(-7,-94,c),
(-10,-94,l),
(-10,-166,l),
(10,-172,o),
(33,-176,o),
(63,-176,cs),
(139,-176,o),
(198,-138,o),
(198,-39,cs),
(198,599,ls),
(198,647,o),
(221,669,o),
(266,669,cs),
(293,669,o),
(311,664,o),
(322,660,c),
(325,660,l),
(325,732,l),
(305,738,o),
(282,741,o),
(252,741,cs),
(176,741,o),
(117,703,o),
(117,604,cs)
);
}
);
width = 337;
}
);
note = integral;
unicode = 8747;
},
{
glyphname = ordfeminine;
layers = (
{
hints = (
{
horizontal = 1;
place = (228, 59);
place = (228, 59);
type = Stem;
},
{
horizontal = 1;
place = (643, 58);
place = (643, 58);
type = Stem;
},
{
place = (40, 81);
place = (40, 81);
type = Stem;
},
{
place = (347, 70);
place = (347, 70);
type = Stem;
},
{
horizontal = 1;
place = (232, 61);
place = (232, 61);
type = Stem;
}
);
layerId = m01;
shapes = (
{
closed = 1;
nodes = (
(166,287,o),
(121,301,o),
(121,360,cs),
(121,421,o),
(166,436,o),
(244,446,cs),
(283,451,o),
(325,462,o),
(347,474,c),
(347,405,ls),
(347,353,o),
(308,287,o),
(213,287,cs)
);
},
{
closed = 1;
nodes = (
(347,301,l),
(354,259,o),
(374,232,o),
(429,232,cs),
(447,232,o),
(461,236,o),
(470,239,c),
(470,295,l),
(467,295,ls),
(462,294,o),
(455,293,o),
(450,293,cs),
(423,293,o),
(417,313,o),
(417,344,cs),
(417,557,ls),
(417,665,o),
(346,701,o),
(249,701,cs),
(128,701,o),
(67,632,o),
(62,547,c),
(136,547,l),
(141,610,o),
(177,643,o),
(250,643,cs),
(314,643,o),
(346,618,o),
(346,567,cs),
(346,518,o),
(310,508,o),
(242,501,cs),
(127,490,o),
(40,464,o),
(40,358,cs),
(40,272,o),
(112,228,o),
(199,228,cs),
(276,228,o),
(318,263,o),
(345,301,c)
);
}
);
width = 480;
}
);
note = ordfeminine;
unicode = 170;
},
{
glyphname = ordmasculine;
layers = (
{
hints = (
{
horizontal = 1;
place = (223, 63);
place = (223, 63);
type = Stem;
},
{
horizontal = 1;
place = (639, 62);
place = (639, 62);
type = Stem;
},
{
place = (36, 80);
place = (36, 80);
type = Stem;
},
{
place = (393, 80);
place = (393, 80);
type = Stem;
}
);
layerId = m01;
shapes = (
{
closed = 1;
nodes = (
(391,223,o),
(473,330,o),
(473,462,cs),
(473,594,o),
(391,701,o),
(255,701,cs),
(119,701,o),
(36,594,o),
(36,462,cs),
(36,330,o),
(119,223,o),
(255,223,cs)
);
},
{
closed = 1;
nodes = (
(162,286,o),
(116,362,o),
(116,462,cs),
(116,562,o),
(162,639,o),
(255,639,cs),
(348,639,o),
(393,562,o),
(393,462,cs),
(393,362,o),
(348,286,o),
(255,286,cs)
);
}
);
width = 509;
}
);
note = ordmasculine;
unicode = 186;
},
{
glyphname = Omega;
layers = (
{
hints = (
{
horizontal = 1;
place = (0, 75);
place = (0, 75);
type = Stem;
},
{
horizontal = 1;
place = (653, 78);
place = (653, 78);
type = Stem;
},
{
place = (40, 92);
place = (40, 92);
type = Stem;
},
{
place = (608, 92);
place = (608, 92);
type = Stem;
}
);
layerId = m01;
shapes = (
{
closed = 1;
nodes = (
(562,77,l),
(652,132,o),
(700,235,o),
(700,372,cs),
(700,586,o),
(565,731,o),
(370,731,cs),
(175,731,o),
(40,586,o),
(40,372,cs),
(40,235,o),
(87,132,o),
(177,77,c),
(177,75,l),
(46,75,l),
(46,0,l),
(329,0,l),
(329,75,l),
(191,93,o),
(132,221,o),
(132,375,cs),
(132,543,o),
(218,653,o),
(370,653,cs),
(522,653,o),
(608,543,o),
(608,375,cs),
(608,221,o),
(550,93,o),
(411,75,c),
(411,0,l),
(694,0,l),
(694,75,l),
(562,75,l)
);
}
);
width = 740;
}
);
note = Omega;
unicode = 8486;
},
{
glyphname = ae;
kernLeft = a;
kernRight = e;
layers = (
{
hints = (
{
horizontal = 1;
place = (-10, 62);
place = (-10, 62);
type = Stem;
},
{
horizontal = 1;
place = (239, 61);
place = (239, 61);
type = Stem;
},
{
horizontal = 1;
place = (466, 61);
place = (466, 61);
type = Stem;
},
{
place = (24, 86);
place = (24, 86);
type = Stem;
},
{
place = (374, 75);
place = (374, 75);
type = Stem;
},
{
place = (730, 87);
place = (730, 87);
type = Stem;
},
{
horizontal = 1;
place = (-14, 68);
place = (-14, 68);
type = Stem;
},
{
horizontal = 1;
place = (466, 64);
place = (466, 64);
type = Stem;
}
);
layerId = m01;
shapes = (
{
closed = 1;
nodes = (
(290,-10,o),
(350,3,o),
(412,91,c),
(414,91,l),
(451,27,o),
(514,-14,o),
(604,-14,cs),
(711,-14,o),
(787,51,o),
(806,160,c),
(727,160,l),
(713,95,o),
(671,54,o),
(604,54,cs),
(501,54,o),
(454,134,o),
(449,239,c),
(817,239,l),
(817,407,o),
(743,530,o),
(593,530,cs),
(517,530,o),
(462,497,o),
(426,446,c),
(399,504,o),
(338,527,o),
(259,527,cs),
(122,527,o),
(55,449,o),
(49,352,c),
(127,352,l),
(133,429,o),
(176,466,o),
(260,466,cs),
(334,466,o),
(373,433,o),
(373,375,cs),
(373,319,o),
(330,306,o),
(251,298,cs),
(121,285,o),
(24,258,o),
(24,137,cs),
(24,39,o),
(104,-10,o),
(202,-10,cs)
);
},
{
closed = 1;
nodes = (
(165,52,o),
(110,70,o),
(110,139,cs),
(110,213,o),
(165,227,o),
(254,238,cs),
(299,243,o),
(347,256,o),
(374,270,c),
(374,191,ls),
(374,131,o),
(326,52,o),
(218,52,cs)
);
},
{
closed = 1;
nodes = (
(675,466,o),
(728,403,o),
(730,300,c),
(451,300,l),
(461,394,o),
(505,466,o),
(593,466,cs)
);
}
);
width = 841;
}
);
note = ae;
unicode = 230;
},
{
glyphname = oslash;
kernLeft = c;
kernRight = o;
layers = (
{
hints = (
{
horizontal = 1;
place = (-14, 68);
place = (-14, 68);
type = Stem;
},
{
horizontal = 1;
place = (463, 67);
place = (463, 67);
type = Stem;
},
{
place = (26, 83);
place = (26, 83);
type = Stem;
},
{
place = (442, 83);
place = (442, 83);
type = Stem;
}
);
layerId = m01;
shapes = (
{
closed = 1;
nodes = (
(52,-14,l),
(110,49,l),
(152,10,o),
(208,-14,o),
(276,-14,cs),
(431,-14,o),
(525,108,o),
(525,258,cs),
(525,327,o),
(505,390,o),
(469,438,c),
(528,502,l),
(498,530,l),
(441,468,l),
(399,506,o),
(343,530,o),
(276,530,cs),
(122,530,o),
(26,408,o),
(26,258,cs),
(26,189,o),
(46,127,o),
(82,79,c),
(22,14,l)
);
},
{
closed = 1;
nodes = (
(226,54,o),
(187,72,o),
(159,103,c),
(415,379,l),
(433,345,o),
(442,303,o),
(442,258,cs),
(442,144,o),
(386,54,o),
(276,54,cs)
);
},
{
closed = 1;
nodes = (
(109,372,o),
(166,463,o),
(276,463,cs),
(325,463,o),
(364,445,o),
(391,414,c),
(136,137,l),
(118,171,o),
(109,212,o),
(109,258,cs)
);
}
);
width = 551;
}
);
note = oslash;
unicode = 248;
},
{
glyphname = questiondown;
kernRight = questiondown;
layers = (
{
hints = (
{
horizontal = 1;
place = (-140, 72);
place = (-140, 72);
type = Stem;
},
{
horizontal = 1;
place = (489, 99);
place = (489, 99);
type = Stem;
},
{
place = (30, 86);
place = (30, 86);
type = Stem;
},
{
place = (218, 97);
place = (218, 97);
type = Stem;
},
{
place = (405, 82);
place = (405, 82);
type = Stem;
},
{
place = (228, 76);
place = (228, 76);
type = Stem;
}
);
layerId = m01;
shapes = (
{
closed = 1;
nodes = (
(415,-140,o),
(484,-33,o),
(487,103,c),
(405,103,l),
(402,1,o),
(354,-68,o),
(251,-68,cs),
(163,-68,o),
(116,-12,o),
(116,52,cs),
(116,117,o),
(155,148,o),
(199,187,cs),
(275,254,o),
(303,305,o),
(304,415,c),
(228,415,l),
(227,313,o),
(205,288,o),
(122,219,cs),
(75,180,o),
(30,133,o),
(30,51,cs),
(30,-54,o),
(107,-140,o),
(248,-140,cs)
);
},
{
closed = 1;
nodes = (
(218,489,l),
(315,489,l),
(315,588,l),
(218,588,l)
);
}
);
width = 504;
}
);
note = questiondown;
unicode = 191;
},
{
glyphname = exclamdown;
kernRight = exclamdown;
layers = (
{
hints = (
{
horizontal = 1;
place = (489, 99);
place = (489, 99);
type = Stem;
},
{
place = (73, 89);
place = (73, 89);
type = Stem;
},
{
place = (69, 97);
place = (69, 97);
type = Stem;
}
);
layerId = m01;
shapes = (
{
closed = 1;
nodes = (
(73,-127,l),
(162,-127,l),
(162,102,l),
(140,415,l),
(95,415,l),
(73,102,l)
);
},
{
closed = 1;
nodes = (
(69,489,l),
(166,489,l),
(166,588,l),
(69,588,l)
);
}
);
width = 235;
}
);
note = exclamdown;
unicode = 161;
},
{
glyphname = logicalnot;
layers = (
{
hints = (
{
horizontal = 1;
place = (334, 64);
place = (334, 64);
type = Stem;
},
{
place = (411, 66);
place = (411, 66);
type = Stem;
}
);
layerId = m01;
shapes = (
{
closed = 1;
nodes = (
(63,334,l),
(411,334,l),
(411,144,l),
(477,144,l),
(477,398,l),
(63,398,l)
);
}
);
width = 560;
}
);
note = logicalnot;
unicode = 172;
},
{
glyphname = radical;
layers = (
{
hints = (
{
horizontal = 1;
place = (-14, 21);
target = up;
type = BottomGhost;
},
{
horizontal = 1;
place = (239, 74);
place = (239, 74);
type = Stem;
},
{
horizontal = 1;
place = (715, -20);
target = down;
type = TopGhost;
},
{
place = (14, 555);
place = (14, 555);
type = Stem;
},
{
horizontal = 1;
place = (-100, 86);
place = (-100, 86);
type = Stem;
}
);
layerId = m01;
shapes = (
{
closed = 1;
nodes = (
(14,239,l),
(88,239,l),
(221,-100,l),
(313,-100,l),
(569,715,l),
(485,715,l),
(301,107,ls),
(286,57,o),
(266,-14,o),
(266,-14,c),
(264,-14,l),
(264,-14,o),
(240,62,o),
(223,107,cs),
(144,313,l),
(14,313,l)
);
}
);
width = 579;
}
);
note = radical;
unicode = 8730;
},
{
glyphname = florin;
layers = (
{
hints = (
{
horizontal = 1;
place = (-152, 70);
place = (-152, 70);
type = Stem;
},
{
horizontal = 1;
place = (342, 64);
place = (342, 64);
type = Stem;
},
{
horizontal = 1;
place = (628, 72);
place = (628, 72);
type = Stem;
},
{
place = (32, 278);
place = (32, 278);
type = Stem;
},
{
horizontal = 1;
place = (-149, 21);
target = up;
type = BottomGhost;
},
{
place = (-25, 359);
place = (-25, 359);
type = Stem;
},
{
horizontal = 1;
place = (697, -20);
target = down;
type = TopGhost;
}
);
layerId = m01;
shapes = (
{
closed = 1;
nodes = (
(32,342,l),
(114,342,l),
(62,-28,ls),
(55,-79,o),
(22,-86,o),
(-25,-82,c),
(-25,-149,l),
(77,-162,o),
(129,-131,o),
(143,-33,cs),
(196,342,l),
(310,342,l),
(310,406,l),
(205,406,l),
(228,565,ls),
(236,620,o),
(266,635,o),
(334,628,c),
(334,697,l),
(225,711,o),
(162,676,o),
(148,576,cs),
(123,406,l),
(32,406,l)
);
}
);
width = 345;
}
);
note = florin;
unicode = 402;
},
{
glyphname = approxequal;
layers = (
{
hints = (
{
horizontal = 1;
place = (178, 66);
place = (178, 66);
type = Stem;
},
{
horizontal = 1;
place = (337, 66);
place = (337, 66);
type = Stem;
},
{
place = (36, 65);
place = (36, 65);
type = Stem;
},
{
place = (442, 65);
place = (442, 65);
type = Stem;
},
{
horizontal = 1;
place = (378, 66);
place = (378, 66);
type = Stem;
},
{
horizontal = 1;
place = (219, 66);
place = (219, 66);
type = Stem;
}
);
layerId = m01;
shapes = (
{
closed = 1;
nodes = (
(471,337,o),
(505,382,o),
(507,452,c),
(442,452,l),
(441,422,o),
(426,403,o),
(394,403,cs),
(341,403,o),
(225,444,o),
(144,444,cs),
(80,444,o),
(38,404,o),
(36,329,c),
(101,329,l),
(102,359,o),
(115,378,o),
(145,378,cs),
(201,378,o),
(320,337,o),
(399,337,cs)
);
},
{
closed = 1;
nodes = (
(471,178,o),
(505,223,o),
(507,293,c),
(442,293,l),
(441,263,o),
(426,244,o),
(394,244,cs),
(341,244,o),
(225,285,o),
(144,285,cs),
(80,285,o),
(38,245,o),
(36,170,c),
(101,170,l),
(102,200,o),
(115,219,o),
(145,219,cs),
(201,219,o),
(320,178,o),
(399,178,cs)
);
}
);
width = 560;
}
);
note = approxequal;
unicode = 8776;
},
{
glyphname = Delta;
layers = (
{
hints = (
{
horizontal = 1;
place = (0, 73);
place = (0, 73);
type = Stem;
},
{
horizontal = 1;
place = (715, -20);
target = down;
type = TopGhost;
},
{
place = (19, 610);
place = (19, 610);
type = Stem;
},
{
horizontal = 1;
place = (636, 79);
place = (636, 79);
type = Stem;
}
);
layerId = m01;
shapes = (
{
closed = 1;
nodes = (
(19,0,l),
(629,0,l),
(629,79,l),
(374,715,l),
(273,715,l),
(19,80,l)
);
},
{
closed = 1;
nodes = (
(288,535,ls),
(304,575,o),
(322,636,o),
(322,636,c),
(324,636,l),
(324,636,o),
(342,575,o),
(357,535,cs),
(537,73,l),
(107,73,l)
);
}
);
width = 648;
}
);
note = Delta;
unicode = 8710;
},
{
glyphname = guillemotleft;
kernLeft = guillemotleft;
kernRight = guillemotleft;
layers = (
{
hints = (
{
horizontal = 1;
place = (113, 317);
place = (113, 317);
type = Stem;
},
{
place = (50, 137);
place = (50, 137);
type = Stem;
},
{
place = (237, 137);
place = (237, 137);
type = Stem;
}
);
layerId = m01;
shapes = (
{
closed = 1;
nodes = (
(374,113,l),
(374,192,l),
(281,271,l),
(281,273,l),
(374,351,l),
(374,430,l),
(237,315,l),
(237,228,l)
);
},
{
closed = 1;
nodes = (
(187,113,l),
(187,192,l),
(94,271,l),
(94,273,l),
(187,351,l),
(187,430,l),
(50,315,l),
(50,228,l)
);
}
);
width = 424;
}
);
note = guillemotleft;
unicode = 171;
},
{
glyphname = guillemotright;
kernLeft = guillemotright;
kernRight = guillemotright;
layers = (
{
hints = (
{
horizontal = 1;
place = (113, 317);
place = (113, 317);
type = Stem;
},
{
place = (50, 137);
place = (50, 137);
type = Stem;
},
{
place = (237, 137);
place = (237, 137);
type = Stem;
}
);
layerId = m01;
shapes = (
{
closed = 1;
nodes = (
(237,113,l),
(374,228,l),
(374,315,l),
(237,430,l),
(237,351,l),
(330,272,l),
(330,270,l),
(237,192,l)
);
},
{
closed = 1;
nodes = (
(50,113,l),
(187,228,l),
(187,315,l),
(50,430,l),
(50,351,l),
(143,272,l),
(143,270,l),
(50,192,l)
);
}
);
width = 424;
}
);
note = guillemotright;
unicode = 187;
},
{
glyphname = ellipsis;
kernLeft = comma;
kernRight = comma;
layers = (
{
hints = (
{
horizontal = 1;
place = (0, 99);
place = (0, 99);
type = Stem;
},
{
place = (44, 97);
place = (44, 97);
type = Stem;
},
{
place = (259, 97);
place = (259, 97);
type = Stem;
},
{
place = (474, 97);
place = (474, 97);
type = Stem;
}
);
layerId = m01;
shapes = (
{
closed = 1;
nodes = (
(474,0,l),
(571,0,l),
(571,99,l),
(474,99,l)
);
},
{
closed = 1;
nodes = (
(44,0,l),
(141,0,l),
(141,99,l),
(44,99,l)
);
},
{
closed = 1;
nodes = (
(259,0,l),
(356,0,l),
(356,99,l),
(259,99,l)
);
}
);
width = 615;
}
);
note = ellipsis;
unicode = 8230;
},
{
glyphname = Agrave;
kernLeft = A;
kernRight = A;
layers = (
{
hints = (
{
horizontal = 1;
place = (0, 21);
target = up;
type = BottomGhost;
},
{
horizontal = 1;
place = (218, 73);
place = (218, 73);
type = Stem;
},
{
horizontal = 1;
place = (715, -20);
target = down;
type = TopGhost;
},
{
horizontal = 1;
place = (753, 121);
place = (753, 121);
type = Stem;
},
{
place = (10, 628);
place = (10, 628);
type = Stem;
},
{
horizontal = 1;
place = (632, 83);
place = (632, 83);
type = Stem;
}
);
layerId = m01;
shapes = (
{
closed = 1;
nodes = (
(10,0,l),
(102,0,l),
(179,218,l),
(464,218,l),
(540,0,l),
(638,0,l),
(374,715,l),
(273,715,l)
);
},
{
closed = 1;
nodes = (
(290,531,ls),
(304,572,o),
(323,632,o),
(323,632,c),
(325,632,l),
(325,632,o),
(343,571,o),
(357,531,cs),
(439,291,l),
(205,291,l)
);
},
{
closed = 1;
nodes = (
(300,753,l),
(369,753,l),
(318,874,l),
(218,874,l)
);
}
);
width = 648;
}
);
note = Agrave;
unicode = 192;
},
{
glyphname = Atilde;
kernLeft = A;
kernRight = A;
layers = (
{
hints = (
{
horizontal = 1;
place = (0, 21);
target = up;
type = BottomGhost;
},
{
horizontal = 1;
place = (218, 73);
place = (218, 73);
type = Stem;
},
{
horizontal = 1;
place = (715, -20);
target = down;
type = TopGhost;
},
{
horizontal = 1;
place = (760, 62);
place = (760, 62);
type = Stem;
},
{
place = (187, 60);
place = (187, 60);
type = Stem;
},
{
place = (408, 58);
place = (408, 58);
type = Stem;
},
{
horizontal = 1;
place = (632, 83);
place = (632, 83);
type = Stem;
},
{
horizontal = 1;
place = (792, 62);
place = (792, 62);
type = Stem;
}
);
layerId = m01;
shapes = (
{
closed = 1;
nodes = (
(10,0,l),
(102,0,l),
(179,218,l),
(464,218,l),
(540,0,l),
(638,0,l),
(374,715,l),
(273,715,l)
);
},
{
closed = 1;
nodes = (
(290,531,ls),
(304,572,o),
(323,632,o),
(323,632,c),
(325,632,l),
(325,632,o),
(343,571,o),
(357,531,cs),
(439,291,l),
(205,291,l)
);
},
{
closed = 1;
nodes = (
(442,760,o),
(463,801,o),
(466,852,c),
(408,852,l),
(406,836,o),
(400,822,o),
(381,822,cs),
(344,822,o),
(318,854,o),
(264,854,cs),
(217,854,o),
(192,819,o),
(187,762,c),
(247,762,l),
(248,780,o),
(256,792,o),
(270,792,cs),
(297,792,o),
(342,760,o),
(390,760,cs)
);
}
);
width = 648;
}
);
note = Atilde;
unicode = 195;
},
{
glyphname = Otilde;
kernLeft = C;
kernRight = O;
layers = (
{
hints = (
{
horizontal = 1;
place = (-15, 79);
place = (-15, 79);
type = Stem;
},
{
horizontal = 1;
place = (653, 78);
place = (653, 78);
type = Stem;
},
{
place = (40, 92);
place = (40, 92);
type = Stem;
},
{
place = (648, 92);
place = (648, 92);
type = Stem;
},
{
horizontal = 1;
place = (760, 62);
place = (760, 62);
type = Stem;
},
{
place = (472, 58);
place = (472, 58);
type = Stem;
},
{
horizontal = 1;
place = (792, 62);
place = (792, 62);
type = Stem;
},
{
place = (251, 60);
place = (251, 60);
type = Stem;
}
);
layerId = m01;
shapes = (
{
closed = 1;
nodes = (
(606,-15,o),
(740,144,o),
(740,358,cs),
(740,572,o),
(606,731,o),
(390,731,cs),
(174,731,o),
(40,572,o),
(40,358,cs),
(40,144,o),
(174,-15,o),
(390,-15,cs)
);
},
{
closed = 1;
nodes = (
(222,64,o),
(132,190,o),
(132,358,cs),
(132,526,o),
(222,653,o),
(390,653,cs),
(558,653,o),
(648,526,o),
(648,358,cs),
(648,190,o),
(558,64,o),
(390,64,cs)
);
},
{
closed = 1;
nodes = (
(506,760,o),
(527,801,o),
(530,852,c),
(472,852,l),
(470,836,o),
(464,822,o),
(445,822,cs),
(408,822,o),
(382,854,o),
(328,854,cs),
(281,854,o),
(256,819,o),
(251,762,c),
(311,762,l),
(312,780,o),
(320,792,o),
(334,792,cs),
(361,792,o),
(406,760,o),
(454,760,cs)
);
}
);
width = 780;
}
);
note = Otilde;
unicode = 213;
},
{
glyphname = OE;
kernLeft = C;
kernRight = E;
layers = (
{
hints = (
{
horizontal = 1;
place = (-15, 79);
place = (-15, 79);
type = Stem;
},
{
horizontal = 1;
place = (334, 76);
place = (334, 76);
type = Stem;
},
{
horizontal = 1;
place = (636, 79);
place = (636, 79);
type = Stem;
},
{
place = (40, 92);
place = (40, 92);
type = Stem;
},
{
place = (549, 90);
place = (549, 90);
type = Stem;
},
{
horizontal = 1;
place = (0, 83);
place = (0, 83);
type = Stem;
},
{
horizontal = 1;
place = (653, 78);
place = (653, 78);
type = Stem;
}
);
layerId = m01;
shapes = (
{
closed = 1;
nodes = (
(447,-15,o),
(507,11,o),
(549,56,c),
(549,0,l),
(1034,0,l),
(1034,83,l),
(639,83,l),
(639,334,l),
(984,334,l),
(984,410,l),
(639,410,l),
(639,636,l),
(1022,636,l),
(1022,715,l),
(549,715,l),
(549,649,l),
(505,701,o),
(444,731,o),
(367,731,cs),
(179,731,o),
(40,572,o),
(40,358,cs),
(40,144,o),
(174,-15,o),
(367,-15,cs)
);
},
{
closed = 1;
nodes = (
(218,64,o),
(132,190,o),
(132,358,cs),
(132,526,o),
(219,653,o),
(369,653,cs),
(456,653,o),
(544,599,o),
(549,522,c),
(549,195,ls),
(549,113,o),
(458,64,o),
(369,64,cs)
);
}
);
width = 1072;
}
);
note = OE;
unicode = 338;
},
{
glyphname = oe;
kernLeft = c;
kernRight = e;
layers = (
{
hints = (
{
horizontal = 1;
place = (-14, 68);
place = (-14, 68);
type = Stem;
},
{
horizontal = 1;
place = (239, 61);
place = (239, 61);
type = Stem;
},
{
horizontal = 1;
place = (466, 64);
place = (466, 64);
type = Stem;
},
{
place = (26, 83);
place = (26, 83);
type = Stem;
},
{
place = (392, 74);
place = (392, 74);
type = Stem;
},
{
place = (747, 87);
place = (747, 87);
type = Stem;
},
{
horizontal = 1;
place = (463, 67);
place = (463, 67);
type = Stem;
}
);
layerId = m01;
shapes = (
{
closed = 1;
nodes = (
(334,-14,o),
(394,30,o),
(429,99,c),
(464,30,o),
(527,-14,o),
(621,-14,cs),
(728,-14,o),
(804,51,o),
(823,160,c),
(744,160,l),
(730,95,o),
(688,54,o),
(621,54,cs),
(518,54,o),
(471,134,o),
(466,239,c),
(834,239,l),
(834,407,o),
(760,530,o),
(610,530,cs),
(522,530,o),
(462,486,o),
(428,419,c),
(393,486,o),
(333,530,o),
(251,530,cs),
(106,530,o),
(26,408,o),
(26,258,cs),
(26,108,o),
(106,-14,o),
(251,-14,cs)
);
},
{
closed = 1;
nodes = (
(155,54,o),
(109,144,o),
(109,258,cs),
(109,372,o),
(155,463,o),
(251,463,cs),
(347,463,o),
(392,372,o),
(392,258,cs),
(392,144,o),
(347,54,o),
(251,54,cs)
);
},
{
closed = 1;
nodes = (
(692,466,o),
(745,403,o),
(747,300,c),
(468,300,l),
(478,394,o),
(522,466,o),
(610,466,cs)
);
}
);
width = 858;
}
);
note = oe;
unicode = 339;
},
{
glyphname = endash;
kernLeft = hyphen;
kernRight = hyphen;
layers = (
{
hints = (
{
horizontal = 1;
place = (220, 69);
place = (220, 69);
type = Stem;
},
{
place = (48, 427);
place = (48, 427);
type = Stem;
}
);
layerId = m01;
shapes = (
{
closed = 1;
nodes = (
(48,220,l),
(475,220,l),
(475,289,l),
(48,289,l)
);
}
);
width = 523;
}
);
note = endash;
unicode = 8211;
},
{
glyphname = emdash;
kernLeft = hyphen;
kernRight = hyphen;
layers = (
{
hints = (
{
horizontal = 1;
place = (220, 69);
place = (220, 69);
type = Stem;
},
{
place = (48, 707);
place = (48, 707);
type = Stem;
}
);
layerId = m01;
shapes = (
{
closed = 1;
nodes = (
(48,220,l),
(755,220,l),
(755,289,l),
(48,289,l)
);
}
);
width = 803;
}
);
note = emdash;
unicode = 8212;
},
{
glyphname = quotedblleft;
kernLeft = quotedblleft;
kernRight = quotedblleft;
layers = (
{
hints = (
{
horizontal = 1;
place = (507, 100);
place = (507, 100);
type = Stem;
},
{
horizontal = 1;
place = (717, -20);
target = down;
type = TopGhost;
},
{
place = (42, 85);
place = (42, 85);
type = Stem;
},
{
place = (193, 85);
place = (193, 85);
type = Stem;
},
{
horizontal = 1;
place = (679, 38);
place = (679, 38);
type = Stem;
}
);
layerId = m01;
shapes = (
{
closed = 1;
nodes = (
(42,507,l),
(127,507,l),
(127,607,l),
(88,607,l),
(88,650,o),
(103,670,o),
(126,679,c),
(126,717,l),
(79,710,o),
(42,679,o),
(42,607,cs)
);
},
{
closed = 1;
nodes = (
(193,507,l),
(278,507,l),
(278,607,l),
(239,607,l),
(239,650,o),
(254,670,o),
(277,679,c),
(277,717,l),
(230,710,o),
(193,679,o),
(193,607,cs)
);
}
);
width = 320;
}
);
note = quotedblleft;
unicode = 8220;
},
{
glyphname = quotedblright;
kernLeft = quotedblright;
kernRight = quotedblright;
layers = (
{
hints = (
{
horizontal = 1;
place = (615, 100);
place = (615, 100);
type = Stem;
},
{
place = (42, 85);
place = (42, 85);
type = Stem;
},
{
place = (193, 85);
place = (193, 85);
type = Stem;
}
);
layerId = m01;
shapes = (
{
closed = 1;
nodes = (
(278,715,l),
(193,715,l),
(193,615,l),
(232,615,l),
(232,572,o),
(217,552,o),
(194,543,c),
(194,505,l),
(241,512,o),
(278,543,o),
(278,615,cs)
);
},
{
closed = 1;
nodes = (
(127,715,l),
(42,715,l),
(42,615,l),
(81,615,l),
(81,572,o),
(66,552,o),
(43,543,c),
(43,505,l),
(90,512,o),
(127,543,o),
(127,615,cs)
);
}
);
width = 320;
}
);
note = quotedblright;
unicode = 8221;
},
{
glyphname = quoteleft;
kernLeft = quotedblleft;
kernRight = quotedblleft;
layers = (
{
hints = (
{
horizontal = 1;
place = (507, 100);
place = (507, 100);
type = Stem;
},
{
horizontal = 1;
place = (717, -20);
target = down;
type = TopGhost;
},
{
place = (42, 85);
place = (42, 85);
type = Stem;
}
);
layerId = m01;
shapes = (
{
closed = 1;
nodes = (
(42,507,l),
(127,507,l),
(127,607,l),
(88,607,l),
(88,650,o),
(103,670,o),
(126,679,c),
(126,717,l),
(79,710,o),
(42,679,o),
(42,607,cs)
);
}
);
width = 169;
}
);
note = quoteleft;
unicode = 8216;
},
{
glyphname = quoteright;
kernLeft = quotedblright;
kernRight = quotedblright;
layers = (
{
hints = (
{
horizontal = 1;
place = (615, 100);
place = (615, 100);
type = Stem;
},
{
place = (42, 85);
place = (42, 85);
type = Stem;
}
);
layerId = m01;
shapes = (
{
closed = 1;
nodes = (
(127,715,l),
(42,715,l),
(42,615,l),
(81,615,l),
(81,572,o),
(66,552,o),
(43,543,c),
(43,505,l),
(90,512,o),
(127,543,o),
(127,615,cs)
);
}
);
width = 169;
}
);
note = quoteright;
unicode = 8217;
},
{
glyphname = divide;
kernLeft = minus;
kernRight = minus;
layers = (
{
hints = (
{
place = (105, 99);
place = (105, 99);
type = Stem;
},
{
place = (294, 64);
place = (294, 64);
type = Stem;
},
{
place = (448, 99);
place = (448, 99);
type = Stem;
},
{
place = (232, 97);
place = (232, 97);
type = Stem;
}
);
layerId = m01;
shapes = (
{
closed = 1;
nodes = (
(53,294,l),
(507,294,l),
(507,358,l),
(53,358,l)
);
},
{
closed = 1;
nodes = (
(232,105,l),
(329,105,l),
(329,204,l),
(232,204,l)
);
},
{
closed = 1;
nodes = (
(232,448,l),
(329,448,l),
(329,547,l),
(232,547,l)
);
}
);
width = 560;
}
);
note = divide;
unicode = 247;
},
{
glyphname = lozenge;
layers = (
{
hints = (
{
horizontal = 1;
place = (0, 21);
target = up;
type = BottomGhost;
},
{
horizontal = 1;
place = (715, -20);
target = down;
type = TopGhost;
},
{
place = (26, 494);
place = (26, 494);
type = Stem;
},
{
horizontal = 1;
place = (0, 79);
place = (0, 79);
type = Stem;
},
{
horizontal = 1;
place = (636, 79);
place = (636, 79);
type = Stem;
}
);
layerId = m01;
shapes = (
{
closed = 1;
nodes = (
(318,715,l),
(227,715,l),
(26,358,l),
(228,0,l),
(319,0,l),
(520,357,l)
);
},
{
closed = 1;
nodes = (
(271,636,l),
(273,636,l),
(425,354,l),
(275,79,l),
(273,79,l),
(120,360,l)
);
}
);
width = 546;
}
);
note = lozenge;
unicode = 9674;
},
{
glyphname = ydieresis;
kernLeft = yacute;
kernRight = yacute;
layers = (
{
hints = (
{
horizontal = 1;
place = (-171, 72);
place = (-171, 72);
type = Stem;
},
{
horizontal = 1;
place = (517, -20);
target = down;
type = TopGhost;
},
{
horizontal = 1;
place = (615, 95);
place = (615, 95);
type = Stem;
},
{
place = (128, 78);
place = (128, 78);
type = Stem;
},
{
place = (292, 78);
place = (292, 78);
type = Stem;
},
{
horizontal = 1;
place = (-160, 21);
target = up;
type = BottomGhost;
}
);
layerId = m01;
shapes = (
{
closed = 1;
nodes = (
(184,-171,o),
(224,-149,o),
(266,-42,cs),
(487,517,l),
(401,517,l),
(283,195,ls),
(267,152,o),
(249,94,o),
(249,94,c),
(247,94,l),
(247,94,o),
(228,152,o),
(212,195,cs),
(90,517,l),
(2,517,l),
(204,15,l),
(184,-36,ls),
(164,-86,o),
(141,-99,o),
(107,-99,cs),
(80,-99,o),
(63,-94,o),
(52,-88,c),
(48,-88,l),
(48,-160,l),
(70,-169,o),
(90,-171,o),
(121,-171,cs)
);
},
{
closed = 1;
nodes = (
(292,615,l),
(370,615,l),
(370,710,l),
(292,710,l)
);
},
{
closed = 1;
nodes = (
(128,615,l),
(206,615,l),
(206,710,l),
(128,710,l)
);
}
);
width = 489;
}
);
note = ydieresis;
unicode = 255;
},
{
glyphname = Ydieresis;
kernLeft = Yacute;
kernRight = Yacute;
layers = (
{
hints = (
{
horizontal = 1;
place = (0, 21);
target = up;
type = BottomGhost;
},
{
horizontal = 1;
place = (715, -20);
target = down;
type = TopGhost;
},
{
horizontal = 1;
place = (760, 95);
place = (760, 95);
type = Stem;
},
{
place = (269, 90);
place = (269, 90);
type = Stem;
},
{
place = (194, 78);
place = (194, 78);
type = Stem;
},
{
place = (358, 78);
place = (358, 78);
type = Stem;
}
);
layerId = m01;
shapes = (
{
closed = 1;
nodes = (
(269,0,l),
(359,0,l),
(359,301,l),
(621,715,l),
(525,715,l),
(317,375,l),
(315,375,l),
(110,715,l),
(10,715,l),
(269,303,l)
);
},
{
closed = 1;
nodes = (
(358,760,l),
(436,760,l),
(436,855,l),
(358,855,l)
);
},
{
closed = 1;
nodes = (
(194,760,l),
(272,760,l),
(272,855,l),
(194,855,l)
);
}
);
width = 631;
}
);
note = Ydieresis;
unicode = 376;
},
{
glyphname = fraction;
layers = (
{
hints = (
{
horizontal = 1;
place = (0, 21);
target = up;
type = BottomGhost;
},
{
horizontal = 1;
place = (715, -20);
target = down;
type = TopGhost;
},
{
place = (-178, 525);
place = (-178, 525);
type = Stem;
}
);
layerId = m01;
shapes = (
{
closed = 1;
nodes = (
(-178,0,l),
(-106,0,l),
(347,715,l),
(275,715,l)
);
}
);
width = 169;
}
);
note = fraction;
unicode = 8260;
},
{
glyphname = Euro;
layers = (
{
hints = (
{
horizontal = 1;
place = (-15, 73);
place = (-15, 73);
type = Stem;
},
{
horizontal = 1;
place = (253, 54);
place = (253, 54);
type = Stem;
},
{
horizontal = 1;
place = (376, 54);
place = (376, 54);
type = Stem;
},
{
horizontal = 1;
place = (629, 72);
place = (629, 72);
type = Stem;
},
{
place = (80, 89);
place = (80, 89);
type = Stem;
},
{
place = (509, 78);
place = (509, 78);
type = Stem;
}
);
layerId = m01;
shapes = (
{
closed = 1;
nodes = (
(22,376,l),
(80,376,l),
(79,364,o),
(79,353,o),
(79,341,cs),
(79,329,o),
(79,318,o),
(80,307,c),
(22,307,l),
(22,253,l),
(86,253,l),
(114,83,o),
(223,-15,o),
(352,-15,cs),
(490,-15,o),
(582,88,o),
(587,227,c),
(509,227,l),
(497,122,o),
(448,58,o),
(357,58,cs),
(259,58,o),
(194,127,o),
(174,253,c),
(374,253,l),
(374,307,l),
(169,307,l),
(168,318,o),
(168,329,o),
(168,341,cs),
(168,353,o),
(168,364,o),
(169,376,c),
(374,376,l),
(374,430,l),
(174,430,l),
(193,553,o),
(253,629,o),
(351,629,cs),
(433,629,o),
(482,581,o),
(498,497,c),
(580,497,l),
(564,618,o),
(478,701,o),
(353,701,cs),
(215,701,o),
(113,595,o),
(86,430,c),
(22,430,l)
);
}
);
width = 611;
}
);
note = Euro;
unicode = 8364;
},
{
glyphname = guilsinglleft;
kernLeft = guillemotleft;
kernRight = guillemotleft;
layers = (
{
hints = (
{
horizontal = 1;
place = (113, 317);
place = (113, 317);
type = Stem;
},
{
place = (50, 146);
place = (50, 146);
type = Stem;
}
);
layerId = m01;
shapes = (
{
closed = 1;
nodes = (
(196,113,l),
(196,192,l),
(92,271,l),
(92,273,l),
(196,351,l),
(196,430,l),
(50,315,l),
(50,228,l)
);
}
);
width = 246;
}
);
note = guilsinglleft;
unicode = 8249;
},
{
glyphname = guilsinglright;
kernLeft = guillemotright;
kernRight = guillemotright;
layers = (
{
hints = (
{
horizontal = 1;
place = (113, 317);
place = (113, 317);
type = Stem;
},
{
place = (50, 146);
place = (50, 146);
type = Stem;
}
);
layerId = m01;
shapes = (
{
closed = 1;
nodes = (
(50,113,l),
(196,228,l),
(196,315,l),
(50,430,l),
(50,351,l),
(154,272,l),
(154,270,l),
(50,192,l)
);
}
);
width = 246;
}
);
note = guilsinglright;
unicode = 8250;
},
{
glyphname = fi;
kernLeft = f;
kernRight = d;
layers = (
{
hints = (
{
horizontal = 1;
place = (0, 21);
target = up;
type = BottomGhost;
},
{
horizontal = 1;
place = (451, 66);
place = (451, 66);
type = Stem;
},
{
horizontal = 1;
place = (615, 100);
place = (615, 100);
type = Stem;
},
{
place = (93, 81);
place = (93, 81);
type = Stem;
},
{
place = (339, 81);
place = (339, 81);
type = Stem;
},
{
horizontal = 1;
place = (651, 70);
place = (651, 70);
type = Stem;
}
);
layerId = m01;
shapes = (
{
closed = 1;
nodes = (
(22,451,l),
(93,451,l),
(93,0,l),
(174,0,l),
(174,451,l),
(270,451,l),
(270,517,l),
(174,517,l),
(174,596,ls),
(174,638,o),
(193,651,o),
(245,651,cs),
(253,651,o),
(257,651,o),
(271,650,c),
(271,719,l),
(260,720,o),
(247,721,o),
(230,721,cs),
(144,721,o),
(93,689,o),
(93,600,cs),
(93,517,l),
(22,517,l)
);
},
{
closed = 1;
nodes = (
(339,0,l),
(420,0,l),
(420,517,l),
(339,517,l)
);
},
{
closed = 1;
nodes = (
(339,615,l),
(420,615,l),
(420,715,l),
(339,715,l)
);
}
);
width = 475;
}
);
note = fi;
unicode = 64257;
},
{
glyphname = fl;
kernLeft = f;
kernRight = d;
layers = (
{
hints = (
{
horizontal = 1;
place = (0, 21);
target = up;
type = BottomGhost;
},
{
horizontal = 1;
place = (451, 66);
place = (451, 66);
type = Stem;
},
{
horizontal = 1;
place = (651, 70);
place = (651, 70);
type = Stem;
},
{
place = (93, 81);
place = (93, 81);
type = Stem;
},
{
place = (342, 81);
place = (342, 81);
type = Stem;
},
{
horizontal = 1;
place = (715, -20);
target = down;
type = TopGhost;
}
);
layerId = m01;
shapes = (
{
closed = 1;
nodes = (
(342,0,l),
(423,0,l),
(423,715,l),
(342,715,l)
);
},
{
closed = 1;
nodes = (
(22,451,l),
(93,451,l),
(93,0,l),
(174,0,l),
(174,451,l),
(270,451,l),
(270,517,l),
(174,517,l),
(174,596,ls),
(174,638,o),
(193,651,o),
(245,651,cs),
(253,651,o),
(257,651,o),
(271,650,c),
(271,719,l),
(260,720,o),
(247,721,o),
(230,721,cs),
(144,721,o),
(93,689,o),
(93,600,cs),
(93,517,l),
(22,517,l)
);
}
);
width = 481;
}
);
note = fl;
unicode = 64258;
},
{
glyphname = daggerdbl;
layers = (
{
hints = (
{
horizontal = 1;
place = (82, 73);
place = (82, 73);
type = Stem;
},
{
horizontal = 1;
place = (456, 73);
place = (456, 73);
type = Stem;
},
{
horizontal = 1;
place = (715, -20);
target = down;
type = TopGhost;
},
{
place = (232, 82);
place = (232, 82);
type = Stem;
}
);
layerId = m01;
shapes = (
{
closed = 1;
nodes = (
(34,456,l),
(232,456,l),
(232,155,l),
(34,155,l),
(34,82,l),
(232,82,l),
(232,-104,l),
(314,-104,l),
(314,82,l),
(512,82,l),
(512,155,l),
(314,155,l),
(314,456,l),
(512,456,l),
(512,529,l),
(314,529,l),
(314,715,l),
(232,715,l),
(232,529,l),
(34,529,l)
);
}
);
width = 546;
}
);
note = daggerdbl;
unicode = 8225;
},
{
glyphname = periodcentered;
kernLeft = periodcentered;
kernRight = periodcentered;
layers = (
{
hints = (
{
horizontal = 1;
place = (263, 99);
place = (263, 99);
type = Stem;
},
{
place = (47, 97);
place = (47, 97);
type = Stem;
}
);
layerId = m01;
shapes = (
{
closed = 1;
nodes = (
(47,263,l),
(144,263,l),
(144,362,l),
(47,362,l)
);
}
);
width = 185;
}
);
note = periodcentered;
unicode = 183;
},
{
glyphname = quotesinglbase;
kernLeft = quotesinglbase;
kernRight = quotesinglbase;
layers = (
{
hints = (
{
horizontal = 1;
place = (0, 100);
place = (0, 100);
type = Stem;
},
{
place = (42, 85);
place = (42, 85);
type = Stem;
}
);
layerId = m01;
shapes = (
{
closed = 1;
nodes = (
(127,100,l),
(42,100,l),
(42,0,l),
(81,0,l),
(81,-43,o),
(66,-63,o),
(43,-72,c),
(43,-110,l),
(90,-103,o),
(127,-72,o),
(127,0,cs)
);
}
);
width = 169;
}
);
note = quotesinglbase;
unicode = 8218;
},
{
glyphname = quotedblbase;
kernLeft = quotesinglbase;
kernRight = quotesinglbase;
layers = (
{
hints = (
{
horizontal = 1;
place = (0, 100);
place = (0, 100);
type = Stem;
},
{
place = (42, 85);
place = (42, 85);
type = Stem;
},
{
place = (193, 85);
place = (193, 85);
type = Stem;
}
);
layerId = m01;
shapes = (
{
closed = 1;
nodes = (
(278,100,l),
(193,100,l),
(193,0,l),
(232,0,l),
(232,-43,o),
(217,-63,o),
(194,-72,c),
(194,-110,l),
(241,-103,o),
(278,-72,o),
(278,0,cs)
);
},
{
closed = 1;
nodes = (
(127,100,l),
(42,100,l),
(42,0,l),
(81,0,l),
(81,-43,o),
(66,-63,o),
(43,-72,c),
(43,-110,l),
(90,-103,o),
(127,-72,o),
(127,0,cs)
);
}
);
width = 320;
}
);
note = quotedblbase;
unicode = 8222;
},
{
glyphname = perthousand;
kernLeft = percent;
layers = (
{
hints = (
{
horizontal = 1;
place = (-15, 60);
place = (-15, 60);
type = Stem;
},
{
horizontal = 1;
place = (305, 60);
place = (305, 60);
type = Stem;
},
{
horizontal = 1;
place = (641, 60);
place = (641, 60);
type = Stem;
},
{
place = (24, 76);
place = (24, 76);
type = Stem;
},
{
place = (272, 74);
place = (272, 74);
type = Stem;
},
{
place = (447, 76);
place = (447, 76);
type = Stem;
},
{
place = (695, 74);
place = (695, 74);
type = Stem;
},
{
horizontal = 1;
place = (321, 60);
place = (321, 60);
type = Stem;
},
{
place = (807, 76);
place = (807, 76);
type = Stem;
},
{
place = (1055, 74);
place = (1055, 74);
type = Stem;
},
{
horizontal = 1;
place = (0, 21);
target = up;
type = BottomGhost;
},
{
horizontal = 1;
place = (685, -20);
target = down;
type = TopGhost;
}
);
layerId = m01;
shapes = (
{
closed = 1;
nodes = (
(282,305,o),
(346,383,o),
(346,503,cs),
(346,627,o),
(278,701,o),
(186,701,cs),
(94,701,o),
(24,625,o),
(24,503,cs),
(24,383,o),
(90,305,o),
(186,305,cs)
);
},
{
closed = 1;
nodes = (
(705,-15,o),
(769,63,o),
(769,183,cs),
(769,307,o),
(701,381,o),
(609,381,cs),
(517,381,o),
(447,305,o),
(447,183,cs),
(447,63,o),
(513,-15,o),
(609,-15,cs)
);
},
{
closed = 1;
nodes = (
(1065,-15,o),
(1129,63,o),
(1129,183,cs),
(1129,307,o),
(1061,381,o),
(969,381,cs),
(877,381,o),
(807,305,o),
(807,183,cs),
(807,63,o),
(873,-15,o),
(969,-15,cs)
);
},
{
closed = 1;
nodes = (
(166,0,l),
(234,0,l),
(627,685,l),
(559,685,l)
);
},
{
closed = 1;
nodes = (
(130,365,o),
(100,425,o),
(100,503,cs),
(100,583,o),
(130,641,o),
(186,641,cs),
(241,641,o),
(272,581,o),
(272,503,cs),
(272,423,o),
(243,365,o),
(186,365,cs)
);
},
{
closed = 1;
nodes = (
(553,45,o),
(523,105,o),
(523,183,cs),
(523,263,o),
(553,321,o),
(609,321,cs),
(664,321,o),
(695,261,o),
(695,183,cs),
(695,103,o),
(666,45,o),
(609,45,cs)
);
},
{
closed = 1;
nodes = (
(913,45,o),
(883,105,o),
(883,183,cs),
(883,263,o),
(913,321,o),
(969,321,cs),
(1024,321,o),
(1055,261,o),
(1055,183,cs),
(1055,103,o),
(1026,45,o),
(969,45,cs)
);
}
);
width = 1153;
}
);
note = perthousand;
unicode = 8240;
},
{
glyphname = Acircumflex;
kernLeft = A;
kernRight = A;
layers = (
{
hints = (
{
horizontal = 1;
place = (0, 21);
target = up;
type = BottomGhost;
},
{
horizontal = 1;
place = (218, 73);
place = (218, 73);
type = Stem;
},
{
horizontal = 1;
place = (715, -20);
target = down;
type = TopGhost;
},
{
horizontal = 1;
place = (757, 106);
place = (757, 106);
type = Stem;
},
{
place = (10, 628);
place = (10, 628);
type = Stem;
},
{
horizontal = 1;
place = (632, 83);
place = (632, 83);
type = Stem;
}
);
layerId = m01;
shapes = (
{
closed = 1;
nodes = (
(10,0,l),
(102,0,l),
(179,218,l),
(464,218,l),
(540,0,l),
(638,0,l),
(374,715,l),
(273,715,l)
);
},
{
closed = 1;
nodes = (
(290,531,ls),
(304,572,o),
(323,632,o),
(323,632,c),
(325,632,l),
(325,632,o),
(343,571,o),
(357,531,cs),
(439,291,l),
(205,291,l)
);
},
{
closed = 1;
nodes = (
(189,757,l),
(274,757,l),
(325,820,l),
(327,820,l),
(376,757,l),
(463,757,l),
(374,863,l),
(282,863,l)
);
}
);
width = 648;
}
);
note = Acircumflex;
unicode = 194;
},
{
glyphname = Ecircumflex;
kernRight = E;
layers = (
{
hints = (
{
horizontal = 1;
place = (0, 83);
place = (0, 83);
type = Stem;
},
{
horizontal = 1;
place = (334, 76);
place = (334, 76);
type = Stem;
},
{
horizontal = 1;
place = (636, 79);
place = (636, 79);
type = Stem;
},
{
horizontal = 1;
place = (757, 106);
place = (757, 106);
type = Stem;
},
{
place = (67, 90);
place = (67, 90);
type = Stem;
}
);
layerId = m01;
shapes = (
{
closed = 1;
nodes = (
(67,0,l),
(584,0,l),
(584,83,l),
(157,83,l),
(157,334,l),
(534,334,l),
(534,410,l),
(157,410,l),
(157,636,l),
(572,636,l),
(572,715,l),
(67,715,l)
);
},
{
closed = 1;
nodes = (
(194,757,l),
(279,757,l),
(330,820,l),
(332,820,l),
(381,757,l),
(468,757,l),
(379,863,l),
(287,863,l)
);
}
);
width = 622;
}
);
note = Ecircumflex;
unicode = 202;
},
{
glyphname = Aacute;
kernLeft = A;
kernRight = A;
layers = (
{
hints = (
{
horizontal = 1;
place = (0, 21);
target = up;
type = BottomGhost;
},
{
horizontal = 1;
place = (218, 73);
place = (218, 73);
type = Stem;
},
{
horizontal = 1;
place = (715, -20);
target = down;
type = TopGhost;
},
{
horizontal = 1;
place = (753, 121);
place = (753, 121);
type = Stem;
},
{
place = (10, 628);
place = (10, 628);
type = Stem;
},
{
horizontal = 1;
place = (632, 83);
place = (632, 83);
type = Stem;
}
);
layerId = m01;
shapes = (
{
closed = 1;
nodes = (
(10,0,l),
(102,0,l),
(179,218,l),
(464,218,l),
(540,0,l),
(638,0,l),
(374,715,l),
(273,715,l)
);
},
{
closed = 1;
nodes = (
(290,531,ls),
(304,572,o),
(323,632,o),
(323,632,c),
(325,632,l),
(325,632,o),
(343,571,o),
(357,531,cs),
(439,291,l),
(205,291,l)
);
},
{
closed = 1;
nodes = (
(289,753,l),
(358,753,l),
(440,874,l),
(340,874,l)
);
}
);
width = 648;
}
);
note = Aacute;
unicode = 193;
},
{
glyphname = Edieresis;
kernRight = E;
layers = (
{
hints = (
{
horizontal = 1;
place = (0, 83);
place = (0, 83);
type = Stem;
},
{
horizontal = 1;
place = (334, 76);
place = (334, 76);
type = Stem;
},
{
horizontal = 1;
place = (636, 79);
place = (636, 79);
type = Stem;
},
{
horizontal = 1;
place = (760, 95);
place = (760, 95);
type = Stem;
},
{
place = (67, 90);
place = (67, 90);
type = Stem;
},
{
place = (210, 78);
place = (210, 78);
type = Stem;
},
{
place = (374, 78);
place = (374, 78);
type = Stem;
}
);
layerId = m01;
shapes = (
{
closed = 1;
nodes = (
(67,0,l),
(584,0,l),
(584,83,l),
(157,83,l),
(157,334,l),
(534,334,l),
(534,410,l),
(157,410,l),
(157,636,l),
(572,636,l),
(572,715,l),
(67,715,l)
);
},
{
closed = 1;
nodes = (
(374,760,l),
(452,760,l),
(452,855,l),
(374,855,l)
);
},
{
closed = 1;
nodes = (
(210,760,l),
(288,760,l),
(288,855,l),
(210,855,l)
);
}
);
width = 622;
}
);
note = Edieresis;
unicode = 203;
},
{
glyphname = Egrave;
kernRight = E;
layers = (
{
hints = (
{
horizontal = 1;
place = (0, 83);
place = (0, 83);
type = Stem;
},
{
horizontal = 1;
place = (334, 76);
place = (334, 76);
type = Stem;
},
{
horizontal = 1;
place = (636, 79);
place = (636, 79);
type = Stem;
},
{
horizontal = 1;
place = (753, 121);
place = (753, 121);
type = Stem;
},
{
place = (67, 90);
place = (67, 90);
type = Stem;
}
);
layerId = m01;
shapes = (
{
closed = 1;
nodes = (
(67,0,l),
(584,0,l),
(584,83,l),
(157,83,l),
(157,334,l),
(534,334,l),
(534,410,l),
(157,410,l),
(157,636,l),
(572,636,l),
(572,715,l),
(67,715,l)
);
},
{
closed = 1;
nodes = (
(305,753,l),
(374,753,l),
(323,874,l),
(223,874,l)
);
}
);
width = 622;
}
);
note = Egrave;
unicode = 200;
},
{
glyphname = Iacute;
layers = (
{
hints = (
{
horizontal = 1;
place = (0, 21);
target = up;
type = BottomGhost;
},
{
horizontal = 1;
place = (715, -20);
target = down;
type = TopGhost;
},
{
horizontal = 1;
place = (753, 121);
place = (753, 121);
type = Stem;
},
{
place = (69, 90);
place = (69, 90);
type = Stem;
}
);
layerId = m01;
shapes = (
{
closed = 1;
nodes = (
(69,0,l),
(159,0,l),
(159,715,l),
(69,715,l)
);
},
{
closed = 1;
nodes = (
(77,753,l),
(146,753,l),
(228,874,l),
(128,874,l)
);
}
);
width = 228;
}
);
note = Iacute;
unicode = 205;
},
{
glyphname = Icircumflex;
layers = (
{
hints = (
{
horizontal = 1;
place = (0, 21);
target = up;
type = BottomGhost;
},
{
horizontal = 1;
place = (715, -20);
target = down;
type = TopGhost;
},
{
horizontal = 1;
place = (757, 106);
place = (757, 106);
type = Stem;
},
{
place = (69, 90);
place = (69, 90);
type = Stem;
}
);
layerId = m01;
shapes = (
{
closed = 1;
nodes = (
(69,0,l),
(159,0,l),
(159,715,l),
(69,715,l)
);
},
{
closed = 1;
nodes = (
(-23,757,l),
(62,757,l),
(113,820,l),
(115,820,l),
(164,757,l),
(251,757,l),
(162,863,l),
(70,863,l)
);
}
);
width = 228;
}
);
note = Icircumflex;
unicode = 206;
},
{
glyphname = Idieresis;
layers = (
{
hints = (
{
horizontal = 1;
place = (0, 21);
target = up;
type = BottomGhost;
},
{
horizontal = 1;
place = (715, -20);
target = down;
type = TopGhost;
},
{
horizontal = 1;
place = (760, 95);
place = (760, 95);
type = Stem;
},
{
place = (69, 90);
place = (69, 90);
type = Stem;
},
{
place = (-7, 78);
place = (-7, 78);
type = Stem;
},
{
place = (157, 78);
place = (157, 78);
type = Stem;
}
);
layerId = m01;
shapes = (
{
closed = 1;
nodes = (
(69,0,l),
(159,0,l),
(159,715,l),
(69,715,l)
);
},
{
closed = 1;
nodes = (
(157,760,l),
(235,760,l),
(235,855,l),
(157,855,l)
);
},
{
closed = 1;
nodes = (
(-7,760,l),
(71,760,l),
(71,855,l),
(-7,855,l)
);
}
);
width = 228;
}
);
note = Idieresis;
unicode = 207;
},
{
glyphname = Igrave;
layers = (
{
hints = (
{
horizontal = 1;
place = (0, 21);
target = up;
type = BottomGhost;
},
{
horizontal = 1;
place = (715, -20);
target = down;
type = TopGhost;
},
{
horizontal = 1;
place = (753, 121);
place = (753, 121);
type = Stem;
},
{
place = (69, 90);
place = (69, 90);
type = Stem;
}
);
layerId = m01;
shapes = (
{
closed = 1;
nodes = (
(69,0,l),
(159,0,l),
(159,715,l),
(69,715,l)
);
},
{
closed = 1;
nodes = (
(88,753,l),
(157,753,l),
(106,874,l),
(6,874,l)
);
}
);
width = 228;
}
);
note = Igrave;
unicode = 204;
},
{
glyphname = Oacute;
kernLeft = C;
kernRight = O;
layers = (
{
hints = (
{
horizontal = 1;
place = (-15, 79);
place = (-15, 79);
type = Stem;
},
{
horizontal = 1;
place = (653, 78);
place = (653, 78);
type = Stem;
},
{
place = (40, 92);
place = (40, 92);
type = Stem;
},
{
place = (648, 92);
place = (648, 92);
type = Stem;
},
{
horizontal = 1;
place = (753, 121);
place = (753, 121);
type = Stem;
}
);
layerId = m01;
shapes = (
{
closed = 1;
nodes = (
(606,-15,o),
(740,144,o),
(740,358,cs),
(740,572,o),
(606,731,o),
(390,731,cs),
(174,731,o),
(40,572,o),
(40,358,cs),
(40,144,o),
(174,-15,o),
(390,-15,cs)
);
},
{
closed = 1;
nodes = (
(222,64,o),
(132,190,o),
(132,358,cs),
(132,526,o),
(222,653,o),
(390,653,cs),
(558,653,o),
(648,526,o),
(648,358,cs),
(648,190,o),
(558,64,o),
(390,64,cs)
);
},
{
closed = 1;
nodes = (
(353,753,l),
(422,753,l),
(504,874,l),
(404,874,l)
);
}
);
width = 780;
}
);
note = Oacute;
unicode = 211;
},
{
glyphname = Ocircumflex;
kernLeft = C;
kernRight = O;
layers = (
{
hints = (
{
horizontal = 1;
place = (-15, 79);
place = (-15, 79);
type = Stem;
},
{
horizontal = 1;
place = (653, 78);
place = (653, 78);
type = Stem;
},
{
place = (40, 92);
place = (40, 92);
type = Stem;
},
{
place = (648, 92);
place = (648, 92);
type = Stem;
},
{
horizontal = 1;
place = (757, 106);
place = (757, 106);
type = Stem;
}
);
layerId = m01;
shapes = (
{
closed = 1;
nodes = (
(606,-15,o),
(740,144,o),
(740,358,cs),
(740,572,o),
(606,731,o),
(390,731,cs),
(174,731,o),
(40,572,o),
(40,358,cs),
(40,144,o),
(174,-15,o),
(390,-15,cs)
);
},
{
closed = 1;
nodes = (
(222,64,o),
(132,190,o),
(132,358,cs),
(132,526,o),
(222,653,o),
(390,653,cs),
(558,653,o),
(648,526,o),
(648,358,cs),
(648,190,o),
(558,64,o),
(390,64,cs)
);
},
{
closed = 1;
nodes = (
(253,757,l),
(338,757,l),
(389,820,l),
(391,820,l),
(440,757,l),
(527,757,l),
(438,863,l),
(346,863,l)
);
}
);
width = 780;
}
);
note = Ocircumflex;
unicode = 212;
},
{
glyphname = Ograve;
kernLeft = C;
kernRight = O;
layers = (
{
hints = (
{
horizontal = 1;
place = (-15, 79);
place = (-15, 79);
type = Stem;
},
{
horizontal = 1;
place = (653, 78);
place = (653, 78);
type = Stem;
},
{
place = (40, 92);
place = (40, 92);
type = Stem;
},
{
place = (648, 92);
place = (648, 92);
type = Stem;
},
{
horizontal = 1;
place = (753, 121);
place = (753, 121);
type = Stem;
}
);
layerId = m01;
shapes = (
{
closed = 1;
nodes = (
(606,-15,o),
(740,144,o),
(740,358,cs),
(740,572,o),
(606,731,o),
(390,731,cs),
(174,731,o),
(40,572,o),
(40,358,cs),
(40,144,o),
(174,-15,o),
(390,-15,cs)
);
},
{
closed = 1;
nodes = (
(222,64,o),
(132,190,o),
(132,358,cs),
(132,526,o),
(222,653,o),
(390,653,cs),
(558,653,o),
(648,526,o),
(648,358,cs),
(648,190,o),
(558,64,o),
(390,64,cs)
);
},
{
closed = 1;
nodes = (
(364,753,l),
(433,753,l),
(382,874,l),
(282,874,l)
);
}
);
width = 780;
}
);
note = Ograve;
unicode = 210;
},
{
glyphname = Uacute;
kernLeft = U;
kernRight = U;
layers = (
{
hints = (
{
horizontal = 1;
place = (-11, 77);
place = (-11, 77);
type = Stem;
},
{
horizontal = 1;
place = (715, -20);
target = down;
type = TopGhost;
},
{
horizontal = 1;
place = (753, 121);
place = (753, 121);
type = Stem;
},
{
place = (55, 90);
place = (55, 90);
type = Stem;
},
{
place = (513, 90);
place = (513, 90);
type = Stem;
}
);
layerId = m01;
shapes = (
{
closed = 1;
nodes = (
(482,-11,o),
(603,58,o),
(603,231,cs),
(603,715,l),
(513,715,l),
(513,240,ls),
(513,118,o),
(445,66,o),
(332,66,cs),
(214,66,o),
(145,118,o),
(145,240,cs),
(145,715,l),
(55,715,l),
(55,231,ls),
(55,58,o),
(173,-11,o),
(329,-11,cs)
);
},
{
closed = 1;
nodes = (
(292,753,l),
(361,753,l),
(443,874,l),
(343,874,l)
);
}
);
width = 658;
}
);
note = Uacute;
unicode = 218;
},
{
glyphname = Ucircumflex;
kernLeft = U;
kernRight = U;
layers = (
{
hints = (
{
horizontal = 1;
place = (-11, 77);
place = (-11, 77);
type = Stem;
},
{
horizontal = 1;
place = (715, -20);
target = down;
type = TopGhost;
},
{
horizontal = 1;
place = (757, 106);
place = (757, 106);
type = Stem;
},
{
place = (55, 90);
place = (55, 90);
type = Stem;
},
{
place = (513, 90);
place = (513, 90);
type = Stem;
}
);
layerId = m01;
shapes = (
{
closed = 1;
nodes = (
(482,-11,o),
(603,58,o),
(603,231,cs),
(603,715,l),
(513,715,l),
(513,240,ls),
(513,118,o),
(445,66,o),
(332,66,cs),
(214,66,o),
(145,118,o),
(145,240,cs),
(145,715,l),
(55,715,l),
(55,231,ls),
(55,58,o),
(173,-11,o),
(329,-11,cs)
);
},
{
closed = 1;
nodes = (
(192,757,l),
(277,757,l),
(328,820,l),
(330,820,l),
(379,757,l),
(466,757,l),
(377,863,l),
(285,863,l)
);
}
);
width = 658;
}
);
note = Ucircumflex;
unicode = 219;
},
{
glyphname = Ugrave;
kernLeft = U;
kernRight = U;
layers = (
{
hints = (
{
horizontal = 1;
place = (-11, 77);
place = (-11, 77);
type = Stem;
},
{
horizontal = 1;
place = (715, -20);
target = down;
type = TopGhost;
},
{
horizontal = 1;
place = (753, 121);
place = (753, 121);
type = Stem;
},
{
place = (55, 90);
place = (55, 90);
type = Stem;
},
{
place = (513, 90);
place = (513, 90);
type = Stem;
}
);
layerId = m01;
shapes = (
{
closed = 1;
nodes = (
(482,-11,o),
(603,58,o),
(603,231,cs),
(603,715,l),
(513,715,l),
(513,240,ls),
(513,118,o),
(445,66,o),
(332,66,cs),
(214,66,o),
(145,118,o),
(145,240,cs),
(145,715,l),
(55,715,l),
(55,231,ls),
(55,58,o),
(173,-11,o),
(329,-11,cs)
);
},
{
closed = 1;
nodes = (
(303,753,l),
(372,753,l),
(321,874,l),
(221,874,l)
);
}
);
width = 658;
}
);
note = Ugrave;
unicode = 217;
},
{
glyphname = dotlessi;
kernLeft = m;
kernRight = u;
layers = (
{
hints = (
{
horizontal = 1;
place = (0, 21);
target = up;
type = BottomGhost;
},
{
horizontal = 1;
place = (517, -20);
target = down;
type = TopGhost;
},
{
place = (55, 81);
place = (55, 81);
type = Stem;
}
);
layerId = m01;
shapes = (
{
closed = 1;
nodes = (
(55,0,l),
(136,0,l),
(136,517,l),
(55,517,l)
);
}
);
width = 191;
}
);
note = dotlessi;
unicode = 305;
},
{
glyphname = circumflex;
layers = (
{
hints = (
{
horizontal = 1;
place = (602, 106);
place = (602, 106);
type = Stem;
},
{
place = (113, 274);
place = (113, 274);
type = Stem;
}
);
layerId = m01;
shapes = (
{
closed = 1;
nodes = (
(113,602,l),
(198,602,l),
(249,665,l),
(251,665,l),
(300,602,l),
(387,602,l),
(298,708,l),
(206,708,l)
);
}
);
width = 500;
}
);
note = circumflex;
unicode = 710;
},
{
glyphname = tilde;
layers = (
{
hints = (
{
horizontal = 1;
place = (601, 92);
place = (601, 92);
type = Stem;
},
{
place = (110, 60);
place = (110, 60);
type = Stem;
},
{
place = (331, 58);
place = (331, 58);
type = Stem;
},
{
horizontal = 1;
place = (601, 62);
place = (601, 62);
type = Stem;
},
{
horizontal = 1;
place = (633, 62);
place = (633, 62);
type = Stem;
},
{
horizontal = 1;
place = (603, 92);
place = (603, 92);
type = Stem;
}
);
layerId = m01;
shapes = (
{
closed = 1;
nodes = (
(365,601,o),
(386,642,o),
(389,693,c),
(331,693,l),
(329,677,o),
(323,663,o),
(304,663,cs),
(267,663,o),
(241,695,o),
(187,695,cs),
(140,695,o),
(115,660,o),
(110,603,c),
(170,603,l),
(171,621,o),
(179,633,o),
(193,633,cs),
(220,633,o),
(265,601,o),
(313,601,cs)
);
}
);
width = 500;
}
);
note = tilde;
unicode = 732;
},
{
glyphname = macron;
layers = (
{
hints = (
{
horizontal = 1;
place = (622, 67);
place = (622, 67);
type = Stem;
},
{
place = (121, 258);
place = (121, 258);
type = Stem;
}
);
layerId = m01;
shapes = (
{
closed = 1;
nodes = (
(121,622,l),
(379,622,l),
(379,689,l),
(121,689,l)
);
}
);
width = 500;
}
);
note = macron;
unicode = 175;
},
{
glyphname = breve;
layers = (
{
hints = (
{
horizontal = 1;
place = (604, 111);
place = (604, 111);
type = Stem;
},
{
place = (123, 254);
place = (123, 254);
type = Stem;
},
{
horizontal = 1;
place = (604, 62);
place = (604, 62);
type = Stem;
}
);
layerId = m01;
shapes = (
{
closed = 1;
nodes = (
(325,604,o),
(374,655,o),
(377,715,c),
(319,715,l),
(313,685,o),
(289,666,o),
(249,666,cs),
(209,666,o),
(189,685,o),
(183,715,c),
(123,715,l),
(127,648,o),
(182,604,o),
(250,604,cs)
);
}
);
width = 500;
}
);
note = breve;
unicode = 728;
},
{
glyphname = dotaccent;
layers = (
{
hints = (
{
horizontal = 1;
place = (615, 100);
place = (615, 100);
type = Stem;
},
{
place = (209, 81);
place = (209, 81);
type = Stem;
}
);
layerId = m01;
shapes = (
{
closed = 1;
nodes = (
(209,615,l),
(290,615,l),
(290,715,l),
(209,715,l)
);
}
);
width = 500;
}
);
note = dotaccent;
unicode = 729;
},
{
glyphname = ring;
layers = (
{
hints = (
{
horizontal = 1;
place = (559, 35);
place = (559, 35);
type = Stem;
},
{
horizontal = 1;
place = (694, 35);
place = (694, 35);
type = Stem;
},
{
place = (167, 40);
place = (167, 40);
type = Stem;
},
{
place = (301, 40);
place = (301, 40);
type = Stem;
}
);
layerId = m01;
shapes = (
{
closed = 1;
nodes = (
(302,559,o),
(341,597,o),
(341,644,cs),
(341,691,o),
(302,729,o),
(254,729,cs),
(206,729,o),
(167,691,o),
(167,644,cs),
(167,597,o),
(206,559,o),
(254,559,cs)
);
},
{
closed = 1;
nodes = (
(226,594,o),
(207,616,o),
(207,644,cs),
(207,672,o),
(226,694,o),
(254,694,cs),
(282,694,o),
(301,672,o),
(301,644,cs),
(301,616,o),
(282,594,o),
(254,594,cs)
);
}
);
width = 509;
}
);
note = ring;
unicode = 730;
},
